<?xml version="1.0" encoding="utf-8"?>
<!-- Generator: Adobe Illustrator 16.0.0, SVG Export Plug-In . SVG Version: 6.00 Build 0)  -->
<!DOCTYPE svg PUBLIC "-//W3C//DTD SVG 1.1//EN" "http://www.w3.org/Graphics/SVG/1.1/DTD/svg11.dtd">
<svg version="1.1" id="Layer_1" xmlns="http://www.w3.org/2000/svg" xmlns:xlink="http://www.w3.org/1999/xlink" x="0px" y="0px"
	 width="175px" height="40px" viewBox="0 0 175 40" enable-background="new 0 0 175 40" xml:space="preserve">
<g>
	<g>
		<defs>
			<path id="SVGID_1_" d="M19.894,20.831c1.229-3.025,1.961-6.185,2.127-9.276c0.077-1.552,0.033-3.092-0.188-4.566
				c-0.055-0.41-0.133-0.809-0.21-1.208C18.541,4.251,16.8,2.5,16.8,2.5s-1.717,1.74-4.765,3.27
				c0.221,0.543,0.421,1.098,0.598,1.641c0.466,1.407,0.81,2.814,1.064,4.233s0.421,2.826,0.499,4.233
				c0.078,1.408,0.078,2.804,0,4.189c-0.067,1.386-0.233,2.749-0.433,4.101c-0.222,1.353-0.477,2.683-0.819,3.979
				c-0.532,2.116-1.208,4.188-2.006,6.184c0.032,0.022,0.065,0.045,0.099,0.066c1.43-1.563,2.771-3.191,3.99-4.888
				C17,26.761,18.697,23.868,19.894,20.831z"/>
		</defs>
		<clipPath id="SVGID_2_">
			<use xlink:href="#SVGID_1_"  overflow="visible"/>
		</clipPath>
		<g clip-path="url(#SVGID_2_)">
			<defs>
				<rect id="SVGID_3_" x="-1183" y="-2421.5" width="1400" height="2730"/>
			</defs>
			<clipPath id="SVGID_4_">
				<use xlink:href="#SVGID_3_"  overflow="visible"/>
			</clipPath>
			<rect x="9.939" y="1.5" clip-path="url(#SVGID_4_)" fill="#009CC5" width="13.159" height="33.896"/>
		</g>
	</g>
	<g>
		<defs>
			<path id="SVGID_5_" d="M32.694,7.92c-1.607,0.133-3.114,0.077-4.511-0.122c-0.121,1.563-0.365,3.081-0.721,4.566
				c-0.875,3.668-2.372,7.07-4.3,10.118c-0.465,0.776-0.986,1.508-1.496,2.239c-0.255,0.365-0.543,0.709-0.809,1.063l-0.41,0.532
				c-0.134,0.177-0.288,0.344-0.421,0.51l-0.854,1.009c-0.288,0.332-0.598,0.653-0.897,0.975c-0.588,0.654-1.22,1.264-1.84,1.873
				c-1.519,1.475-3.125,2.838-4.787,4.112c1.507,1.042,3.214,1.962,5.152,2.704C35.232,30.462,32.694,7.92,32.694,7.92z"/>
		</defs>
		<clipPath id="SVGID_6_">
			<use xlink:href="#SVGID_5_"  overflow="visible"/>
		</clipPath>
		<g clip-path="url(#SVGID_6_)">
			<defs>
				<rect id="SVGID_7_" x="-1183" y="-2421.5" width="1400" height="2730"/>
			</defs>
			<clipPath id="SVGID_8_">
				<use xlink:href="#SVGID_7_"  overflow="visible"/>
			</clipPath>
			<rect x="10.648" y="6.798" clip-path="url(#SVGID_8_)" fill="#009CC5" width="25.584" height="31.702"/>
		</g>
	</g>
	<g>
		<defs>
			<path id="SVGID_9_" d="M11.015,24.034c-0.11-1.274-0.255-2.538-0.487-3.769c-0.232-1.241-0.509-2.449-0.864-3.635
				s-0.776-2.339-1.263-3.436c-0.488-1.108-1.031-2.173-1.642-3.159C6.46,9.538,6.139,9.062,5.806,8.618
				C5.64,8.396,5.474,8.186,5.307,7.986C5.275,7.941,5.23,7.897,5.198,7.854C3.878,8.02,2.47,8.053,0.974,7.931
				c0,0-1.973,17.079,9.676,26.155c0.3-2.061,0.466-4.134,0.499-6.195C11.16,26.605,11.105,25.309,11.015,24.034z"/>
		</defs>
		<clipPath id="SVGID_10_">
			<use xlink:href="#SVGID_9_"  overflow="visible"/>
		</clipPath>
		<g clip-path="url(#SVGID_10_)">
			<defs>
				<rect id="SVGID_11_" x="-1183" y="-2421.5" width="1400" height="2730"/>
			</defs>
			<clipPath id="SVGID_12_">
				<use xlink:href="#SVGID_11_"  overflow="visible"/>
			</clipPath>
			<rect x="-1.999" y="6.854" clip-path="url(#SVGID_12_)" fill="#009CC5" width="14.158" height="28.232"/>
		</g>
	</g>
	<g>
		<defs>
			<polygon id="SVGID_13_" points="57.509,28.302 54.573,17.713 52.176,17.713 49.24,28.302 46.283,17.713 43.848,17.713 
				48.099,32.379 50.361,32.379 53.375,21.906 56.37,32.379 58.651,32.379 62.92,17.713 60.466,17.713 			"/>
		</defs>
		<clipPath id="SVGID_14_">
			<use xlink:href="#SVGID_13_"  overflow="visible"/>
		</clipPath>
		<g clip-path="url(#SVGID_14_)">
			<defs>
				<rect id="SVGID_15_" x="-1183" y="-2421.5" width="1400" height="2730"/>
			</defs>
			<clipPath id="SVGID_16_">
				<use xlink:href="#SVGID_15_"  overflow="visible"/>
			</clipPath>
			<rect x="42.848" y="16.713" clip-path="url(#SVGID_16_)" fill="#FFFFFF" width="21.072" height="16.666"/>
		</g>
	</g>
	<g>
		<defs>
			<path id="SVGID_17_" d="M65.568,25.693c0.136-0.831,0.444-1.449,0.928-1.894c0.482-0.464,1.179-0.677,2.029-0.677
				c0.792,0,1.41,0.213,1.836,0.657c0.405,0.425,0.676,1.063,0.811,1.913H65.568z M71.171,21.731
				c-0.772-0.463-1.7-0.715-2.744-0.715c-1.062,0-2.028,0.252-2.84,0.734c-0.812,0.483-1.469,1.179-1.913,2.067
				c-0.444,0.89-0.677,1.933-0.677,3.111c0,1.121,0.232,2.126,0.696,2.995c0.464,0.87,1.12,1.546,1.952,2.029
				c0.83,0.483,1.797,0.715,2.879,0.715s2.067-0.271,2.937-0.831c0.87-0.541,1.527-1.313,1.952-2.299l0.058-0.116l-2.279-0.715
				l-0.039,0.097c-0.251,0.541-0.618,0.946-1.082,1.236s-1.005,0.425-1.623,0.425c-0.87,0-1.566-0.271-2.049-0.772
				c-0.483-0.503-0.773-1.218-0.869-2.126h8.058v-0.115c0.02-0.271,0.02-0.464,0.02-0.6c0-1.179-0.213-2.222-0.618-3.092
				C72.543,22.872,71.945,22.195,71.171,21.731z"/>
		</defs>
		<clipPath id="SVGID_18_">
			<use xlink:href="#SVGID_17_"  overflow="visible"/>
		</clipPath>
		<g clip-path="url(#SVGID_18_)">
			<defs>
				<rect id="SVGID_19_" x="-1183" y="-2421.5" width="1400" height="2730"/>
			</defs>
			<clipPath id="SVGID_20_">
				<use xlink:href="#SVGID_19_"  overflow="visible"/>
			</clipPath>
			<rect x="61.998" y="20.017" clip-path="url(#SVGID_20_)" fill="#FFFFFF" width="12.609" height="13.652"/>
		</g>
	</g>
	<g>
		<defs>
			<path id="SVGID_21_" d="M79.404,30.718c-0.6,0-1.063-0.136-1.372-0.406c-0.31-0.271-0.464-0.599-0.464-1.024
				c0-0.367,0.115-0.656,0.367-0.889c0.252-0.231,0.6-0.444,1.043-0.599c0.388-0.116,0.813-0.213,1.296-0.29
				c0.482-0.077,1.217-0.193,2.183-0.348l0.116-0.02c-0.02,0.657-0.097,1.159-0.212,1.526c-0.078,0.348-0.251,0.677-0.503,0.985
				c-0.251,0.31-0.579,0.561-1.005,0.773C80.448,30.621,79.964,30.718,79.404,30.718z M84.525,23.143
				c-0.329-0.715-0.89-1.256-1.604-1.604c-0.715-0.349-1.604-0.522-2.608-0.522c-1.236,0-2.261,0.271-3.054,0.831
				c-0.792,0.541-1.313,1.314-1.604,2.3l-0.038,0.116l2.183,0.676l0.039-0.116c0.155-0.541,0.464-0.946,0.908-1.217
				c0.445-0.271,0.966-0.406,1.546-0.406c0.792,0,1.391,0.174,1.739,0.503c0.329,0.309,0.521,0.812,0.58,1.469l-0.213,0.019
				c-1.159,0.155-2.067,0.29-2.705,0.406c-0.657,0.116-1.237,0.251-1.759,0.405c-1.759,0.561-2.647,1.682-2.647,3.324
				c0,0.618,0.155,1.198,0.445,1.7c0.29,0.503,0.733,0.928,1.294,1.218s1.256,0.444,2.049,0.444c0.889,0,1.662-0.154,2.318-0.464
				c0.561-0.271,1.043-0.657,1.449-1.159v1.333h2.087v-6.782c0-0.522-0.02-0.985-0.077-1.372S84.679,23.49,84.525,23.143z"/>
		</defs>
		<clipPath id="SVGID_22_">
			<use xlink:href="#SVGID_21_"  overflow="visible"/>
		</clipPath>
		<g clip-path="url(#SVGID_22_)">
			<defs>
				<rect id="SVGID_23_" x="-1183" y="-2421.5" width="1400" height="2730"/>
			</defs>
			<clipPath id="SVGID_24_">
				<use xlink:href="#SVGID_23_"  overflow="visible"/>
			</clipPath>
			<rect x="74.288" y="20.017" clip-path="url(#SVGID_24_)" fill="#FFFFFF" width="11.643" height="13.672"/>
		</g>
	</g>
	<g>
		<defs>
			<rect id="SVGID_25_" x="87.984" y="17.713" width="2.338" height="14.666"/>
		</defs>
		<clipPath id="SVGID_26_">
			<use xlink:href="#SVGID_25_"  overflow="visible"/>
		</clipPath>
		<rect x="86.984" y="16.713" clip-path="url(#SVGID_26_)" fill="#FFFFFF" width="4.338" height="16.666"/>
	</g>
	<g>
		<defs>
			<path id="SVGID_27_" d="M96.796,18.312h-2.339v3.015H92.39v1.933h2.067v5.526c0,0.483,0.02,0.889,0.078,1.217
				c0.058,0.349,0.174,0.677,0.347,1.005c0.29,0.541,0.735,0.928,1.314,1.179c0.58,0.252,1.236,0.367,2.01,0.367
				c0.522,0,1.102-0.058,1.739-0.174l0.097-0.019v-2.01l-0.135,0.019c-1.005,0.155-1.739,0.155-2.261-0.058
				c-0.271-0.116-0.465-0.271-0.619-0.521c-0.077-0.136-0.136-0.31-0.154-0.503c-0.02-0.212-0.039-0.482-0.039-0.812v-5.236h3.208
				v-1.933h-3.208v-2.995H96.796z"/>
		</defs>
		<clipPath id="SVGID_28_">
			<use xlink:href="#SVGID_27_"  overflow="visible"/>
		</clipPath>
		<g clip-path="url(#SVGID_28_)">
			<defs>
				<rect id="SVGID_29_" x="-1183" y="-2421.5" width="1400" height="2730"/>
			</defs>
			<clipPath id="SVGID_30_">
				<use xlink:href="#SVGID_29_"  overflow="visible"/>
			</clipPath>
			<rect x="91.39" y="17.312" clip-path="url(#SVGID_30_)" fill="#FFFFFF" width="9.652" height="16.241"/>
		</g>
	</g>
	<g>
		<defs>
			<path id="SVGID_31_" d="M110.863,21.906c-0.657-0.58-1.584-0.89-2.744-0.89c-0.792,0-1.507,0.136-2.106,0.426
				c-0.521,0.231-0.966,0.56-1.353,0.966v-4.695h-2.106v14.666h2.357v-5.758c0-1.179,0.252-2.049,0.735-2.57
				c0.482-0.541,1.12-0.792,1.893-0.792c1.005,0,1.662,0.348,2.049,1.043c0.386,0.715,0.58,1.604,0.58,2.647v5.43h2.357v-6.125
				c0-0.734-0.116-1.508-0.329-2.28C111.945,23.182,111.501,22.505,110.863,21.906z"/>
		</defs>
		<clipPath id="SVGID_32_">
			<use xlink:href="#SVGID_31_"  overflow="visible"/>
		</clipPath>
		<g clip-path="url(#SVGID_32_)">
			<defs>
				<rect id="SVGID_33_" x="-1183" y="-2421.5" width="1400" height="2730"/>
			</defs>
			<clipPath id="SVGID_34_">
				<use xlink:href="#SVGID_33_"  overflow="visible"/>
			</clipPath>
			<rect x="101.554" y="16.713" clip-path="url(#SVGID_34_)" fill="#FFFFFF" width="11.972" height="16.666"/>
		</g>
	</g>
	<g>
		<defs>
			<path id="SVGID_35_" d="M117.723,19.915h3.536c0.349,0,0.638,0.039,0.89,0.097c0.561,0.136,0.985,0.426,1.256,0.87
				c0.271,0.464,0.425,0.985,0.425,1.546s-0.135,1.082-0.425,1.546c-0.271,0.444-0.695,0.754-1.256,0.889
				c-0.252,0.058-0.541,0.097-0.89,0.097h-3.536V19.915z M125.549,25.094c0.425-0.753,0.639-1.642,0.639-2.646
				c0-0.793-0.136-1.546-0.406-2.184c-0.271-0.657-0.696-1.218-1.256-1.643c-0.561-0.426-1.237-0.715-2.049-0.831
				c-0.348-0.059-0.734-0.077-1.14-0.077h-5.952v14.666h2.338V27.2h3.633l2.513,5.179h2.667l-2.764-5.661
				C124.544,26.369,125.143,25.81,125.549,25.094z"/>
		</defs>
		<clipPath id="SVGID_36_">
			<use xlink:href="#SVGID_35_"  overflow="visible"/>
		</clipPath>
		<g clip-path="url(#SVGID_36_)">
			<defs>
				<rect id="SVGID_37_" x="-1183" y="-2421.5" width="1400" height="2730"/>
			</defs>
			<clipPath id="SVGID_38_">
				<use xlink:href="#SVGID_37_"  overflow="visible"/>
			</clipPath>
			<rect x="114.385" y="16.713" clip-path="url(#SVGID_38_)" fill="#FFFFFF" width="13.15" height="16.666"/>
		</g>
	</g>
	<g>
		<defs>
			<rect id="SVGID_39_" x="129.124" y="17.5" width="2.338" height="2.28"/>
		</defs>
		<clipPath id="SVGID_40_">
			<use xlink:href="#SVGID_39_"  overflow="visible"/>
		</clipPath>
		<rect x="128.124" y="16.5" clip-path="url(#SVGID_40_)" fill="#FFFFFF" width="4.338" height="4.28"/>
	</g>
	<g>
		<defs>
			<rect id="SVGID_41_" x="129.124" y="21.307" width="2.338" height="11.072"/>
		</defs>
		<clipPath id="SVGID_42_">
			<use xlink:href="#SVGID_41_"  overflow="visible"/>
		</clipPath>
		<rect x="128.124" y="20.307" clip-path="url(#SVGID_42_)" fill="#FFFFFF" width="4.338" height="13.072"/>
	</g>
	<g>
		<defs>
			<path id="SVGID_43_" d="M139.443,30.544c-0.618,0-1.141-0.155-1.565-0.483c-0.425-0.31-0.754-0.754-0.967-1.314
				c-0.212-0.561-0.328-1.198-0.328-1.913s0.116-1.353,0.328-1.913c0.213-0.541,0.542-0.985,0.967-1.294
				c0.425-0.31,0.985-0.464,1.623-0.464c0.927,0,1.584,0.328,2.048,0.985s0.696,1.565,0.696,2.705c0,1.159-0.232,2.067-0.696,2.725
				S140.39,30.544,139.443,30.544z M142.245,22.118c-0.367-0.328-0.773-0.579-1.218-0.772c-0.541-0.232-1.159-0.348-1.835-0.348
				c-1.024,0-1.913,0.251-2.687,0.753c-0.754,0.503-1.353,1.198-1.759,2.087c-0.406,0.87-0.618,1.875-0.618,2.977
				c0,1.101,0.212,2.087,0.618,2.976s1.005,1.584,1.759,2.106c0.753,0.502,1.643,0.772,2.647,0.772c1.121,0,2.067-0.309,2.859-0.908
				v0.773c0.02,0.889-0.213,1.564-0.676,2.01c-0.464,0.463-1.141,0.695-2.01,0.695c-0.483,0-0.928-0.116-1.333-0.329
				c-0.406-0.212-0.715-0.521-0.928-0.946l-0.059-0.116l-2.145,1.102l0.058,0.116c0.445,0.772,1.063,1.372,1.855,1.797
				c0.772,0.425,1.643,0.638,2.551,0.638c1.313,0,2.415-0.271,3.266-0.831s1.41-1.392,1.643-2.492
				c0.097-0.445,0.135-0.986,0.135-1.624V21.326h-2.087v0.792H142.245z"/>
		</defs>
		<clipPath id="SVGID_44_">
			<use xlink:href="#SVGID_43_"  overflow="visible"/>
		</clipPath>
		<g clip-path="url(#SVGID_44_)">
			<defs>
				<rect id="SVGID_45_" x="-1183" y="-2421.5" width="1400" height="2730"/>
			</defs>
			<clipPath id="SVGID_46_">
				<use xlink:href="#SVGID_45_"  overflow="visible"/>
			</clipPath>
			<rect x="133.129" y="19.998" clip-path="url(#SVGID_46_)" fill="#FFFFFF" width="12.241" height="18.502"/>
		</g>
	</g>
	<g>
		<defs>
			<path id="SVGID_47_" d="M155.713,21.906c-0.657-0.58-1.584-0.89-2.744-0.89c-0.792,0-1.507,0.136-2.105,0.426
				c-0.522,0.231-0.967,0.56-1.354,0.966v-4.695h-2.105v14.666h2.357v-5.758c0-1.179,0.251-2.049,0.734-2.57
				c0.482-0.541,1.121-0.792,1.894-0.792c1.005,0,1.662,0.348,2.048,1.043c0.388,0.715,0.58,1.604,0.58,2.647v5.43h2.357v-6.125
				c0-0.734-0.116-1.508-0.328-2.28C156.814,23.182,156.37,22.505,155.713,21.906z"/>
		</defs>
		<clipPath id="SVGID_48_">
			<use xlink:href="#SVGID_47_"  overflow="visible"/>
		</clipPath>
		<g clip-path="url(#SVGID_48_)">
			<defs>
				<rect id="SVGID_49_" x="-1183" y="-2421.5" width="1400" height="2730"/>
			</defs>
			<clipPath id="SVGID_50_">
				<use xlink:href="#SVGID_49_"  overflow="visible"/>
			</clipPath>
			<rect x="146.404" y="16.713" clip-path="url(#SVGID_50_)" fill="#FFFFFF" width="11.971" height="16.666"/>
		</g>
	</g>
	<g>
		<defs>
			<path id="SVGID_51_" d="M166.67,23.239v-1.933h-3.208v-3.015h-2.356v3.015h-2.068v1.933h2.068v5.526
				c0,0.483,0.019,0.889,0.076,1.218c0.059,0.348,0.174,0.676,0.349,1.005c0.29,0.541,0.733,0.927,1.313,1.179
				c0.58,0.251,1.237,0.367,2.01,0.367c0.521,0,1.102-0.059,1.739-0.174l0.097-0.02v-2.01l-0.136,0.02
				c-1.005,0.154-1.739,0.154-2.261-0.059c-0.27-0.115-0.464-0.271-0.618-0.521c-0.078-0.135-0.136-0.31-0.155-0.502
				c-0.019-0.213-0.037-0.483-0.037-0.813V23.22h3.188V23.239z"/>
		</defs>
		<clipPath id="SVGID_52_">
			<use xlink:href="#SVGID_51_"  overflow="visible"/>
		</clipPath>
		<g clip-path="url(#SVGID_52_)">
			<defs>
				<rect id="SVGID_53_" x="-1183" y="-2421.5" width="1400" height="2730"/>
			</defs>
			<clipPath id="SVGID_54_">
				<use xlink:href="#SVGID_53_"  overflow="visible"/>
			</clipPath>
			<rect x="158.037" y="17.292" clip-path="url(#SVGID_54_)" fill="#FFFFFF" width="9.652" height="16.242"/>
		</g>
	</g>
	<g>
		<defs>
			<polygon id="SVGID_55_" points="170.237,14.5 170.237,14.937 169.379,14.937 169.379,17.855 168.858,17.855 168.858,14.937 
				168,14.937 168,14.5 			"/>
		</defs>
		<clipPath id="SVGID_56_">
			<use xlink:href="#SVGID_55_"  overflow="visible"/>
		</clipPath>
		<g clip-path="url(#SVGID_56_)">
			<defs>
				<rect id="SVGID_57_" x="-1183" y="-2421.5" width="1400" height="2730"/>
			</defs>
			<clipPath id="SVGID_58_">
				<use xlink:href="#SVGID_57_"  overflow="visible"/>
			</clipPath>
			<rect x="167" y="13.5" clip-path="url(#SVGID_58_)" fill="#FFFFFF" width="4.237" height="5.355"/>
		</g>
	</g>
	<g>
		<defs>
			<polygon id="SVGID_59_" points="174.152,14.5 174.152,17.855 173.632,17.855 173.632,15.545 172.669,17.855 172.305,17.855 
				171.317,15.545 171.317,17.855 170.796,17.855 170.796,14.5 171.369,14.5 172.487,17.141 173.605,14.5 			"/>
		</defs>
		<clipPath id="SVGID_60_">
			<use xlink:href="#SVGID_59_"  overflow="visible"/>
		</clipPath>
		<g clip-path="url(#SVGID_60_)">
			<defs>
				<rect id="SVGID_61_" x="-1183" y="-2421.5" width="1400" height="2730"/>
			</defs>
			<clipPath id="SVGID_62_">
				<use xlink:href="#SVGID_61_"  overflow="visible"/>
			</clipPath>
			<rect x="169.796" y="13.5" clip-path="url(#SVGID_62_)" fill="#FFFFFF" width="5.356" height="5.355"/>
		</g>
	</g>
</g>
</svg>
