<?xml version="1.0" encoding="utf-8"?>
<!-- Generator: Adobe Illustrator 16.0.0, SVG Export Plug-In . SVG Version: 6.00 Build 0)  -->
<!DOCTYPE svg PUBLIC "-//W3C//DTD SVG 1.1//EN" "http://www.w3.org/Graphics/SVG/1.1/DTD/svg11.dtd">
<svg version="1.1" id="Layer_1" xmlns="http://www.w3.org/2000/svg" xmlns:xlink="http://www.w3.org/1999/xlink" x="0px" y="0px"
	 width="140px" height="100px" viewBox="0 0 140 100" enable-background="new 0 0 140 100" xml:space="preserve">
<rect y="-2" display="none" fill="#191919" width="140" height="102"/>
<g>
	<g>
		<defs>
			<path id="SVGID_1_" d="M71.885,35.27c2.217-5.415,3.535-11.068,3.835-16.602c0.14-2.777,0.06-5.534-0.34-8.172
				c-0.1-0.734-0.239-1.448-0.38-2.162c-5.553-2.738-8.688-5.872-8.688-5.872s-3.096,3.115-8.588,5.852
				c0.399,0.972,0.759,1.963,1.078,2.935c0.839,2.519,1.458,5.038,1.917,7.577c0.46,2.539,0.76,5.058,0.899,7.577
				c0.14,2.52,0.14,5.02,0,7.498c-0.12,2.479-0.42,4.919-0.779,7.339c-0.399,2.42-0.858,4.8-1.478,7.121
				c-0.959,3.788-2.178,7.497-3.615,11.068c0.06,0.039,0.119,0.079,0.18,0.119c2.576-2.797,4.993-5.713,7.19-8.748
				C66.671,45.881,69.728,40.704,71.885,35.27z"/>
		</defs>
		<clipPath id="SVGID_2_">
			<use xlink:href="#SVGID_1_"  overflow="visible"/>
		</clipPath>
		<g clip-path="url(#SVGID_2_)">
			<defs>
				<rect id="SVGID_3_" x="-16.208" y="-9.401" width="1400" height="2730"/>
			</defs>
			<clipPath id="SVGID_4_">
				<use xlink:href="#SVGID_3_"  overflow="visible"/>
			</clipPath>
			<rect x="54.746" y="1.462" clip-path="url(#SVGID_4_)" fill="#009CC5" width="22.113" height="59.086"/>
		</g>
	</g>
	<g>
		<defs>
			<path id="SVGID_5_" d="M94.954,12.162c-2.896,0.238-5.612,0.139-8.129-0.218c-0.22,2.796-0.659,5.514-1.299,8.172
				c-1.578,6.565-4.274,12.654-7.75,18.109c-0.839,1.388-1.777,2.698-2.696,4.007c-0.459,0.654-0.979,1.27-1.458,1.904l-0.739,0.952
				c-0.239,0.316-0.519,0.615-0.759,0.912l-1.538,1.805c-0.519,0.595-1.078,1.171-1.617,1.746c-1.059,1.17-2.197,2.261-3.316,3.352
				c-2.736,2.638-5.632,5.078-8.628,7.359c2.716,1.864,5.792,3.51,9.287,4.839C99.528,52.506,94.954,12.162,94.954,12.162z"/>
		</defs>
		<clipPath id="SVGID_6_">
			<use xlink:href="#SVGID_5_"  overflow="visible"/>
		</clipPath>
		<g clip-path="url(#SVGID_6_)">
			<defs>
				<rect id="SVGID_7_" x="-16.208" y="-9.401" width="1400" height="2730"/>
			</defs>
			<clipPath id="SVGID_8_">
				<use xlink:href="#SVGID_7_"  overflow="visible"/>
			</clipPath>
			<rect x="56.024" y="10.943" clip-path="url(#SVGID_8_)" fill="#009CC5" width="44.504" height="55.157"/>
		</g>
	</g>
	<g>
		<defs>
			<path id="SVGID_9_" d="M55.886,41.002c-0.2-2.281-0.46-4.542-0.879-6.744c-0.42-2.222-0.919-4.384-1.558-6.506
				c-0.64-2.122-1.398-4.186-2.277-6.149c-0.879-1.983-1.857-3.887-2.956-5.653c-0.539-0.892-1.118-1.745-1.718-2.539
				c-0.3-0.396-0.6-0.773-0.898-1.13c-0.061-0.08-0.141-0.159-0.2-0.237c-2.377,0.297-4.913,0.356-7.61,0.139
				c0,0-3.555,30.565,17.438,46.81c0.539-3.688,0.839-7.397,0.898-11.088C56.146,45.604,56.045,43.283,55.886,41.002z"/>
		</defs>
		<clipPath id="SVGID_10_">
			<use xlink:href="#SVGID_9_"  overflow="visible"/>
		</clipPath>
		<g clip-path="url(#SVGID_10_)">
			<defs>
				<rect id="SVGID_11_" x="-16.208" y="-9.401" width="1400" height="2730"/>
			</defs>
			<clipPath id="SVGID_12_">
				<use xlink:href="#SVGID_11_"  overflow="visible"/>
			</clipPath>
			<rect x="33.234" y="11.043" clip-path="url(#SVGID_12_)" fill="#009CC5" width="23.911" height="48.948"/>
		</g>
	</g>
	<g>
		<defs>
			<polygon id="SVGID_13_" points="17.006,88.022 13.971,77.065 11.494,77.065 8.459,88.022 5.403,77.065 2.887,77.065 7.28,92.241 
				9.617,92.241 12.732,81.404 15.828,92.241 18.185,92.241 22.598,77.065 20.062,77.065 			"/>
		</defs>
		<clipPath id="SVGID_14_">
			<use xlink:href="#SVGID_13_"  overflow="visible"/>
		</clipPath>
		<g clip-path="url(#SVGID_14_)">
			<defs>
				<rect id="SVGID_15_" x="-16.208" y="-9.401" width="1400" height="2730"/>
			</defs>
			<clipPath id="SVGID_16_">
				<use xlink:href="#SVGID_15_"  overflow="visible"/>
			</clipPath>
			<rect x="1.887" y="76.065" clip-path="url(#SVGID_16_)" fill="#FFFFF0" width="21.711" height="17.176"/>
		</g>
	</g>
	<g>
		<defs>
			<path id="SVGID_17_" d="M25.334,85.323c0.14-0.859,0.46-1.5,0.959-1.96c0.499-0.479,1.218-0.7,2.097-0.7
				c0.819,0,1.458,0.221,1.897,0.681c0.419,0.44,0.699,1.1,0.839,1.979H25.334z M31.126,81.225c-0.799-0.479-1.758-0.74-2.836-0.74
				c-1.099,0-2.097,0.261-2.936,0.761s-1.519,1.219-1.978,2.139s-0.699,1.999-0.699,3.219c0,1.16,0.24,2.199,0.719,3.1
				c0.479,0.899,1.159,1.6,2.018,2.099c0.858,0.5,1.857,0.739,2.976,0.739s2.137-0.279,3.036-0.859
				c0.898-0.559,1.577-1.359,2.017-2.379l0.06-0.12l-2.356-0.74l-0.04,0.101c-0.26,0.56-0.639,0.979-1.118,1.279
				c-0.479,0.301-1.038,0.44-1.678,0.44c-0.898,0-1.617-0.28-2.116-0.8c-0.5-0.521-0.799-1.26-0.899-2.199h8.328v-0.12
				c0.021-0.28,0.021-0.479,0.021-0.62c0-1.22-0.22-2.299-0.64-3.199C32.544,82.403,31.925,81.704,31.126,81.225z"/>
		</defs>
		<clipPath id="SVGID_18_">
			<use xlink:href="#SVGID_17_"  overflow="visible"/>
		</clipPath>
		<g clip-path="url(#SVGID_18_)">
			<defs>
				<rect id="SVGID_19_" x="-16.208" y="-9.401" width="1400" height="2730"/>
			</defs>
			<clipPath id="SVGID_20_">
				<use xlink:href="#SVGID_19_"  overflow="visible"/>
			</clipPath>
			<rect x="21.678" y="79.484" clip-path="url(#SVGID_20_)" fill="#FFFFF0" width="12.965" height="14.056"/>
		</g>
	</g>
	<g>
		<defs>
			<path id="SVGID_21_" d="M39.634,90.521c-0.619,0-1.099-0.14-1.418-0.42c-0.32-0.28-0.479-0.62-0.479-1.06
				c0-0.381,0.12-0.681,0.379-0.92c0.26-0.239,0.619-0.459,1.079-0.619c0.399-0.12,0.839-0.221,1.338-0.301s1.258-0.199,2.257-0.359
				l0.119-0.02c-0.02,0.68-0.1,1.199-0.22,1.578c-0.079,0.36-0.259,0.7-0.519,1.021c-0.26,0.319-0.6,0.58-1.039,0.8
				C40.712,90.422,40.213,90.521,39.634,90.521z M44.926,82.684c-0.34-0.739-0.919-1.299-1.657-1.659
				c-0.739-0.359-1.658-0.54-2.696-0.54c-1.278,0-2.337,0.28-3.155,0.86c-0.819,0.56-1.358,1.359-1.658,2.379l-0.04,0.12l2.257,0.7
				l0.04-0.12c0.16-0.561,0.479-0.98,0.938-1.261c0.46-0.279,0.999-0.42,1.598-0.42c0.819,0,1.438,0.181,1.798,0.521
				c0.339,0.32,0.539,0.84,0.599,1.521l-0.22,0.02c-1.198,0.16-2.137,0.3-2.796,0.419c-0.679,0.12-1.277,0.26-1.817,0.42
				c-1.817,0.58-2.735,1.74-2.735,3.438c0,0.641,0.159,1.24,0.459,1.761c0.3,0.519,0.759,0.959,1.338,1.259s1.298,0.46,2.117,0.46
				c0.919,0,1.718-0.16,2.396-0.479c0.579-0.28,1.078-0.681,1.498-1.199v1.379h2.156v-7.018c0-0.539-0.02-1.02-0.079-1.42
				C45.205,83.424,45.086,83.044,44.926,82.684z"/>
		</defs>
		<clipPath id="SVGID_22_">
			<use xlink:href="#SVGID_21_"  overflow="visible"/>
		</clipPath>
		<g clip-path="url(#SVGID_22_)">
			<defs>
				<rect id="SVGID_23_" x="-16.208" y="-9.401" width="1400" height="2730"/>
			</defs>
			<clipPath id="SVGID_24_">
				<use xlink:href="#SVGID_23_"  overflow="visible"/>
			</clipPath>
			<rect x="34.38" y="79.484" clip-path="url(#SVGID_24_)" fill="#FFFFF0" width="11.965" height="14.076"/>
		</g>
	</g>
	<g>
		<defs>
			<rect id="SVGID_25_" x="48.501" y="77.065" width="2.416" height="15.176"/>
		</defs>
		<clipPath id="SVGID_26_">
			<use xlink:href="#SVGID_25_"  overflow="visible"/>
		</clipPath>
		<rect x="47.501" y="76.065" clip-path="url(#SVGID_26_)" fill="#FFFFF0" width="4.416" height="17.176"/>
	</g>
	<g>
		<defs>
			<path id="SVGID_27_" d="M57.607,77.686H55.19v3.119h-2.137v1.999h2.137v5.718c0,0.5,0.021,0.92,0.08,1.261
				c0.061,0.359,0.18,0.699,0.359,1.039c0.3,0.56,0.759,0.959,1.358,1.219c0.599,0.261,1.278,0.381,2.077,0.381
				c0.539,0,1.138-0.061,1.797-0.18l0.101-0.021v-2.079l-0.141,0.02c-1.038,0.16-1.797,0.16-2.336-0.06
				c-0.28-0.12-0.479-0.28-0.64-0.54c-0.08-0.14-0.14-0.32-0.159-0.52c-0.021-0.221-0.04-0.5-0.04-0.84v-5.418h3.315v-2h-3.315
				v-3.099H57.607z"/>
		</defs>
		<clipPath id="SVGID_28_">
			<use xlink:href="#SVGID_27_"  overflow="visible"/>
		</clipPath>
		<g clip-path="url(#SVGID_28_)">
			<defs>
				<rect id="SVGID_29_" x="-16.208" y="-9.401" width="1400" height="2730"/>
			</defs>
			<clipPath id="SVGID_30_">
				<use xlink:href="#SVGID_29_"  overflow="visible"/>
			</clipPath>
			<rect x="52.054" y="76.686" clip-path="url(#SVGID_30_)" fill="#FFFFF0" width="9.909" height="16.735"/>
		</g>
	</g>
	<g>
		<defs>
			<path id="SVGID_31_" d="M72.146,81.404c-0.68-0.6-1.638-0.92-2.836-0.92c-0.819,0-1.558,0.14-2.177,0.44
				c-0.539,0.24-0.999,0.58-1.398,1v-4.859h-2.177v15.176h2.437v-5.959c0-1.219,0.26-2.119,0.759-2.658
				c0.499-0.561,1.158-0.82,1.957-0.82c1.039,0,1.718,0.359,2.117,1.08c0.399,0.74,0.6,1.659,0.6,2.738v5.619h2.436v-6.339
				c0-0.759-0.119-1.559-0.339-2.358C73.265,82.724,72.806,82.024,72.146,81.404z"/>
		</defs>
		<clipPath id="SVGID_32_">
			<use xlink:href="#SVGID_31_"  overflow="visible"/>
		</clipPath>
		<g clip-path="url(#SVGID_32_)">
			<defs>
				<rect id="SVGID_33_" x="-16.208" y="-9.401" width="1400" height="2730"/>
			</defs>
			<clipPath id="SVGID_34_">
				<use xlink:href="#SVGID_33_"  overflow="visible"/>
			</clipPath>
			<rect x="62.559" y="76.065" clip-path="url(#SVGID_34_)" fill="#FFFFF0" width="12.305" height="17.176"/>
		</g>
	</g>
	<g>
		<defs>
			<path id="SVGID_35_" d="M79.236,79.345h3.654c0.359,0,0.659,0.04,0.919,0.1c0.579,0.141,1.019,0.44,1.298,0.9
				c0.279,0.48,0.439,1.02,0.439,1.6c0,0.579-0.14,1.119-0.439,1.6c-0.279,0.46-0.719,0.779-1.298,0.92
				c-0.26,0.06-0.56,0.1-0.919,0.1h-3.654V79.345z M87.324,84.704c0.439-0.78,0.659-1.7,0.659-2.739c0-0.82-0.14-1.601-0.42-2.261
				c-0.279-0.679-0.719-1.259-1.298-1.698c-0.579-0.44-1.278-0.74-2.117-0.86c-0.359-0.06-0.759-0.08-1.178-0.08h-6.151v15.176
				h2.417v-5.358h3.754l2.597,5.358h2.756l-2.855-5.858C86.286,86.022,86.905,85.442,87.324,84.704z"/>
		</defs>
		<clipPath id="SVGID_36_">
			<use xlink:href="#SVGID_35_"  overflow="visible"/>
		</clipPath>
		<g clip-path="url(#SVGID_36_)">
			<defs>
				<rect id="SVGID_37_" x="-16.208" y="-9.401" width="1400" height="2730"/>
			</defs>
			<clipPath id="SVGID_38_">
				<use xlink:href="#SVGID_37_"  overflow="visible"/>
			</clipPath>
			<rect x="75.819" y="76.065" clip-path="url(#SVGID_38_)" fill="#FFFFF0" width="13.523" height="17.176"/>
		</g>
	</g>
	<g>
		<defs>
			<rect id="SVGID_39_" x="91.019" y="76.846" width="2.417" height="2.358"/>
		</defs>
		<clipPath id="SVGID_40_">
			<use xlink:href="#SVGID_39_"  overflow="visible"/>
		</clipPath>
		<rect x="90.019" y="75.846" clip-path="url(#SVGID_40_)" fill="#FFFFF0" width="4.417" height="4.358"/>
	</g>
	<g>
		<defs>
			<rect id="SVGID_41_" x="91.019" y="80.784" width="2.417" height="11.457"/>
		</defs>
		<clipPath id="SVGID_42_">
			<use xlink:href="#SVGID_41_"  overflow="visible"/>
		</clipPath>
		<rect x="90.019" y="79.784" clip-path="url(#SVGID_42_)" fill="#FFFFF0" width="4.417" height="13.457"/>
	</g>
	<g>
		<defs>
			<path id="SVGID_43_" d="M101.684,90.342c-0.64,0-1.179-0.16-1.618-0.5c-0.439-0.32-0.778-0.78-0.998-1.36
				c-0.22-0.579-0.34-1.238-0.34-1.979s0.12-1.399,0.34-1.979c0.22-0.56,0.559-1.02,0.998-1.34s1.019-0.479,1.678-0.479
				c0.959,0,1.638,0.34,2.117,1.02s0.719,1.619,0.719,2.799c0,1.2-0.239,2.139-0.719,2.819
				C103.381,90.021,102.662,90.342,101.684,90.342z M104.579,81.624c-0.379-0.34-0.799-0.6-1.258-0.799
				c-0.56-0.24-1.198-0.36-1.897-0.36c-1.059,0-1.978,0.26-2.776,0.78c-0.778,0.52-1.397,1.238-1.817,2.158
				c-0.419,0.9-0.639,1.939-0.639,3.079s0.22,2.159,0.639,3.079c0.42,0.92,1.039,1.641,1.817,2.18
				c0.779,0.52,1.698,0.799,2.736,0.799c1.158,0,2.137-0.319,2.956-0.939v0.8c0.02,0.92-0.22,1.62-0.699,2.079
				c-0.479,0.48-1.179,0.721-2.077,0.721c-0.499,0-0.959-0.121-1.378-0.341s-0.739-0.539-0.959-0.979l-0.06-0.12l-2.217,1.139
				l0.06,0.12c0.46,0.8,1.099,1.42,1.918,1.86c0.799,0.439,1.697,0.658,2.636,0.658c1.358,0,2.496-0.278,3.375-0.858
				s1.458-1.44,1.697-2.579c0.101-0.46,0.141-1.02,0.141-1.68V80.805h-2.157v0.819H104.579z"/>
		</defs>
		<clipPath id="SVGID_44_">
			<use xlink:href="#SVGID_43_"  overflow="visible"/>
		</clipPath>
		<g clip-path="url(#SVGID_44_)">
			<defs>
				<rect id="SVGID_45_" x="-16.208" y="-9.401" width="1400" height="2730"/>
			</defs>
			<clipPath id="SVGID_46_">
				<use xlink:href="#SVGID_45_"  overflow="visible"/>
			</clipPath>
			<rect x="95.191" y="79.465" clip-path="url(#SVGID_46_)" fill="#FFFFF0" width="12.585" height="19.073"/>
		</g>
	</g>
	<g>
		<defs>
			<path id="SVGID_47_" d="M118.499,81.404c-0.68-0.6-1.638-0.92-2.836-0.92c-0.819,0-1.559,0.14-2.178,0.44
				c-0.539,0.24-0.998,0.58-1.397,1v-4.859h-2.177v15.176h2.437v-5.959c0-1.219,0.26-2.119,0.759-2.658
				c0.5-0.561,1.158-0.82,1.957-0.82c1.039,0,1.718,0.359,2.117,1.08c0.399,0.74,0.6,1.659,0.6,2.738v5.619h2.436v-6.339
				c0-0.759-0.119-1.559-0.34-2.358C119.638,82.724,119.178,82.024,118.499,81.404z"/>
		</defs>
		<clipPath id="SVGID_48_">
			<use xlink:href="#SVGID_47_"  overflow="visible"/>
		</clipPath>
		<g clip-path="url(#SVGID_48_)">
			<defs>
				<rect id="SVGID_49_" x="-16.208" y="-9.401" width="1400" height="2730"/>
			</defs>
			<clipPath id="SVGID_50_">
				<use xlink:href="#SVGID_49_"  overflow="visible"/>
			</clipPath>
			<rect x="108.911" y="76.065" clip-path="url(#SVGID_50_)" fill="#FFFFF0" width="12.305" height="17.176"/>
		</g>
	</g>
	<g>
		<defs>
			<path id="SVGID_51_" d="M129.822,82.784v-2h-3.315v-3.119h-2.436v3.119h-2.138v2h2.138v5.718c0,0.5,0.02,0.92,0.079,1.26
				c0.06,0.36,0.18,0.7,0.359,1.04c0.3,0.559,0.759,0.959,1.358,1.219s1.277,0.38,2.076,0.38c0.54,0,1.139-0.06,1.798-0.18
				l0.101-0.021v-2.078l-0.141,0.02c-1.038,0.16-1.797,0.16-2.336-0.061c-0.279-0.119-0.479-0.279-0.64-0.539
				c-0.079-0.141-0.14-0.32-0.159-0.521c-0.021-0.22-0.04-0.5-0.04-0.839v-5.419h3.295V82.784z"/>
		</defs>
		<clipPath id="SVGID_52_">
			<use xlink:href="#SVGID_51_"  overflow="visible"/>
		</clipPath>
		<g clip-path="url(#SVGID_52_)">
			<defs>
				<rect id="SVGID_53_" x="-16.208" y="-9.401" width="1400" height="2730"/>
			</defs>
			<clipPath id="SVGID_54_">
				<use xlink:href="#SVGID_53_"  overflow="visible"/>
			</clipPath>
			<rect x="120.934" y="76.665" clip-path="url(#SVGID_54_)" fill="#FFFFF0" width="9.909" height="16.735"/>
		</g>
	</g>
	<g>
		<defs>
			<polygon id="SVGID_55_" points="133.198,74.05 133.198,74.485 132.339,74.485 132.339,77.405 131.819,77.405 131.819,74.485 
				130.961,74.485 130.961,74.05 			"/>
		</defs>
		<clipPath id="SVGID_56_">
			<use xlink:href="#SVGID_55_"  overflow="visible"/>
		</clipPath>
		<g clip-path="url(#SVGID_56_)">
			<defs>
				<rect id="SVGID_57_" x="-16.208" y="-9.401" width="1400" height="2730"/>
			</defs>
			<clipPath id="SVGID_58_">
				<use xlink:href="#SVGID_57_"  overflow="visible"/>
			</clipPath>
			<rect x="129.961" y="73.05" clip-path="url(#SVGID_58_)" fill="#FFFFF0" width="4.237" height="5.355"/>
		</g>
	</g>
	<g>
		<defs>
			<polygon id="SVGID_59_" points="137.112,74.05 137.112,77.405 136.593,77.405 136.593,75.095 135.63,77.405 135.267,77.405 
				134.277,75.095 134.277,77.405 133.757,77.405 133.757,74.05 134.329,74.05 135.448,76.689 136.566,74.05 			"/>
		</defs>
		<clipPath id="SVGID_60_">
			<use xlink:href="#SVGID_59_"  overflow="visible"/>
		</clipPath>
		<g clip-path="url(#SVGID_60_)">
			<defs>
				<rect id="SVGID_61_" x="-16.208" y="-9.401" width="1400" height="2730"/>
			</defs>
			<clipPath id="SVGID_62_">
				<use xlink:href="#SVGID_61_"  overflow="visible"/>
			</clipPath>
			<rect x="132.757" y="73.05" clip-path="url(#SVGID_62_)" fill="#FFFFF0" width="5.355" height="5.355"/>
		</g>
	</g>
</g>
</svg>
