<?xml version="1.0" encoding="UTF-8"?>
<svg width="1400px" height="400px" viewBox="0 0 1400 400" version="1.1" xmlns="http://www.w3.org/2000/svg" xmlns:xlink="http://www.w3.org/1999/xlink">
    <title>02AboutWealthRight_Banner</title>
    <defs>
        <rect id="path-1" x="0" y="0" width="1400" height="400"></rect>
        <polygon id="path-3" points="0 0 85 0 85 94 0 94"></polygon>
        <polygon id="path-5" points="0 0 29 0 29 33 0 33"></polygon>
    </defs>
    <g id="Page-1" stroke="none" stroke-width="1" fill="none" fill-rule="evenodd">
        <g id="02-About-Dark" transform="translate(0.000000, -120.000000)">
            <g id="02AboutWealthRight_Banner" transform="translate(0.000000, 120.000000)">
                <mask id="mask-2" fill="white">
                    <use xlink:href="#path-1"></use>
                </mask>
                <use id="Mask" fill="#009CC5" opacity="0.1" xlink:href="#path-1"></use>
                <g id="Homa-Images" mask="url(#mask-2)">
                    <g transform="translate(166.000000, 216.000000) scale(-1, 1) translate(-166.000000, -216.000000) translate(86.000000, 32.000000)" id="Group-45">
                        <g transform="translate(0.000000, 0.000000)">
                            <g id="Group-3" transform="translate(49.000000, -0.000000)">
                                <mask id="mask-4" fill="white">
                                    <use xlink:href="#path-3"></use>
                                </mask>
                                <g id="Clip-2"></g>
                                <path d="M55.2558924,2.04756771 C48.3181591,-1.56722867 42.7590259,0.704669722 42.7590259,0.704669722 C21.5323818,-1.79959222 15.3397523,23.0651239 15.6280338,31.6208227 C15.9117967,40.1751601 16.8873448,49.3648665 7.40749314,60.4792875 C-19.9751805,92.5840346 37.3738556,94 37.3738556,94 C37.8582408,68.3496954 68.4725588,77.7091361 67.1305588,80.3077958 C106.375247,89.7675341 71.0327514,10.2687901 55.2558924,2.04756771" id="Fill-1" fill="#163560" mask="url(#mask-4)"></path>
                            </g>
                            <path d="M22,108.917317 C22,108.917317 18.3425191,103.09411 15.3951082,102.980211 C12.4472547,102.865849 6.9889226,101.267557 7.4254121,102.408863 C7.86234428,103.550632 11.24713,103.664994 11.5738331,104.350241 C11.9014215,105.035024 6.55243311,106.062894 5.0238345,106.176793 C3.49567858,106.291155 -0.10690917,106.176793 0.00243454749,106.976402 C0.111778265,107.775548 6.49576916,111.086955 10.9992252,110.62997 C15.5040093,110.173448 21.0712424,112 21.0712424,112 L22,108.917317 Z" id="Fill-4" fill="#FFB27D"></path>
                            <path d="M76,110.752074 C76,110.752074 73.9798889,114.80293 70.3157106,119.45695 C65.8998945,125.058538 59.0910721,131.529794 50.5419225,132.807189 C46.4589681,133.417186 42.4655266,132.527474 38.7950509,130.876062 C38.7856048,130.872418 38.7820063,130.872418 38.7820063,130.872418 C28.3994181,126.204731 20.5920104,115.470328 20.5920104,115.470328 C18.7626201,110.414959 21.7570266,106.987311 21.7570266,106.987311 C21.7570266,106.987311 42.7223699,111.762966 44.7186409,110.752074 C46.7153616,109.740727 58.3628246,75.7585481 61.1345735,71.4881115 C63.9099209,67.217675 73.360946,65 73.360946,65 L76,110.752074 Z" id="Fill-6" fill="#F99746"></path>
                            <path d="M70.3438029,119.345402 C65.9527631,124.99315 59.1821438,131.517733 50.680962,132.805655 C46.6209164,133.420679 42.6498813,132.523175 39,130.858155 C39.403455,130.912814 49.7152642,132.220486 53.824959,124.670251 C58.0174023,116.966605 62.5506801,104.733644 68.7787373,108.810991 C71.4656046,110.571549 71.3466256,114.944696 70.3438029,119.345402" id="Fill-8" fill="#ED7D2B"></path>
                            <g id="Group-12" transform="translate(131.000000, 335.000000)">
                                <mask id="mask-6" fill="white">
                                    <use xlink:href="#path-5"></use>
                                </mask>
                                <g id="Clip-11"></g>
                                <path d="M23.5941046,2.80147275 C23.5941046,2.80147275 30.1068233,8.7166045 28.8356022,12.919953 C27.5652969,17.12239 21.6881887,19.9243185 20.8941334,25.0610355 C20.0991623,30.1982082 16.9229411,33.0001367 14.0636094,33.0001367 L0.431868963,33.0001367 C0.431868963,33.0001367 -1.67278969,29.3856125 3.4102632,28.2950115 C8.49331609,27.2057778 10.4097644,21.1698732 10.092417,15.566472 C9.77461176,9.96215924 10.568667,2.490198 10.568667,2.490198 L21.3703834,0 L23.5941046,2.80147275 Z" id="Fill-10" fill="#36599E" mask="url(#mask-6)"></path>
                            </g>
                            <path d="M100.096918,341 C100.096918,341 102.438565,365.623353 99.580519,367 L63,366.927003 C63,366.927003 63,362.796614 68.8754068,361.878998 C74.7508136,360.960935 85.072833,357.596345 86.8197983,350.100918 C88.5663058,342.605939 100.096918,341 100.096918,341" id="Fill-13" fill="#2B478B"></path>
                            <path d="M125.836505,162.552862 C118.396438,145.84112 113.844074,141.044583 114.713281,135.857852 C115.35987,131.997148 112.7432,63.8785334 112.7432,63.8785334 C111.860418,63.6043549 110.090784,63.3587273 109.123389,63.1434632 C106.070984,62.4645883 103.545262,60.3178391 102.49416,57.3694012 C101.227678,53.8173175 100.221371,48.5721253 100.244447,42 L99.2915325,42.1876196 L83.2666329,45.3658236 C83.2666329,45.3658236 83.6313287,50.4175048 83.6417357,55.1759736 C83.6417357,55.2149478 83.6421882,55.2543751 83.6421882,55.2938024 C83.6620971,59.4264193 80.9553841,63.0741255 76.990787,64.2206899 C74.9664081,64.805755 73.205823,65.3051676 73.205823,65.3051676 C73.205823,65.3051676 67.3209166,82.1315667 66.1969655,99.417951 C65.0730145,116.703429 76.8975769,124.212293 66.1078277,158.755151 C55.0927454,194.034892 129.9468,171.787464 125.836505,162.552862" id="Fill-15" fill="#FFB27D"></path>
                            <path d="M83,45.1811647 C83,45.1811647 83.3641292,50.2370983 83.37452,55 C92.3282132,54.7464322 97.0609894,46.5456227 99,42 L83,45.1811647 Z" id="Fill-17" fill="#E8945B"></path>
                            <path d="M80.1810757,49.9991146 C80.1810757,49.9991146 101.743134,50.3503573 101.757849,37.0613705 C101.772564,23.7723838 104.565593,14.8675615 90.7995537,14.0813602 C77.0335145,13.2947038 74.3531443,18.3626997 73.2578206,22.7969117 C72.1624969,27.2315788 74.5734046,49.5650659 80.1810757,49.9991146" id="Fill-19" fill="#FFB27D"></path>
                            <path d="M81,13.6266173 C81,13.6266173 86.7024675,28.7863267 95.4531502,31.0279658 C104.204277,33.2687201 108,30.9337347 108,30.9337347 C108,30.9337347 101.287975,25.6222843 99.8946702,16.3509145 C99.8946702,16.3509145 85.3016121,6.41063637 81,13.6266173" id="Fill-21" fill="#163560"></path>
                            <path d="M83,15.4741639 C83,15.4741639 78.5887839,17.0507102 76.7739815,20.1254182 C74.9980975,23.1323702 73.4863027,27.114478 73.8370316,32 C73.8370316,32 69.3553917,21.6851362 74.3920823,15.8510293 C79.7322437,9.66397098 83,15.4741639 83,15.4741639" id="Fill-23" fill="#163560"></path>
                            <path d="M85,40.8764025 C85,40.8764025 83.4717137,43.1558703 80.4132514,42.9915216 C77.9500413,42.8592932 77,40.4379609 77,40.4379609 C77,40.4379609 81.5248612,39.2050783 85,40.8764025" id="Fill-25" fill="#EBF3FA"></path>
                            <path d="M127.759095,94.0627532 C127.759095,94.0627532 128.301132,101.652814 127.759095,110.761068 C127.397888,116.798123 121.245539,124.884603 120.372358,126.8852 C118.182346,131.901837 115.712205,132.718352 115.712205,132.718352 L96.6019787,137.36697 L89.8829954,139 L68.6934419,132.718352 C68.6934419,132.718352 59.0424475,105.97998 62.9177854,90.9282588 C66.7931234,75.8769893 72.7136267,65.4246058 72.7136267,65.4246058 C72.7136267,65.4246058 90.0037012,82.2287146 112.517374,64 L127.759095,94.0627532 Z" id="Fill-27" fill="#F99746"></path>
                            <path d="M70.1015592,137 C70.1015592,137 59.6855492,169.405719 59.015926,180.438857 C58.3476592,191.471543 78.9278356,337.172322 79.7557088,342.255953 C80.536107,347.048096 86.4894691,350.103065 86.4894691,350.103065 C86.4894691,350.103065 89.2276449,351.717318 93.1355137,350.614637 C98.5576082,349.084441 100.271229,347.252363 100.271229,347.252363 C100.271229,347.252363 108.378598,243.339131 103.362076,206.21945 C98.3441969,169.09977 98.2849662,137 98.2849662,137 L70.1015592,137 Z" id="Fill-29" fill="#233862"></path>
                            <path d="M114.545642,135 C114.545642,135 130.373146,156.325287 131.848206,170.741 C133.323716,185.156713 134.163262,235.793753 137.306603,249.847637 C140.450394,263.900617 152,290.94506 152,334.778814 C152,334.778814 150.799234,337.291263 147.092893,338.629577 C145.90744,339.05744 144.318879,339.472639 142.777161,339.827683 C139.720296,340.53144 136.583711,339.031207 135.188822,336.210299 C127.379788,320.422803 102.506902,269.503536 101.23137,258.934064 C100.329218,251.453705 92.4751444,201.947832 75.3441828,172.898856 C71.231581,165.925058 77.8682241,138.190878 77.8682241,138.190878 L114.545642,135 Z" id="Fill-31" fill="#2B478B"></path>
                            <path d="M84,41.851785 C84,41.851785 83.6527384,43.1836638 79.9861522,42.9785212 C79.9861522,42.9785212 76.9083266,42.8062788 77.0021001,41.342412 C77.0021001,41.342412 79.9865804,40.3004424 84,41.851785" id="Fill-33" fill="#FFFFFF"></path>
                            <path d="M68.5952052,131 C68.5952052,131 72.8081462,134.325491 81.1766349,134.494153 C91.1726335,134.694637 115.942394,131.950595 115.942394,131.950595 C115.942394,131.950595 117.042888,135.01923 116.998704,138.259709 C116.998704,138.259709 86.7465174,145.875834 69.2183324,139.372146 C69.2183324,139.372146 66.9576743,135.126519 68.5952052,131" id="Fill-35" fill="#233862"></path>
                            <path d="M79.5,134.464243 C77.8413721,134.464243 76.491462,136.050249 76.491462,137.999779 C76.491462,139.949751 77.8413721,141.535757 79.5,141.535757 C81.1581786,141.535757 82.508538,139.949751 82.508538,137.999779 C82.508538,136.050249 81.1581786,134.464243 79.5,134.464243 M79.5,143 C77.0190234,143 75,140.757092 75,137.999779 C75,135.242908 77.0190234,133 79.5,133 C81.9809766,133 84,135.242908 84,137.999779 C84,140.757092 81.9809766,143 79.5,143" id="Fill-37" fill="#FFFFFF"></path>
                            <polygon id="Fill-39" fill="#B5453C" points="148 137.172452 117.433229 164 81 121.826642 111.566321 95"></polygon>
                            <path d="M108.921753,138 C108.921753,138 97.9653643,139.273776 98,141.859782 C98.0343609,144.445787 100.729621,149.758504 102.083184,149.994469 C103.436747,150.230872 111,142.810198 111,142.810198 L108.921753,138 Z" id="Fill-41" fill="#FFB27D"></path>
                            <path d="M112.773357,64 C112.773357,64 127.6998,65.0574624 133.42194,79.1167719 C139.143631,93.1747215 150,116.779295 150,120.750331 C150,124.720915 143.93525,136.962187 111.367487,144 C111.367487,144 107.999227,140.41877 108.203718,137.58633 C108.203718,137.58633 128.533457,119.936724 128.478298,117.873925 C128.375156,113.971784 125.145914,108.820904 107.296965,90.7742411 C102.443909,85.8681232 112.773357,64 112.773357,64" id="Fill-43" fill="#F99746"></path>
                        </g>
                    </g>
                </g>
                <g id="Group" mask="url(#mask-2)" fill="#009CC5" fill-rule="nonzero">
                    <g transform="translate(279.000000, 37.000000)" id="Path">
                        <path d="M179.375213,171.261987 C191.103739,142.994441 198.077457,113.484364 199.662393,84.5955525 C200.40203,70.0993746 199.97938,55.7067408 197.866132,41.9353718 C197.33782,38.1042391 196.598183,34.3766505 195.858547,30.6490618 C166.484401,16.3599722 149.895406,0 149.895406,0 C149.895406,0 133.517735,16.2564281 104.460577,30.5455177 C106.573825,35.61918 108.475748,40.7963864 110.166346,45.8700486 C114.604167,59.0201529 117.879701,72.1702571 120.309936,85.4239055 C122.740171,98.6775539 124.325107,111.827658 125.064743,124.977762 C125.80438,138.127867 125.80438,151.174427 125.064743,164.117443 C124.430769,177.060459 122.845833,189.796386 120.94391,202.42877 C118.830662,215.061154 116.400427,227.486449 113.124893,239.601112 C108.053098,259.37804 101.607692,278.740792 94,297.378735 C94.3169872,297.585823 94.6339744,297.792912 94.9509615,298 C108.58141,283.400278 121.36656,268.179291 132.989423,252.33704 C151.797329,226.658096 167.963675,199.633079 179.375213,171.261987 Z"></path>
                        <path d="M298.892892,50.1410448 C283.858942,51.3858209 269.758135,50.8671642 256.694152,49 C255.553645,63.6261194 253.272632,77.8373134 249.954795,91.7373134 C241.763885,126.072388 227.76676,157.91791 209.726021,186.44403 C205.37136,193.705224 200.498287,200.551493 195.728896,207.397761 C193.344201,210.820896 190.648458,214.036567 188.16008,217.35597 L184.323831,222.335075 C183.079643,223.994776 181.628089,225.550746 180.3839,227.106716 L172.400355,236.546269 C169.704612,239.658209 166.801505,242.666418 164.00208,245.674627 C158.506912,251.794776 152.597015,257.5 146.7908,263.205224 C132.58631,277.001493 117.552361,289.760448 102,301.689552 C116.100807,311.440299 132.067898,320.05 150.212319,327 C322.636163,261.130597 298.892892,50.1410448 298.892892,50.1410448 Z"></path>
                        <path d="M95.7345124,200.35319 C94.6909656,188.352767 93.3343547,176.456696 91.1429063,164.87368 C88.951458,153.186312 86.3425909,141.811998 83.003241,130.646388 C79.6638912,119.480777 75.6984132,108.628221 71.1068072,98.2974229 C66.5152011,87.8622729 61.4018216,77.8445289 55.6623141,68.5572455 C52.8447376,63.861428 49.8184518,59.3743135 46.6878113,55.2002535 C45.1224911,53.1132235 43.5571708,51.130545 41.9918506,49.252218 C41.6787865,48.834812 41.2613678,48.417406 40.9483037,48 C28.5300964,49.5652725 15.2770517,49.878327 1.18916946,48.7304605 C1.18916946,48.7304605 -17.3859641,209.536122 92.2908078,295 C95.1083843,275.590621 96.6737045,256.076891 96.9867686,236.667512 C97.0911233,224.562738 96.5693499,212.353612 95.7345124,200.35319 Z"></path>
                    </g>
                </g>
                <g id="Group-232" mask="url(#mask-2)">
                    <g transform="translate(608.000000, 1.000000)">
                        <path d="M58.640372,399.821456 C58.640372,399.821456 -22.7816244,314.752189 44.8705873,222.652758 C104.89596,140.935937 174.879598,146.522081 226.226079,179.683517 C248.094927,193.806764 329.78724,182.232516 401.225555,112.890067 C477.280164,39.0666895 680.712349,75.3300883 645.417195,228.113066 C625.765756,313.180671 713.539017,315.60787 667.423339,400 L58.640372,399.821456 Z" id="Fill-1" fill-opacity="0.2" fill="#009CC5"></path>
                        <polygon id="Fill-6" fill="#1CC7F4" points="716 35 603.535937 72.2270132 626.113746 91.0598577 626.113746 91.0600956 528.799086 193.021042 443.498511 119.715803 103 398.953611 105.998173 399 190.820761 399 442.662093 192.471032 532.590656 269.752423 668.994232 126.831438 668.995658 126.830011 693.365146 147.15754"></polygon>
                        <path d="M317.50405,331 L291.706658,328.780368 C291.706658,328.780368 293.198114,312.872611 288.659901,291.654592 C285.311246,275.980668 278.672558,257.411963 265.717731,240.212784 C243.624532,210.883969 178,194.476498 178,194.476498 L178,190.680097 L180.359177,190.423949 C180.359177,190.423949 179.342405,189.714616 178,189.303688 L178,180.328303 C179.939082,180.300766 182.71527,180.416614 185.457517,181.058764 C183.920491,180.675373 180.642089,179.92331 178,179.719388 L178,175 C273.06251,177.542487 304.065283,234.975877 313.781107,279.424064 C320.003259,307.873098 317.50405,331 317.50405,331" id="Fill-8" fill="#66ACC1"></path>
                        <path d="M430,322.644013 L316.831866,331 C316.246159,313.589912 311.696814,295.585548 307.297108,281.935963 C302.897402,268.286378 298.641148,258.988483 298.641148,258.988483 C264.786439,184.895929 177,174.854298 177,174.854298 L274.433962,135 C321.503253,138.537857 354.525078,161.116558 377.621752,189.466701 C422.857555,244.991504 430,322.644013 430,322.644013" id="Fill-10" fill="#A7DAE9"></path>
                        <path d="M430,322.675499 L316.895787,331 L291.052186,328.786666 C291.052186,328.786666 292.546537,312.924048 288,291.766236 C293.388225,288.535479 299.795033,285.30851 307.366414,282.120836 C309.35484,281.283084 311.287868,280.433022 313.166209,279.570413 C385.180157,246.478591 378.471863,194.930644 377.651336,190 C422.861589,245.315585 430,322.675499 430,322.675499" id="Fill-12" fill="#82B378"></path>
                        <path d="M324.334056,325.763555 L417.710864,327.57857 L418.620883,311.869948 C419.020439,301.543982 415.940354,286.322571 409.712879,267.850706 C404.982435,253.816128 400.072356,242.783635 400.023537,242.67362 C389.993649,219.595635 377.224696,200.026474 362.064096,184.494068 C349.95159,172.084478 336.289442,162.205241 321.457303,155.131634 C305.363697,147.456277 291.330906,144.781856 283.20732,143.853155 C278.942313,143.365468 274.625406,143.942453 270.636959,145.5372 L216.292184,167.26952 C213.457378,168.403011 213.601227,172.475008 216.50547,173.414902 C242.93349,181.964905 264.935353,194.198994 282.051547,209.879755 C298.091358,224.57514 309.88915,242.302139 317.116224,262.568064 C323.540396,280.583199 325.084112,297.307677 325.247394,308.165383 C325.374655,316.590369 324.732427,322.794569 324.334056,325.763555 L324.334056,325.763555 Z M420.861333,331 L320.396088,329.047346 L320.750379,327.103504 C320.803938,326.8087 325.963324,297.210996 313.917884,263.557726 C306.860964,243.842116 295.356559,226.594708 279.724361,212.29414 C260.139975,194.378543 233.968135,181.043586 201.934962,172.659796 L197,171.368664 L275.414564,140.010952 L275.715771,140.003808 C276.563938,139.984758 296.75998,139.678524 322.720667,152.015485 C337.937195,159.247209 351.946998,169.351239 364.359764,182.04825 C379.84669,197.888795 392.873957,217.828722 403.080398,241.313906 C403.886382,243.117967 422.969783,286.168026 421.961415,312.016635 L421.959993,312.048306 L420.861333,331 Z" id="Fill-14" fill="#66ACC1"></path>
                        <path d="M367,215.449049 C367,231.999374 357.293308,242 340.724912,242 C324.156278,242 307,231.999374 307,215.449049 C307,198.898487 316.176222,189 332.744856,189 C349.313489,189 367,198.898487 367,215.449049" id="Fill-16" fill="#66ACC1"></path>
                        <path d="M518,385.699583 L518,395.299957 C518,396.065134 517.760384,396.775097 517.347685,397.365889 C516.913913,397.987509 516.290958,398.476385 515.56027,398.750616 C515.337228,398.836428 515.103768,398.899694 514.863441,398.940645 C514.644898,398.979755 514.421619,399 514.192184,399 L356.807816,399 C354.778654,399 353.107259,397.437437 353.004025,395.490216 C353.001894,395.426719 353,395.363683 353,395.299957 L353,385.699583 C353,385.636547 353.001894,385.573051 353.004025,385.509324 C353.107259,383.562333 354.778654,382 356.807816,382 L514.192184,382 C514.421619,382 514.644898,382.020245 514.863441,382.059125 C515.103768,382.100076 515.337228,382.163572 515.56027,382.249384 C516.290958,382.523385 516.913913,383.012261 517.347685,383.633881 C517.760384,384.225133 518,384.934636 518,385.699583" id="Fill-18" fill="#FFB93E"></path>
                        <path d="M441,399 L356.410379,399 C354.594139,399 353.097154,397.437459 353.004276,395.490033 C353.0019,395.426768 353,395.363502 353,395.300007 L353,385.699763 C353,385.636498 353.0019,385.573232 353.004276,385.509277 C353.097154,383.562311 354.594139,382 356.410379,382 L430.612084,382 C431.796702,387.004642 434.559069,393.925651 441,399" id="Fill-20" fill="#FFA412"></path>
                        <polygon id="Fill-22" fill="#FFA412" points="497 399 499 399 499 382 497 382"></polygon>
                        <polygon id="Fill-24" fill="#FFA412" points="491 399 493 399 493 382 491 382"></polygon>
                        <polygon id="Fill-25" fill="#FFA412" points="484 399 486 399 486 382 484 382"></polygon>
                        <polygon id="Fill-26" fill="#FFA412" points="472 399 474 399 474 382 472 382"></polygon>
                        <polygon id="Fill-27" fill="#FFA412" points="460 399 462 399 462 382 460 382"></polygon>
                        <polygon id="Fill-28" fill="#FFA412" points="442 399 444 399 444 382 442 382"></polygon>
                        <polygon id="Fill-29" fill="#FFA412" points="426 399 428 399 428 382 426 382"></polygon>
                        <polygon id="Fill-30" fill="#FFA412" points="410 399 412 399 412 382 410 382"></polygon>
                        <polygon id="Fill-31" fill="#FFA412" points="503 399 505 399 505 382 503 382"></polygon>
                        <polygon id="Fill-32" fill="#FFA412" points="506 399 508 399 508 382 506 382"></polygon>
                        <polygon id="Fill-33" fill="#FFA412" points="510 399 512 399 512 382 510 382"></polygon>
                        <path d="M515,382.059124 L515,398.940415 C514.755691,398.979525 514.506088,399 514.249603,399 L513,399 L513,382 L514.249603,382 C514.506088,382 514.755691,382.020245 515,382.059124" id="Fill-34" fill="#FFA412"></path>
                        <path d="M517,383.426582 L517,397.573418 C516.514638,398.214065 515.817592,398.717717 515,399 L515,382 C515.817592,382.28252 516.514638,382.786172 517,383.426582" id="Fill-35" fill="#FFA412"></path>
                        <path d="M501,367.699533 L501,377.300007 C501,378.065174 500.760384,378.774667 500.34745,379.365681 C499.914153,379.987523 499.290963,380.476392 498.560514,380.750389 C498.337472,380.83643 498.103776,380.899696 497.863687,380.940646 C497.644907,380.979525 497.421629,381 497.192432,381 L339.808516,381 C337.778886,381 336.107732,379.437459 336.004499,377.490263 C336.002605,377.426768 336,377.363502 336,377.300007 L336,367.699533 C336,367.636728 336.002605,367.572772 336.004499,367.509507 C336.107732,365.562541 337.778886,364 339.808516,364 L497.192432,364 C497.293534,364 497.3944,364.004141 497.493135,364.011963 C497.535281,364.014033 497.579794,364.018404 497.621703,364.024616 C497.668111,364.028527 497.716413,364.034508 497.762584,364.04256 C497.796206,364.047162 497.830065,364.053143 497.863687,364.059124 C498.103776,364.100074 498.337472,364.16334 498.560514,364.249611 C498.594136,364.261804 498.625627,364.273997 498.659485,364.28849 C498.690976,364.300683 498.725072,364.314947 498.756089,364.32921 C498.819545,364.357967 498.884658,364.388335 498.948113,364.419162 C498.983393,364.437337 499.02175,364.458042 499.057503,364.478287 C499.090888,364.496921 499.122379,364.513485 499.154107,364.5335 C499.215195,364.568469 499.274388,364.605508 499.333109,364.644387 C499.400352,364.689248 499.465939,364.73618 499.528921,364.785412 C499.579354,364.821761 499.627893,364.86064 499.675958,364.90205 C499.678326,364.903891 499.682824,364.905731 499.684482,364.909872 C499.716209,364.936789 499.749831,364.965316 499.781559,364.993843 C499.8784,365.079654 499.970979,365.173747 500.057165,365.26991 C500.084867,365.298437 500.109728,365.326964 500.133406,365.355951 C500.15803,365.384478 500.181234,365.415075 500.206569,365.445673 C500.255108,365.507328 500.303647,365.570823 500.34745,365.634089 C500.760384,366.225103 501,366.934826 501,367.699533" id="Fill-36" fill="#FFB93E"></path>
                        <path d="M424,381 L339.411064,381 C337.592464,381 336.097629,379.43748 336.004751,377.490081 C336.002613,377.426816 336,377.363321 336,377.300057 L336,367.699713 C336,367.636679 336.002613,367.572954 336.004751,367.509459 C336.097629,365.56252 337.592464,364 339.411064,364 L413.610031,364 C413.643524,364.139182 413.677729,364.278134 413.713123,364.419387 C414.953315,369.385082 417.734188,376.066742 424,381" id="Fill-37" fill="#FFA412"></path>
                        <polygon id="Fill-38" fill="#FFA412" points="480 381 482 381 482 364 480 364"></polygon>
                        <polygon id="Fill-39" fill="#FFA412" points="474 381 476 381 476 364 474 364"></polygon>
                        <polygon id="Fill-40" fill="#FFA412" points="466 381 468 381 468 364 466 364"></polygon>
                        <polygon id="Fill-41" fill="#FFA412" points="456 381 458 381 458 364 456 364"></polygon>
                        <polygon id="Fill-42" fill="#FFA412" points="444 381 446 381 446 364 444 364"></polygon>
                        <polygon id="Fill-43" fill="#FFA412" points="426 381 428 381 428 364 426 364"></polygon>
                        <polygon id="Fill-44" fill="#FFA412" points="409 381 411 381 411 364 409 364"></polygon>
                        <polygon id="Fill-45" fill="#FFA412" points="393 381 395 381 395 364 393 364"></polygon>
                        <polygon id="Fill-46" fill="#FFA412" points="486 381 488 381 488 364 486 364"></polygon>
                        <polygon id="Fill-47" fill="#FFA412" points="490 381 492 381 492 364 490 364"></polygon>
                        <polygon id="Fill-48" fill="#FFA412" points="493 381 495 381 495 364 493 364"></polygon>
                        <path d="M498,364.058894 L498,380.940646 C497.755426,380.979295 497.506088,381 497.249603,381 L496,381 L496,364 L497.249603,364 C497.506088,364 497.755426,364.020015 498,364.058894" id="Fill-49" fill="#FFA412"></path>
                        <path d="M501,365.426365 L501,379.573635 C500.514838,380.214291 499.817435,380.717951 499,381 L499,364 C499.817435,364.282287 500.514838,364.785946 501,365.426365" id="Fill-50" fill="#FFA412"></path>
                        <path d="M509,350.699943 L509,360.300057 C509,361.065213 508.759911,361.774927 508.34745,362.365703 C507.913679,362.987767 507.290726,363.476629 506.560514,363.750392 C506.337236,363.836662 506.103776,363.899927 505.86345,363.940876 C505.644434,363.979525 505.421629,364 505.191958,364 L347.807805,364 C347.176565,364 346.578946,363.848855 346.052597,363.580843 C344.939047,363.014223 344.143012,361.926072 344.016811,360.655949 C344.010418,360.600966 344.006393,360.545984 344.004262,360.490541 C344.002368,360.427046 344,360.363782 344,360.300057 L344,350.699943 C344,350.636679 344.002368,350.572954 344.004262,350.509919 C344.107496,348.56275 345.778886,347 347.807805,347 L505.191958,347 C505.421629,347 505.644434,347.020705 505.86345,347.059584 C506.103776,347.100533 506.337236,347.164028 506.560514,347.249608 C507.290726,347.524061 507.913679,348.012463 508.34745,348.634527 C508.759911,349.225533 509,349.935247 509,350.699943" id="Fill-51" fill="#FFB93E"></path>
                        <path d="M432,364 L347.410608,364 C346.844786,364 346.310557,363.848855 345.839277,363.580843 C344.840419,363.014223 344.128985,361.925842 344.016865,360.655949 C344.010452,360.600966 344.006414,360.545753 344.004513,360.490311 C344.002375,360.427046 344,360.363551 344,360.300057 L344,350.699943 C344,350.636449 344.002375,350.572954 344.004513,350.509689 C344.097154,348.56252 345.59461,347 347.410608,347 L421.61235,347 C422.765134,351.867692 425.409199,358.549583 431.480736,363.580843 C431.651528,363.721636 431.824933,363.860818 432,364" id="Fill-52" fill="#FFA412"></path>
                        <polygon id="Fill-53" fill="#FFA412" points="488 364 490 364 490 347 488 347"></polygon>
                        <polygon id="Fill-54" fill="#FFA412" points="482 364 484 364 484 347 482 347"></polygon>
                        <polygon id="Fill-55" fill="#FFA412" points="475 364 477 364 477 347 475 347"></polygon>
                        <polygon id="Fill-56" fill="#FFA412" points="464 364 466 364 466 347 464 347"></polygon>
                        <polygon id="Fill-57" fill="#FFA412" points="452 364 454 364 454 347 452 347"></polygon>
                        <polygon id="Fill-58" fill="#FFA412" points="434 364 436 364 436 347 434 347"></polygon>
                        <polygon id="Fill-59" fill="#FFA412" points="417 364 419 364 419 347 417 347"></polygon>
                        <polygon id="Fill-60" fill="#FFA412" points="402 364 404 364 404 347 402 347"></polygon>
                        <polygon id="Fill-61" fill="#FFA412" points="494 364 496 364 496 347 494 347"></polygon>
                        <polygon id="Fill-62" fill="#FFA412" points="498 364 500 364 500 347 498 347"></polygon>
                        <polygon id="Fill-63" fill="#FFA412" points="502 364 504 364 504 347 502 347"></polygon>
                        <path d="M506,347.059124 L506,363.940876 C505.755459,363.979525 505.505889,364 505.249438,364 L504,364 L504,347 L505.249438,347 C505.505889,347 505.755459,347.020475 506,347.059124" id="Fill-64" fill="#FFA412"></path>
                        <path d="M509,348.426562 L509,362.573438 C508.515039,363.213839 507.817543,363.717484 507,364 L507,347 C507.817543,347.282516 508.515039,347.786161 509,348.426562" id="Fill-65" fill="#FFA412"></path>
                        <path d="M513,333.699993 L513,343.300007 C513,344.065404 512.759911,344.775127 512.34745,345.365911 C511.913916,345.987523 511.290726,346.476392 510.560514,346.750619 C510.337472,346.83643 510.103776,346.900156 509.863687,346.941106 C509.644671,346.979755 509.421629,347 509.192195,347 L351.808042,347 C349.779359,347 348.107496,345.437459 348.004262,343.490723 C348.002368,343.426998 348,343.363732 348,343.300007 L348,333.699993 C348,333.636498 348.002368,333.573002 348.004262,333.509737 C348.099208,331.707707 349.536902,330.237188 351.357697,330.026917 C351.504971,330.008282 351.654375,330 351.808042,330 L509.192195,330 C509.421629,330 509.644671,330.020705 509.863687,330.059585 C510.103776,330.100535 510.337472,330.1638 510.560514,330.249381 C511.290726,330.523608 511.913916,331.012477 512.34745,331.634319 C512.759911,332.225103 513,332.935287 513,333.699993" id="Fill-66" fill="#FFB93E"></path>
                        <path d="M435,347 L350.411074,347 C348.594606,347 347.097154,345.437689 347.004513,343.490723 C347.002375,343.427228 347,343.363732 347,343.300237 L347,333.699993 C347,333.636498 347.002375,333.573232 347.004513,333.509737 C347.089077,331.710007 348.377019,330.237418 350.007493,330.027147 C350.138378,330.008512 350.273301,330 350.411074,330 L424.61214,330 C424.614041,330.008512 424.616416,330.018635 424.618554,330.027147 C425.807204,335.027417 428.569556,341.933933 435,347" id="Fill-67" fill="#FFA412"></path>
                        <polygon id="Fill-68" fill="#FFA412" points="492 347 494 347 494 330 492 330"></polygon>
                        <polygon id="Fill-69" fill="#FFA412" points="486 347 488 347 488 330 486 330"></polygon>
                        <polygon id="Fill-70" fill="#FFA412" points="479 347 481 347 481 330 479 330"></polygon>
                        <polygon id="Fill-71" fill="#FFA412" points="468 347 470 347 470 330 468 330"></polygon>
                        <polygon id="Fill-72" fill="#FFA412" points="456 347 458 347 458 330 456 330"></polygon>
                        <polygon id="Fill-73" fill="#FFA412" points="438 347 440 347 440 330 438 330"></polygon>
                        <polygon id="Fill-74" fill="#FFA412" points="420 347 422 347 422 330 420 330"></polygon>
                        <polygon id="Fill-75" fill="#FFA412" points="406 347 408 347 408 330 406 330"></polygon>
                        <polygon id="Fill-76" fill="#FFA412" points="498 347 500 347 500 330 498 330"></polygon>
                        <polygon id="Fill-77" fill="#FFA412" points="502 347 504 347 504 330 502 330"></polygon>
                        <polygon id="Fill-78" fill="#FFA412" points="505 347 507 347 507 330 505 330"></polygon>
                        <path d="M510,330.058894 L510,346.940646 C509.755194,346.979295 509.505889,347 509.249438,347 L508,347 L508,330 L509.249438,330 C509.505889,330 509.755194,330.020245 510,330.058894" id="Fill-79" fill="#FFA412"></path>
                        <path d="M513,331.426562 L513,345.573201 C512.514774,346.213839 511.817278,346.717484 511,347 L511,330 C511.817278,330.282279 512.514774,330.786161 513,331.426562" id="Fill-80" fill="#FFA412"></path>
                        <path d="M502,315.699893 L502,325.300107 C502,326.065023 501.760147,326.774727 501.347686,327.365495 C500.913914,327.98755 500.291197,328.476406 499.56051,328.750166 C499.337469,328.836434 499.103772,328.899698 498.863919,328.940647 C498.790282,328.95261 498.716408,328.965262 498.642772,328.973084 C498.602757,328.977225 498.561084,328.981366 498.518702,328.985507 C498.478687,328.989648 498.436541,328.991488 498.394395,328.993789 C498.326914,328.9977 498.259433,329 498.192426,329 L340.808047,329 C338.778888,329 337.107732,327.437271 337.004262,325.490358 C337.002368,325.426864 337,325.363371 337,325.300107 L337,315.699893 C337,315.636629 337.002368,315.573136 337.004262,315.509872 C337.00663,315.4565 337.010892,315.405659 337.014917,315.354588 C337.166453,313.787718 338.336593,312.495067 339.869236,312.115025 C339.90712,312.104673 339.946898,312.096391 339.985019,312.088109 C340.250206,312.031057 340.525812,312 340.808047,312 L498.192426,312 C498.308209,312 498.421624,312.006211 498.533145,312.014493 C498.583578,312.020704 498.634484,312.024615 498.684917,312.031057 L498.687048,312.031057 C498.746242,312.039108 498.804962,312.049461 498.863919,312.059583 C499.103772,312.100532 499.337469,312.163796 499.56051,312.250064 C500.291197,312.523594 500.913914,313.01245 501.347686,313.634505 C501.760147,314.225503 502,314.935207 502,315.699893" id="Fill-81" fill="#FFB93E"></path>
                        <path d="M424,329 L339.411074,329 C337.594606,329 336.097154,327.437271 336.004513,325.490128 C336.002375,325.426864 336,325.363141 336,325.300107 L336,315.699893 C336,315.636399 336.002375,315.573136 336.004513,315.509642 C336.006651,315.4565 336.010927,315.405429 336.015203,315.354588 C336.152263,313.75298 337.243759,312.440086 338.660923,312.09248 C338.709381,312.077757 338.758076,312.067405 338.807247,312.059353 C339.00298,312.020474 339.203701,312 339.411074,312 L413.61214,312 C413.620692,312.040949 413.631144,312.080057 413.641833,312.121006 C414.839272,317.107339 417.601386,323.942122 423.966032,328.973084 C423.976721,328.981366 423.989311,328.991488 424,329" id="Fill-82" fill="#FFA412"></path>
                        <polygon id="Fill-83" fill="#FFA412" points="480 329 482 329 482 312 480 312"></polygon>
                        <polygon id="Fill-84" fill="#FFA412" points="474 329 476 329 476 312 474 312"></polygon>
                        <polygon id="Fill-85" fill="#FFA412" points="467 329 469 329 469 312 467 312"></polygon>
                        <polygon id="Fill-86" fill="#FFA412" points="456 329 458 329 458 312 456 312"></polygon>
                        <polygon id="Fill-87" fill="#FFA412" points="444 329 446 329 446 312 444 312"></polygon>
                        <polygon id="Fill-88" fill="#FFA412" points="426 329 428 329 428 312 426 312"></polygon>
                        <polygon id="Fill-89" fill="#FFA412" points="409 329 411 329 411 312 409 312"></polygon>
                        <polygon id="Fill-90" fill="#FFA412" points="394 329 396 329 396 312 394 312"></polygon>
                        <polygon id="Fill-91" fill="#FFA412" points="486 329 488 329 488 312 486 312"></polygon>
                        <polygon id="Fill-92" fill="#FFA412" points="490 329 492 329 492 312 490 312"></polygon>
                        <polygon id="Fill-93" fill="#FFA412" points="493 329 495 329 495 312 493 312"></polygon>
                        <path d="M499,312.059354 L499,328.940646 C498.755459,328.979755 498.506153,329 498.249438,329 L497,329 L497,312 L498.249438,312 C498.506153,312 498.755459,312.020475 499,312.059354" id="Fill-94" fill="#FFA412"></path>
                        <path d="M501,313.426562 L501,327.573201 C500.515039,328.213839 499.817543,328.717484 499,329 L499,312 C499.817543,312.282516 500.515039,312.786161 501,313.426562" id="Fill-95" fill="#FFA412"></path>
                        <path d="M501,298.699943 L501,308.300057 C501,309.064983 500.760384,309.774697 500.34745,310.365933 C499.914153,310.987767 499.290963,311.476399 498.560514,311.750622 C498.385774,311.817798 498.202748,311.87117 498.017353,311.910049 L498.013565,311.910049 C497.962895,311.922242 497.91412,311.932594 497.863687,311.940646 C497.644907,311.979525 497.421629,312 497.192432,312 L339.808516,312 C339.641826,312 339.475848,311.989648 339.315788,311.967102 C339.252333,311.961121 339.189351,311.950999 339.128736,311.938576 C337.416858,311.637897 336.095183,310.214328 336.004499,308.490311 C336.002605,308.427046 336,308.363782 336,308.300057 L336,298.699943 C336,298.636679 336.002605,298.573184 336.004499,298.509689 C336.107732,296.56275 337.778886,295 339.808516,295 L497.192432,295 C497.293534,295 497.3944,295.004371 497.493135,295.012423 C497.535281,295.016334 497.579794,295.020705 497.621703,295.024616 C497.668111,295.028987 497.716413,295.034738 497.762584,295.04302 C497.796206,295.047161 497.830065,295.053142 497.863687,295.059584 C498.103776,295.100303 498.337472,295.163798 498.560514,295.249838 C498.594136,295.26226 498.625627,295.273993 498.659485,295.288717 C498.690976,295.300909 498.725072,295.314943 498.756089,295.329666 C498.821439,295.358193 498.884658,295.38879 498.948113,295.419387 C499.017488,295.456195 499.086863,295.493234 499.154107,295.533953 C499.215195,295.568921 499.274388,295.6055 499.333109,295.644609 C499.400352,295.689469 499.465939,295.7364 499.528921,295.785401 C499.579354,295.82221 499.627893,295.861089 499.675958,295.902038 C499.678326,295.904108 499.682824,295.906179 499.684482,295.91032 C499.716209,295.936776 499.749831,295.965303 499.781559,295.993829 C499.8784,296.079869 499.970979,296.173961 500.057165,296.270123 C500.084867,296.298649 500.109728,296.327406 500.133406,296.356163 C500.15803,296.38676 500.181234,296.415286 500.206569,296.446113 C500.255108,296.507308 500.303647,296.570802 500.34745,296.634297 C500.760384,297.225533 501,297.935017 501,298.699943" id="Fill-96" fill="#FFB93E"></path>
                        <path d="M424,312 L339.411064,312 C339.343128,312 339.275667,311.997699 339.210344,311.994019 C339.136469,311.989418 339.064495,311.981596 338.992758,311.971473 C337.366564,311.754533 336.089077,310.285875 336.004751,308.490081 C336.002613,308.427046 336,308.363551 336,308.300057 L336,298.699943 C336,298.636449 336.002613,298.573184 336.004751,298.509459 C336.097629,296.56252 337.592464,295 339.411064,295 L413.610031,295 C413.643524,295.138952 413.677729,295.278134 413.713123,295.419387 C414.942389,300.343902 417.690243,306.956317 423.847737,311.878992 C423.898571,311.919942 423.949167,311.959051 424,312" id="Fill-97" fill="#FFA412"></path>
                        <polygon id="Fill-98" fill="#FFA412" points="480 312 482 312 482 295 480 295"></polygon>
                        <polygon id="Fill-99" fill="#FFA412" points="474 312 476 312 476 295 474 295"></polygon>
                        <polygon id="Fill-100" fill="#FFA412" points="466 312 468 312 468 295 466 295"></polygon>
                        <polygon id="Fill-101" fill="#FFA412" points="456 312 458 312 458 295 456 295"></polygon>
                        <polygon id="Fill-102" fill="#FFA412" points="444 312 446 312 446 295 444 295"></polygon>
                        <polygon id="Fill-103" fill="#FFA412" points="426 312 428 312 428 295 426 295"></polygon>
                        <polygon id="Fill-104" fill="#FFA412" points="409 312 411 312 411 295 409 295"></polygon>
                        <polygon id="Fill-105" fill="#FFA412" points="393 312 395 312 395 295 393 295"></polygon>
                        <polygon id="Fill-106" fill="#FFA412" points="486 312 488 312 488 295 486 295"></polygon>
                        <polygon id="Fill-107" fill="#FFA412" points="490 312 492 312 492 295 490 295"></polygon>
                        <polygon id="Fill-108" fill="#FFA412" points="493 312 495 312 495 295 493 295"></polygon>
                        <path d="M498,295.059353 L498,311.940417 C497.755426,311.979296 497.506088,312 497.249603,312 L496,312 L496,295 L497.249603,295 C497.506088,295 497.755426,295.020704 498,295.059353" id="Fill-109" fill="#FFA412"></path>
                        <path d="M501,295.426582 L501,309.573418 C500.514838,310.214065 499.817435,310.717717 499,311 L499,294 C499.817435,294.282046 500.514838,294.785698 501,295.426582" id="Fill-110" fill="#FFA412"></path>
                        <path d="M509,281.699763 L509,291.300007 C509,292.065174 508.759911,292.774897 508.34745,293.365911 C507.913679,293.987523 507.290726,294.476392 506.560514,294.750619 C506.337236,294.83643 506.103776,294.899926 505.86345,294.940646 C505.644434,294.979755 505.421629,295 505.191958,295 L347.807805,295 C347.176565,295 346.578946,294.848623 346.052597,294.580608 C344.939047,294.014209 344.143012,292.926274 344.016811,291.656134 C344.010418,291.60092 344.006393,291.545707 344.004262,291.490493 C344.002368,291.426998 344,291.363962 344,291.300007 L344,281.699763 C344,281.636728 344.002368,281.573002 344.004262,281.509737 C344.107496,279.562541 345.778886,278 347.807805,278 L505.191958,278 C505.421629,278 505.644434,278.020245 505.86345,278.059354 C506.103776,278.100074 506.337236,278.1638 506.560514,278.249611 C507.290726,278.523608 507.913679,279.012247 508.34745,279.634089 C508.759911,280.225333 509,280.934826 509,281.699763" id="Fill-111" fill="#FFB93E"></path>
                        <path d="M432,295 L347.410608,295 C346.844786,295 346.310557,294.848625 345.839277,294.580613 C344.840419,294.014223 344.128985,292.926072 344.016865,291.656179 C344.010452,291.600966 344.006414,291.545523 344.004513,291.490311 C344.002375,291.427046 344,291.363782 344,291.300057 L344,281.699943 C344,281.636679 344.002375,281.573184 344.004513,281.509689 C344.097154,279.56252 345.59461,278 347.410608,278 L421.61235,278 C422.765134,282.867922 425.409199,289.549353 431.480736,294.580613 C431.651528,294.721866 431.824933,294.860818 432,295" id="Fill-112" fill="#FFA412"></path>
                        <polygon id="Fill-113" fill="#FFA412" points="488 295 490 295 490 278 488 278"></polygon>
                        <polygon id="Fill-114" fill="#FFA412" points="482 295 484 295 484 278 482 278"></polygon>
                        <polygon id="Fill-115" fill="#FFA412" points="475 295 477 295 477 278 475 278"></polygon>
                        <polygon id="Fill-116" fill="#FFA412" points="464 295 466 295 466 278 464 278"></polygon>
                        <polygon id="Fill-117" fill="#FFA412" points="452 295 454 295 454 278 452 278"></polygon>
                        <polygon id="Fill-118" fill="#FFA412" points="434 295 436 295 436 278 434 278"></polygon>
                        <polygon id="Fill-119" fill="#FFA412" points="417 295 419 295 419 278 417 278"></polygon>
                        <polygon id="Fill-120" fill="#FFA412" points="402 295 404 295 404 278 402 278"></polygon>
                        <polygon id="Fill-121" fill="#FFA412" points="494 295 496 295 496 278 494 278"></polygon>
                        <polygon id="Fill-122" fill="#FFA412" points="498 295 500 295 500 278 498 278"></polygon>
                        <polygon id="Fill-123" fill="#FFA412" points="502 295 504 295 504 278 502 278"></polygon>
                        <path d="M506,278.059353 L506,294.940417 C505.755459,294.979296 505.505889,295 505.249438,295 L504,295 L504,278 L505.249438,278 C505.505889,278 505.755459,278.020704 506,278.059353" id="Fill-124" fill="#FFA412"></path>
                        <path d="M509,279.426582 L509,293.573655 C508.515039,294.214302 507.817543,294.717954 507,295 L507,278 C507.817543,278.282283 508.515039,278.785935 509,279.426582" id="Fill-125" fill="#FFA412"></path>
                        <path d="M522,263.699943 L522,273.300057 C522,274.065213 521.760147,274.774927 521.347685,275.365703 C520.913913,275.987537 520.291195,276.476399 519.56027,276.750392 C519.337228,276.836432 519.103768,276.899697 518.863678,276.940646 C518.644661,276.979755 518.421619,277 518.192421,277 L360.807579,277 C358.778654,277 357.107259,275.43748 357.003788,273.490541 C357.002131,273.426816 357,273.363321 357,273.300057 L357,263.699943 C357,263.636679 357.002131,263.573184 357.003788,263.509689 C357.098735,261.709984 358.536433,260.237185 360.357233,260.026686 C360.504744,260.008052 360.656043,260 360.807579,260 L518.192421,260 C518.421619,260 518.644661,260.020475 518.863678,260.059584 C519.103768,260.100533 519.337228,260.163798 519.56027,260.249608 C520.291195,260.523601 520.913913,261.012463 521.347685,261.634297 C521.760147,262.225303 522,262.935017 522,263.699943" id="Fill-126" fill="#FFB93E"></path>
                        <path d="M444,277 L359.410617,277 C357.594139,277 356.096679,275.43771 356.004038,273.490541 C356.002138,273.427046 356,273.363321 356,273.300287 L356,263.699943 C356,263.636679 356.002138,263.573414 356.004038,263.509689 C356.088603,261.709984 357.376789,260.237415 359.006797,260.026916 C359.13792,260.008282 359.273081,260 359.410617,260 L433.612322,260 C433.613985,260.008282 433.616598,260.018864 433.61826,260.026916 C434.807629,265.02942 437.569759,271.934002 444,277" id="Fill-127" fill="#FFA412"></path>
                        <polygon id="Fill-128" fill="#FFA412" points="501 277 503 277 503 260 501 260"></polygon>
                        <polygon id="Fill-129" fill="#FFA412" points="495 277 497 277 497 260 495 260"></polygon>
                        <polygon id="Fill-130" fill="#FFA412" points="488 277 490 277 490 260 488 260"></polygon>
                        <polygon id="Fill-131" fill="#FFA412" points="477 277 479 277 479 260 477 260"></polygon>
                        <polygon id="Fill-132" fill="#FFA412" points="464 277 466 277 466 260 464 260"></polygon>
                        <polygon id="Fill-133" fill="#FFA412" points="447 277 449 277 449 260 447 260"></polygon>
                        <polygon id="Fill-134" fill="#FFA412" points="429 277 431 277 431 260 429 260"></polygon>
                        <polygon id="Fill-135" fill="#FFA412" points="415 277 417 277 417 260 415 260"></polygon>
                        <polygon id="Fill-136" fill="#FFA412" points="507 277 509 277 509 260 507 260"></polygon>
                        <polygon id="Fill-137" fill="#FFA412" points="511 277 513 277 513 260 511 260"></polygon>
                        <polygon id="Fill-138" fill="#FFA412" points="515 277 517 277 517 260 515 260"></polygon>
                        <path d="M519,260.059354 L519,276.940416 C518.755226,276.979295 518.505954,277 518.249537,277 L517,277 L517,260 L518.249537,260 C518.505954,260 518.755226,260.020475 519,260.059354" id="Fill-139" fill="#FFA412"></path>
                        <path d="M522,261.426582 L522,275.573418 C521.514573,276.214065 520.8177,276.717717 520,277 L520,260 C520.8177,260.282283 521.514573,260.785935 522,261.426582" id="Fill-140" fill="#FFA412"></path>
                        <path d="M502,245.699763 L502,255.300007 C502,256.065174 501.760147,256.774897 501.347686,257.365911 C500.913914,257.987523 500.291197,258.476392 499.56051,258.750619 C499.337469,258.83643 499.103772,258.899696 498.863919,258.940646 C498.790282,258.952838 498.716408,258.965262 498.642772,258.973313 C498.583578,258.981365 498.524858,258.985737 498.465664,258.989878 C498.436541,258.991948 498.406944,258.993788 498.377821,258.996089 C498.316259,258.99816 498.255645,259 498.192426,259 L340.808047,259 C338.778888,259 337.107732,257.437459 337.004262,255.490493 C337.002368,255.426768 337,255.363502 337,255.300007 L337,245.699763 C337,245.636728 337.002368,245.573002 337.004262,245.509737 C337.107732,243.562541 338.778888,242 340.808047,242 L498.192426,242 C498.259433,242 498.326914,242.002301 498.394395,242.005981 C498.553981,242.014263 498.710016,242.032668 498.863919,242.059354 C499.103772,242.100304 499.337469,242.16357 499.56051,242.249611 C499.674399,242.292401 499.785683,242.339793 499.890811,242.392706 C499.958529,242.425604 500.023642,242.458042 500.08686,242.494851 C500.093017,242.497151 500.101304,242.501062 500.107933,242.507274 C500.173046,242.543853 500.236265,242.582962 500.299247,242.623912 C500.31227,242.629894 500.322688,242.637946 500.330975,242.644387 C500.389932,242.680966 500.446758,242.722146 500.50169,242.764937 C500.636178,242.863171 500.762379,242.969457 500.880529,243.085865 C500.918413,243.121064 500.954166,243.157643 500.987788,243.194452 C500.993944,243.200663 501.000337,243.206875 501.00673,243.214697 C501.029697,243.237242 501.05077,243.259788 501.07208,243.284404 C501.076342,243.288315 501.080367,243.294986 501.084629,243.298667 C501.122513,243.341688 501.160397,243.386779 501.195913,243.43371 C501.248951,243.499276 501.299147,243.564842 501.347686,243.634089 C501.760147,244.225103 502,244.934826 502,245.699763" id="Fill-141" fill="#FFB93E"></path>
                        <path d="M424,259 L339.411074,259 C337.594606,259 336.097154,257.43748 336.004513,255.490311 C336.002375,255.426816 336,255.363321 336,255.300057 L336,245.699943 C336,245.636679 336.002375,245.573184 336.004513,245.509689 C336.097154,243.56252 337.594606,242 339.411074,242 L413.61214,242 C413.641833,242.12906 413.673188,242.25973 413.709294,242.392931 C414.940226,247.352644 417.715168,254.032004 423.966032,258.973314 C423.976721,258.981366 423.989311,258.991948 424,259" id="Fill-142" fill="#FFA412"></path>
                        <polygon id="Fill-143" fill="#FFA412" points="480 259 482 259 482 242 480 242"></polygon>
                        <polygon id="Fill-144" fill="#FFA412" points="474 259 476 259 476 242 474 242"></polygon>
                        <polygon id="Fill-145" fill="#FFA412" points="467 259 469 259 469 242 467 242"></polygon>
                        <polygon id="Fill-146" fill="#FFA412" points="456 259 458 259 458 242 456 242"></polygon>
                        <polygon id="Fill-147" fill="#FFA412" points="444 259 446 259 446 242 444 242"></polygon>
                        <polygon id="Fill-148" fill="#FFA412" points="426 259 428 259 428 242 426 242"></polygon>
                        <polygon id="Fill-149" fill="#FFA412" points="409 259 411 259 411 242 409 242"></polygon>
                        <polygon id="Fill-150" fill="#FFA412" points="394 259 396 259 396 242 394 242"></polygon>
                        <polygon id="Fill-151" fill="#FFA412" points="486 259 488 259 488 242 486 242"></polygon>
                        <polygon id="Fill-152" fill="#FFA412" points="490 259 492 259 492 242 490 242"></polygon>
                        <polygon id="Fill-153" fill="#FFA412" points="493 259 495 259 495 242 493 242"></polygon>
                        <path d="M499,242.059354 L499,258.940416 C498.755459,258.979525 498.506153,259 498.249438,259 L497,259 L497,242 L498.249438,242 C498.506153,242 498.755459,242.020245 499,242.059354" id="Fill-154" fill="#FFA412"></path>
                        <path d="M501,244.426582 L501,258.573418 C500.515039,259.214065 499.817543,259.717717 499,260 L499,243 C499.817543,243.282283 500.515039,243.785935 501,244.426582" id="Fill-155" fill="#FFA412"></path>
                        <path d="M513,228.699763 L513,238.300237 C513,239.065404 512.759911,239.775127 512.34745,240.366141 C511.913916,240.987753 511.290726,241.476622 510.560514,241.750619 C510.337472,241.83666 510.103776,241.899926 509.863687,241.941106 C509.644671,241.979755 509.421629,242 509.192195,242 L351.808042,242 C351.197638,242 350.618724,241.858976 350.107055,241.607294 C348.959883,241.049178 348.138987,239.938697 348.01468,238.64187 C348.010655,238.593098 348.00663,238.541566 348.004262,238.490493 C348.002368,238.426998 348,238.363732 348,238.300237 L348,228.699763 C348,228.636498 348.002368,228.573002 348.004262,228.509737 C348.099208,226.707937 349.536902,225.237418 351.357697,225.026687 C351.504971,225.008282 351.654375,225 351.808042,225 L509.192195,225 C509.421629,225 509.644671,225.020475 509.863687,225.059354 C510.103776,225.100304 510.337472,225.16357 510.560514,225.249381 C511.290726,225.523608 511.913916,226.012477 512.34745,226.634089 C512.759911,227.225333 513,227.935056 513,228.699763" id="Fill-156" fill="#FFB93E"></path>
                        <path d="M435,242 L350.411074,242 C349.864019,242 349.34642,241.858977 348.888443,241.607299 C347.85942,241.048961 347.126609,239.938495 347.014965,238.641686 C347.010689,238.592914 347.006651,238.541613 347.004513,238.490311 C347.002375,238.427046 347,238.363551 347,238.300287 L347,228.699943 C347,228.636449 347.002375,228.573184 347.004513,228.509689 C347.089077,226.709984 348.377019,225.237645 350.007493,225.026916 C350.138378,225.008512 350.273301,225 350.411074,225 L424.61214,225 C424.614041,225.008512 424.616416,225.018634 424.618554,225.026916 C425.775849,229.90059 428.43012,236.582021 434.513993,241.607299 C434.67267,241.74027 434.835385,241.87117 435,242" id="Fill-157" fill="#FFA412"></path>
                        <polygon id="Fill-158" fill="#FFA412" points="492 242 494 242 494 225 492 225"></polygon>
                        <polygon id="Fill-159" fill="#FFA412" points="486 242 488 242 488 225 486 225"></polygon>
                        <polygon id="Fill-160" fill="#FFA412" points="479 242 481 242 481 225 479 225"></polygon>
                        <polygon id="Fill-161" fill="#FFA412" points="468 242 470 242 470 225 468 225"></polygon>
                        <polygon id="Fill-162" fill="#FFA412" points="456 242 458 242 458 225 456 225"></polygon>
                        <polygon id="Fill-163" fill="#FFA412" points="438 242 440 242 440 225 438 225"></polygon>
                        <polygon id="Fill-164" fill="#FFA412" points="420 242 422 242 422 225 420 225"></polygon>
                        <polygon id="Fill-165" fill="#FFA412" points="406 242 408 242 408 225 406 225"></polygon>
                        <polygon id="Fill-166" fill="#FFA412" points="498 242 500 242 500 225 498 225"></polygon>
                        <polygon id="Fill-167" fill="#FFA412" points="502 242 504 242 504 225 502 225"></polygon>
                        <polygon id="Fill-168" fill="#FFA412" points="505 242 507 242 507 225 505 225"></polygon>
                        <path d="M510,225.059584 L510,241.940416 C509.755194,241.979525 509.505889,242 509.249438,242 L508,242 L508,225 L509.249438,225 C509.505889,225 509.755194,225.020475 510,225.059584" id="Fill-169" fill="#FFA412"></path>
                        <path d="M513,226.426582 L513,240.573418 C512.514774,241.214302 511.817278,241.717954 511,242 L511,225 C511.817278,225.282283 512.514774,225.785935 513,226.426582" id="Fill-170" fill="#FFA412"></path>
                        <path d="M502,210.699943 L502,220.300057 C502,221.065213 501.760147,221.775157 501.347686,222.365933 C500.913914,222.987767 500.291197,223.476399 499.56051,223.750622 C499.337469,223.836432 499.103772,223.899927 498.863919,223.940876 C498.790282,223.952839 498.716408,223.965262 498.642772,223.973314 C498.602757,223.977685 498.561084,223.981596 498.518702,223.985737 C498.478687,223.990108 498.436541,223.991718 498.394395,223.993789 C498.326914,223.99793 498.259433,224 498.192426,224 L340.808047,224 C338.778888,224 337.107732,222.43748 337.004262,220.490541 C337.002368,220.427046 337,220.363551 337,220.300057 L337,210.699943 C337,210.636679 337.002368,210.572954 337.004262,210.509919 C337.107732,208.56275 338.778888,207 340.808047,207 L498.192426,207 C498.421624,207 498.644666,207.020705 498.863919,207.059584 C499.103772,207.100533 499.337469,207.163798 499.56051,207.249838 C500.291197,207.523831 500.913914,208.012463 501.347686,208.634527 C501.760147,209.225533 502,209.935247 502,210.699943" id="Fill-171" fill="#FFB93E"></path>
                        <path d="M424,224 L339.411074,224 C337.594606,224 336.097154,222.43725 336.004513,220.490311 C336.002375,220.427046 336,220.363321 336,220.300057 L336,210.699943 C336,210.636449 336.002375,210.572954 336.004513,210.509689 C336.097154,208.56252 337.594606,207 339.411074,207 L413.61214,207 C414.794614,211.996292 417.548415,218.901104 423.966032,223.973314 C423.976721,223.981596 423.989311,223.991718 424,224" id="Fill-172" fill="#FFA412"></path>
                        <polygon id="Fill-173" fill="#FFA412" points="480 224 482 224 482 207 480 207"></polygon>
                        <polygon id="Fill-174" fill="#FFA412" points="474 224 476 224 476 207 474 207"></polygon>
                        <polygon id="Fill-175" fill="#FFA412" points="467 224 469 224 469 207 467 207"></polygon>
                        <polygon id="Fill-176" fill="#FFA412" points="456 224 458 224 458 207 456 207"></polygon>
                        <polygon id="Fill-177" fill="#FFA412" points="444 224 446 224 446 207 444 207"></polygon>
                        <polygon id="Fill-178" fill="#FFA412" points="426 224 428 224 428 207 426 207"></polygon>
                        <polygon id="Fill-179" fill="#FFA412" points="409 224 411 224 411 207 409 207"></polygon>
                        <polygon id="Fill-180" fill="#FFA412" points="394 224 396 224 396 207 394 207"></polygon>
                        <polygon id="Fill-181" fill="#FFA412" points="486 224 488 224 488 207 486 207"></polygon>
                        <polygon id="Fill-182" fill="#FFA412" points="490 224 492 224 492 207 490 207"></polygon>
                        <polygon id="Fill-183" fill="#FFA412" points="493 224 495 224 495 207 493 207"></polygon>
                        <path d="M499,207.059353 L499,223.940417 C498.755459,223.979296 498.506153,224 498.249438,224 L497,224 L497,207 L498.249438,207 C498.506153,207 498.755459,207.020704 499,207.059353" id="Fill-184" fill="#FFA412"></path>
                        <path d="M501,209.426582 L501,223.573418 C500.515039,224.214065 499.817543,224.717717 499,225 L499,208 C499.817543,208.28252 500.515039,208.785935 501,209.426582" id="Fill-185" fill="#FFA412"></path>
                        <path d="M267,309.5 C267,260.070621 307.070991,220 356.5,220 C405.929723,220 446,260.070621 446,309.5 C446,358.929616 405.929723,399 356.5,399 C307.070991,399 267,358.929616 267,309.5" id="Fill-186" fill="#E2810E"></path>
                        <path d="M259,309.5 C259,260.070621 299.070806,220 348.499881,220 C397.92967,220 438,260.070621 438,309.5 C438,358.929616 397.92967,399 348.499881,399 C299.070806,399 259,358.929616 259,309.5" id="Fill-187" fill="#FFB93E"></path>
                        <path d="M348.499881,233.861725 C328.029144,233.861725 308.78394,241.833423 294.308901,256.308267 C279.833861,270.783586 271.862187,290.029084 271.862187,310.499881 C271.862187,330.970678 279.833861,350.216176 294.308901,364.69102 C308.78394,379.166101 328.029382,387.138037 348.499881,387.138037 C368.970856,387.138037 388.216298,379.166101 402.690862,364.69102 C417.165901,350.216176 425.138051,330.970678 425.138051,310.499881 C425.138051,290.029084 417.165901,270.783586 402.690862,256.308267 C388.216298,241.833423 368.970856,233.861725 348.499881,233.861725 M348.499881,392 C326.730611,392 306.264154,383.522298 290.870796,368.129134 C275.477439,352.735732 267,332.269453 267,310.499881 C267,288.73031 275.477439,268.263793 290.870796,252.87039 C306.264154,237.477226 326.730611,229 348.499881,229 C370.269865,229 390.735846,237.477226 406.128966,252.87039 C421.522323,268.263793 430,288.73031 430,310.499881 C430,332.269453 421.522323,352.735732 406.128966,368.129134 C390.735846,383.522298 370.269865,392 348.499881,392" id="Fill-188" fill="#FFA412"></path>
                        <g id="Group" stroke-width="1" fill="none" transform="translate(303.000000, 257.000000)">
                            <path d="M58.3845024,56.3210563 C62.1464823,47.0250174 64.3833352,37.3203614 64.8917109,27.8200139 C65.1289529,23.0528145 64.993386,18.3196664 64.3155518,13.790827 C64.1460933,12.5309243 63.9088513,11.305073 63.6716093,10.0792217 C54.2497137,5.38012509 48.9287151,0 48.9287151,0 C48.9287151,0 43.6754999,5.34607366 34.3552794,10.0451703 C35.0331136,11.7136901 35.6431644,13.4162613 36.1854318,15.0847811 C37.6088836,19.409312 38.6595267,23.7338429 39.439036,28.0924253 C40.2185454,32.4510076 40.726921,36.7755386 40.964163,41.1000695 C41.201405,45.4246004 41.201405,49.7150799 40.964163,53.971508 C40.7608127,58.2279361 40.2524371,62.4162613 39.6423863,66.5705351 C38.9645521,70.7248089 38.1850427,74.8109798 37.1343997,78.7949965 C35.5075975,85.2988186 33.4402032,91.666435 31,97.7956915 C31.1016751,97.8637943 31.2033503,97.9318972 31.3050254,98 C35.6770561,93.1987491 39.7779531,88.1931897 43.5060413,82.9833218 C49.5387659,74.5385685 54.7241976,65.6511466 58.3845024,56.3210563 Z" id="Path" fill="#F29A0C" fill-rule="nonzero"></path>
                            <path d="M96.6365553,16.3735075 C91.701168,16.7809701 87.072115,16.611194 82.7834337,16 C82.409025,20.7876866 81.6602076,25.4395522 80.5710186,29.9895522 C77.8820835,41.2287313 73.2870677,51.6529851 67.3646029,60.9906716 C65.9350425,63.3675373 64.3352962,65.6085821 62.7695871,67.8496269 C61.9867326,68.9701493 61.1017666,70.0227612 60.2848749,71.1093284 L59.0255002,72.7391791 C58.6170544,73.2824627 58.1405342,73.791791 57.7320884,74.3011194 L55.1112275,77.3910448 C54.2262615,78.4097015 53.2732212,79.394403 52.354218,80.3791045 C50.5502489,82.3824627 48.6101311,84.25 46.7040505,86.1175373 C42.0409604,90.6335821 37.1055731,94.8100746 32,98.7149254 C36.6290529,101.906716 41.8707746,104.725 47.8272766,107 C104.431064,85.4384328 96.6365553,16.3735075 96.6365553,16.3735075 Z" id="Path" fill="#F29A0C" fill-rule="nonzero"></path>
                            <path d="M30.5955658,65.3451627 C30.2620612,61.4583861 29.8285051,57.6054077 29.1281453,53.8538234 C28.4277855,50.0684411 27.5940239,46.3844529 26.526809,42.7680608 C25.4595941,39.1516688 24.1922764,35.6366709 22.7248559,32.2906633 C21.2574354,28.9108576 19.6232626,25.6662442 17.788987,22.6582172 C16.8885244,21.1373046 15.9213609,19.6839882 14.9208469,18.3320659 C14.4205899,17.6561048 13.9203329,17.0139417 13.420076,16.4055767 C13.3200246,16.2703845 13.1866227,16.1351922 13.0865713,16 C9.11786587,16.5069708 4.88235672,16.608365 0.380043848,16.2365864 C0.380043848,16.2365864 -5.55633905,68.3193916 29.4950004,96 C30.395463,89.7135615 30.89572,83.3933249 30.9957714,77.1068864 C31.0291219,73.1863118 30.8623695,69.2319392 30.5955658,65.3451627 Z" id="Path" fill="#F29A0C" fill-rule="nonzero"></path>
                        </g>
                        <path d="M615.483458,338.38528 C615.483458,338.38528 605.806036,327.107499 614.88683,319.943348 C614.88683,319.943348 621.51993,315.932049 626.928473,316.257757 C626.928473,316.257757 619.26479,329.095145 621.744259,330.372157 C624.223253,331.649168 629.251671,315.45237 629.251671,315.45237 C629.251671,315.45237 644.346173,313.990594 649.201483,316.322425 C649.201483,316.322425 636.297621,326.871094 639.01541,327.498822 C641.733198,328.126786 655.671199,317.773305 655.671199,317.773305 C655.671199,317.773305 669.720178,320.161276 668.971073,328.722536 C668.221494,337.283558 663.380886,339.927121 661.253561,339.699481 C659.125761,339.471604 646.680279,334.725745 646.408998,336.467038 C646.137954,338.208568 653.629716,343.899572 658.875822,344.165823 C658.875822,344.165823 648.970752,355.07739 642.388161,351.928329 C635.805332,348.779267 635.243563,343.787529 631.140203,341.915005 C627.036843,340.042955 623.533906,340.047929 625.227988,341.957169 C626.922071,343.866646 634.34862,345.722351 636.695294,349.868908 C639.041731,354.014991 641.147478,356.81134 634.336527,355.788026 C627.526287,354.764237 616.455468,349.786474 615.969582,344.085995 L615.483458,338.38528 Z" id="Fill-190" fill="#82B378"></path>
                        <path d="M662,329.067392 C662,329.067392 623.202392,327.571698 614.634228,338.672884 C614.634228,338.672884 612.739328,344.351455 606.908511,349.521731 L606,352 C606,352 612.722691,344.907515 615.128509,344.47883 C615.128509,344.47883 611.366193,330.724717 662,329.067392" id="Fill-191" fill="#82B378"></path>
                        <path d="M607.828545,348.961629 C607.828545,348.961629 599.5734,355.028034 599,365.866769 L600.498393,366 C600.498393,366 603.134743,354.792683 607.900489,350.409833 C612.665997,346.027459 607.828545,348.961629 607.828545,348.961629" id="Fill-192" fill="#82B378"></path>
                        <path d="M581.816583,324.66434 C581.816583,324.66434 597.306602,316.087096 590.078037,304.446213 C590.078037,304.446213 584.295377,297.298038 578.099226,295.460326 C578.099226,295.460326 581.403808,312.819372 578.099226,313.227778 C574.794644,313.636421 575.827058,293.621907 575.827058,293.621907 C575.827058,293.621907 559.51149,285.861476 553.109191,286.474204 C553.109191,286.474204 563.229085,303.425079 559.924742,303.016436 C556.619682,302.60803 545.260987,285.453306 545.260987,285.453306 C545.260987,285.453306 528.531929,282.389431 525.847225,292.192603 C523.162043,301.995066 527.499277,306.896652 529.977833,307.50938 C532.45615,308.122107 548.358943,307.917786 547.94593,309.960291 C547.532917,312.002559 536.793384,315.270283 530.803382,313.4321 C530.803382,313.4321 537.413023,329.565926 546.087014,328.748877 C554.761243,327.932064 557.446424,322.622543 562.815833,322.213901 C568.185719,321.805494 572.10994,323.234799 569.424758,324.66434 C566.740054,326.094117 557.652812,325.13291 553.315816,328.778841 C548.978344,332.425243 545.467375,334.671597 553.521965,336.305459 C561.576794,337.939085 576.033922,336.918186 578.925252,330.791145 L581.816583,324.66434 Z" id="Fill-193" fill="#A8D29F"></path>
                        <path d="M534,295 C534,295 576.992009,309.068788 581.905286,324.793038 C581.905286,324.793038 581.700705,331.827432 586,339.896788 L586,343 C586,343 581.495886,332.448409 579.039247,330.999701 C579.039247,330.999701 588.661457,317.344898 534,295" id="Fill-194" fill="#82B378"></path>
                        <path d="M586.030939,338.971592 C586.030939,338.971592 592.585357,349.357407 588.84856,362 L587.16243,361.527174 C587.16243,361.527174 588.799457,347.602244 585.369909,340.598668 C581.940361,333.595337 586.030939,338.971592 586.030939,338.971592" id="Fill-195" fill="#82B378"></path>
                        <path d="M606.375159,312.6317 C606.375159,312.6317 586.030133,301.250258 595.524383,285.803303 C595.524383,285.803303 603.120069,276.318768 611.257794,273.879888 C611.257794,273.879888 606.917674,296.914233 611.257794,297.456207 C615.598152,297.99818 614.241626,271.44077 614.241626,271.44077 C614.241626,271.44077 635.671207,261.143038 644.080665,261.956235 C644.080665,261.956235 630.788572,284.448607 635.128929,283.906396 C639.469049,283.364423 654.388687,260.601302 654.388687,260.601302 C654.388687,260.601302 676.360783,256.536501 679.887368,269.543863 C683.413953,282.5517 677.71707,289.055381 674.46198,289.868341 C671.20689,290.681301 650.319825,290.410315 650.862102,293.120419 C651.404617,295.830049 665.510245,300.166074 673.376712,297.726956 C673.376712,297.726956 664.696235,319.135381 653.30342,318.051196 C641.910367,316.967487 638.384257,309.921595 631.331562,309.379859 C624.278629,308.837648 619.124499,310.734555 622.650847,312.6317 C626.177432,314.528607 638.112762,313.252998 643.809169,318.091096 C649.505815,322.929194 654.11743,325.910286 643.53815,328.078179 C632.958869,330.246311 613.970607,328.891377 610.173002,320.761301 L606.375159,312.6317 Z" id="Fill-196" fill="#A8D29F"></path>
                        <path d="M670,273 C670,273 612.952705,291.465476 606.433178,312.103571 C606.433178,312.103571 606.705301,321.336428 601,331.926786 L601,336 C601,336 606.976472,322.150833 610.236474,320.25 C610.236474,320.25 597.468827,302.327619 670,273" id="Fill-197" fill="#82B378"></path>
                        <path d="M600.292086,331.523469 C600.292086,331.523469 591.552938,344.817545 596.535182,361 L598.783648,360.394701 C598.783648,360.394701 596.601167,342.570949 601.173781,333.606598 C605.745923,324.64201 600.292086,331.523469 600.292086,331.523469" id="Fill-198" fill="#82B378"></path>
                        <path d="M605.499882,397 C627.315184,397 645,379.091379 645,357 L566,357 C566,379.091379 583.684816,397 605.499882,397" id="Fill-199" fill="#F1A34F"></path>
                        <path d="M615,396.693853 C613.37192,396.897394 611.711842,397 610.026453,397 C587.919862,397 570,379.09077 570,357 L579.944229,357 C579.944229,377.408991 595.239057,394.246826 615,396.693853" id="Fill-200" fill="#FFB973"></path>
                        <path d="M646,399 L565,399 C565,396.238528 567.20629,394 569.928524,394 L641.071714,394 C643.793472,394 646,396.238528 646,399" id="Fill-201" fill="#F1A34F"></path>
                        <polygon id="Fill-202" fill="#D86713" points="564 358 646 358 646 357 564 357"></polygon>
                        <g id="Man" stroke-width="1" fill="none" transform="translate(27.000000, 0.000000)">
                            <path d="M74.0727255,56.7271853 L74.0871191,59.280517 C74.0871191,59.280517 73.387641,67.2647966 83.272252,68.4308139 C93.1556005,69.6000967 101.261466,69.4461181 100.993544,63.2844627 C100.103413,58.5141407 98.5082497,51.109102 98.4423422,47.1616737 C98.4178478,45.6949837 98.5188555,44.138117 98.7935964,42.3805507 L79.6410261,42 L74,42.9168382 L74.0727255,56.7271853 Z" id="Fill-203" fill="#FFB27D"></path>
                            <path d="M74,42.9595905 L74.0733302,57.4139152 C76.1250484,58.3990072 78.4397877,59 81.0348624,59 C89.9101094,59 95.6469252,52.2794488 98.6455707,47.402363 C98.6208726,45.8672811 98.7227201,44.2378176 99,42.3982958 L79.687929,42 L74,42.9595905 Z" id="Fill-204" fill="#E2915A"></path>
                            <path d="M100.758078,39.666615 C98.4562125,51.8432078 82.4674332,51.4434147 75.5579132,50.6777659 C73.6134415,50.4653999 72.3897744,50.2211533 72.3897744,50.2211533 C70.1972727,49.6457597 68.9743905,46.2520175 68.4058576,41.8069865 C67.2779489,33.0099953 68.7025517,20.096549 70.2150639,16.7935637 C72.4910272,11.8237881 76.7781791,6.4485632 92.8794615,10.3269421 C108.983099,14.2081491 103.712461,24.0654277 100.758078,39.666615" id="Fill-205" fill="#FFB27D"></path>
                            <path d="M113,399 L90,399 C90.1718459,397.886521 90.7580345,394.499749 91.8345286,391.379948 C92.2074369,390.293436 92.6427623,389.238058 93.1373174,388.32168 C95.3739708,384.200434 109.582205,386.821597 109.582205,386.821597 C109.582205,386.821597 110.901726,387.865208 111.932005,391.851375 C112.388579,393.606662 112.790704,395.938055 113,399" id="Fill-206" fill="#233862"></path>
                            <path d="M44.9896142,391.878848 C44.9297215,394.948674 44.5531077,397.85357 43.4684396,399 L0,399 C0.552231552,397.385358 2.11680302,394.956751 6.57932122,394.212874 C11.6504108,393.370509 19.5547324,390.863736 24.1697741,385.855142 C25.8142872,384.076091 27.0392972,381.97604 27.5755404,379.523463 C29.6205229,370.17485 44.4853476,382.387192 44.4853476,382.387192 C44.4853476,382.387192 45.0855441,387.309804 44.9896142,391.878848" id="Fill-207" fill="#233862"></path>
                            <path d="M74.9958004,291.661871 C74.3865709,295.01977 73.9996693,297.773717 73.8971941,299.748892 C72.5054728,326.89476 51.0498119,388.963233 47.211973,390.410621 C41.2740303,392.652117 31.9227159,387.88798 27.0307363,386.329156 C25.003464,385.6815 23.6349977,383.63655 24.0862977,381.562208 C34.7117806,332.70808 38.6165734,262.359362 40.0374274,220.709714 C40.7555208,199.731409 44.3559544,185.239897 44.3559544,185.239897 C44.3559544,185.239897 96.686311,171.275404 96.9968034,188.940281 C97.2722855,204.571711 79.6626411,265.874958 74.9958004,291.661871" id="Fill-208" fill="#2B478B"></path>
                            <path d="M74.9813425,292 L40,220.832989 C40.7185653,199.791159 44.3213646,185.255764 44.3213646,185.255764 C44.3213646,185.255764 96.6861049,171.248984 96.9968013,188.967354 C97.2724644,204.646118 79.6512495,266.135 74.9813425,292" id="Fill-209" fill="#233862"></path>
                            <path d="M64,189.397671 L91.8046274,390.501082 C91.8046274,390.501082 104.014951,393.439254 113.511927,391.088306 C113.511927,391.088306 121.651971,284.132499 120.973634,258.275153 C120.295554,232.41755 126.815655,189.08522 119.485454,184.30643 C112.155253,179.527383 64,189.397671 64,189.397671" id="Fill-210" fill="#2B478B"></path>
                            <path d="M65.1574635,5.25458882 C65.1574635,5.25458882 72.1056193,4.72200848 80.3003342,1.17010929 C86.9519834,-1.71267674 95.343429,1.46209524 98.0673913,2.89262188 C97.9940341,2.45489862 97.8188489,1.85763138 97.4030728,1.25908574 C97.4030728,1.25908574 98.6260344,2.12328235 98.8060929,3.33162352 C98.9322878,3.42443517 98.9884599,3.48809936 98.9558852,3.50957644 C98.9558852,3.50957644 100.342746,3.25696512 101.233292,3.65633645 C101.233292,3.65633645 100.610013,3.56736 100.387376,3.96698701 C100.363522,4.00917412 100.328639,4.04522493 100.287344,4.07718486 C110.663024,9.0744401 111.620515,25.4200286 108.28225,29.2020393 C104.265047,33.7523668 99.4480965,44 99.4480965,44 C99.4480965,44 97.6921411,41.5789711 98.4223784,37.5747749 C99.1528723,33.5705787 95.683283,33.5705787 91.3010894,31.7501409 C86.9188958,29.9302145 90.5705955,24.8337556 86.7362723,21.7395226 C82.9016926,18.6452897 68.8417379,20.4654718 69.0246179,18.0991583 C63.8054856,16.2040621 65.1574635,5.78742483 65.1574635,5.25458882" id="Fill-211" fill="#233862"></path>
                            <path d="M103,68 L96.6351079,204.986146 C96.6351079,204.986146 43.5155186,205.856573 45.0318568,193.798423 C46.5487057,181.740273 64.179393,72.1948519 64.179393,72.1948519 L103,68 Z" id="Fill-212" fill="#E9F3FE"></path>
                            <path d="M121.942092,146.037119 C118.827666,155.58098 124.699204,187.607479 126.792011,198.45676 C127.251991,200.751143 127.558225,202.107464 127.558225,202.107464 C120.308761,214.155223 93.7602731,214 93.7602731,214 C88.6549495,190.944809 86,154.226459 86,154.226459 L106.370465,63 L132,87.2022035 C132,87.2022035 130.059932,101.963632 127.660135,116.984449 C125.770896,128.876678 123.626504,140.977651 121.942092,146.037119" id="Fill-213" fill="#22407A"></path>
                            <path d="M79,41.1282189 C79,41.1282189 78.4628606,42.3472721 74.2714878,41.9022748 C74.2714878,41.9022748 70.7526266,41.5289161 71.0138569,40.1693794 C71.0138569,40.1693794 74.5514744,39.4037046 79,41.1282189" id="Fill-214" fill="#FFFFFF"></path>
                            <path d="M26.6634778,124.193711 C26.6108896,124.140553 26.6108896,124.036036 26.6108896,123.985447 C26.6108896,122.005019 34.232812,117.627636 42.4844977,112.470871 C42.5896741,112.366611 42.6425214,112.31294 42.6425214,112.31294 C42.6477025,112.309601 42.6534017,112.306263 42.6585828,112.302925 C42.5116985,116.51647 42.528019,120.651436 42.7805978,124.500328 C43.2484515,131.638805 42.725419,140.170927 41.8542163,148.857898 C37.9248669,142.776145 27.4313175,126.434275 26.6634778,124.193711 M48.0826808,68.7866641 C48.0826808,68.7866641 48.0774997,68.8100327 48.0705052,68.8441869 C46.7954354,70.0691145 10.8222517,104.691938 3.85263032,118.25371 C-3.24315096,132.009365 36.2824569,159.414104 36.2824569,159.414104 C36.2824569,159.414104 38.8258609,160.410738 40.5910631,160.020918 C38.727679,175.231078 36.635031,189.265102 37.8748693,195.255949 C40.1151787,206.082563 50.2178138,209.718312 50.2178138,208.885772 C50.2178138,208.621013 52.8210596,169.406637 55.9198781,149.150905 C62.7970168,104.192722 71,62 71,62 C59.236821,63.2115741 48.0826808,68.7866641 48.0826808,68.7866641" id="Fill-215" fill="#22407A"></path>
                            <path d="M104.999493,62.0878991 C105.064581,60.7912609 98.8456447,59 98.8456447,59 C98.8456447,59 91.7275567,68.7456177 80,68.9140486 C80,68.9140486 83.3416526,75.336777 87.2806813,77 C87.2806813,77 104.612304,69.7874502 104.999493,62.0878991" id="Fill-216" fill="#D9E9F9"></path>
                            <path d="M64.4836676,162.540268 C64.7571422,165.766563 66.1597705,168.772004 68.4190573,170.967642 L71.9705542,174.419959 C72.8617337,175.286848 74.2641172,175.166734 75.0135403,174.162165 L79.4128819,168.26804 C80.5924705,166.687181 81.1470094,164.687343 80.96657,162.684921 C80.5550116,158.225194 79.7884504,149.631726 79.1749076,141.337899 C78.6757002,134.617697 78.2749143,128.089163 78.2448003,124.117642 C78.1483374,111.43693 80.5327321,71 80.5327321,71 L77.6510887,71.1586025 C77.6510887,71.1586025 70.4949667,86.8553454 66.7480958,108.212184 C65.8233747,113.469574 65.1104312,119.066383 64.7561628,124.861317 C64.7561628,124.861317 63.2543786,147.9571 64.4836676,162.540268" id="Fill-217" fill="#FA9746"></path>
                            <path d="M64.4836676,161.68724 C64.7571422,164.875479 66.1597705,167.845468 68.4190573,170.015206 L71.9705542,173.426801 C72.8617337,174.283465 74.2641172,174.164767 75.0135403,173.172048 L79.4128819,167.347449 C80.5924705,165.785238 81.1470094,163.808989 80.96657,161.830188 C80.5550116,157.423066 79.7884504,148.930965 79.1749076,140.73497 C71.2120724,131.408158 67.985709,118.518381 66.7480958,108 C65.8233747,113.195375 65.1104312,118.726165 64.7561628,124.452743 C64.7561628,124.452743 63.2543786,147.276093 64.4836676,161.68724" id="Fill-218" fill="#ED7D2B"></path>
                            <path d="M80,68.5335011 C80,68.5335011 73.5551048,64.9463685 73.5332206,61.0567579 C73.5332206,61.0567579 69.3706867,60.5673301 67.5524304,62.4628918 C67.5524304,62.4628918 66.0242731,69.1281822 68.0512299,73 C68.0512299,73 77.3319965,71.6725554 80,68.5335011" id="Fill-219" fill="#D9E9F9"></path>
                            <path d="M83.6412683,68.6834509 L75.087328,67 C75.087328,67 73.970052,67.0795821 74.0006158,68.2239769 C74.0314408,69.3681572 76.4094075,72.7112487 77.4632049,72.9783099 C78.516741,73.2455856 85.6644861,70.9984104 83.6412683,68.6834509" id="Fill-220" fill="#BA4C43"></path>
                            <path d="M104.999253,61.8203649 C105.064291,60.5719404 100.858464,58 100.858464,58 C100.858464,58 92.71827,67.0530344 81,67.2149578 C81,67.2149578 84.3390064,73.3991108 88.2746588,75 C88.2746588,75 104.612372,69.2333746 104.999253,61.8203649" id="Fill-221" fill="#E9F3FE"></path>
                            <path d="M80,67.37965 C80,67.37965 73.455541,64.0238496 73.4335699,60 C73.4335699,60 69.4835836,61.6819183 67.6578336,63.6422553 C67.6578336,63.6422553 65.9687335,67.9948153 68.0037454,72 C68.0037454,72 77.3213938,70.6265716 80,67.37965" id="Fill-222" fill="#E9F3FE"></path>
                            <path d="M33,161.746996 C33,158.307361 36.1424851,155.545812 39.6758801,156.062388 C40.6572185,156.205727 41.542337,156.594863 42.155313,157.3802 C44.5867669,160.495302 46.8999779,169.559736 42.5915799,169.983192 C40.8378603,170.155804 38.585475,168.971238 36.8503702,167.702384 C35.0874743,166.413088 33,164.394227 33,162.26332 L33,161.746996 Z" id="Fill-223" fill="#FFB27D"></path>
                            <path d="M126.169219,197 C118.985094,189.065644 106.571312,173.457117 107.011393,160.647493 C107.597685,142.705226 127,116 127,116 C125.191504,127.823069 123.139,139.854184 121.526576,144.884082 C118.545255,154.372901 124.165854,186.21358 126.169219,197" id="Fill-224" fill="#233862"></path>
                            <path d="M126.954962,166 C126.954962,166 121.430093,168.760351 118.075644,167.380047 C114.721453,166 110.775118,164.96342 107.026164,169.227661 C103.27721,173.491903 102.488201,176.449219 103.27721,178.025974 C104.066735,179.603759 112.807165,179.012347 114.257633,178.025974 C115.708358,177.040631 118.00169,174.613706 119.456797,175.036989 C123.471416,176.202819 126.852921,173.142514 128.745564,170.70529 C129.887592,169.234871 126.806282,168.52219 126.954962,166" id="Fill-225" fill="#FFB27D"></path>
                            <path d="M107,63 C107,63 128.814149,65.4178944 133.959241,74.9306323 C139.103822,84.4428586 165.854879,122.993605 164.978972,139.01417 C164.103065,155.035247 128.487184,173 128.487184,173 C128.487184,173 120.598911,169.662318 120.480642,166.071414 C120.362629,162.479998 145.103365,141.017188 143.603415,137.011664 C142.103466,133.00665 114.860685,101.327706 112.232198,90.8826478 C109.603965,80.4375895 107,63 107,63" id="Fill-226" fill="#22407A"></path>
                            <path d="M42.9650212,113.069608 C42.9650212,113.069608 42.9126525,113.124465 42.8086853,113.230766 C34.6314726,118.501724 27.0785766,122.975555 27.0785766,125 C25.9849957,121.430909 36.6101866,106.519625 40.048292,103.485189 C43.5377393,100.395897 42.9650212,113.069608 42.9650212,113.069608" id="Fill-227" fill="#233862"></path>
                            <path d="M99.3351387,58 C99.3351387,58 82.627793,127.005869 85.2867638,153 C85.2867638,153 91.4301253,125.221898 106.212178,102.468647 C106.212178,102.468647 100.817441,97.7904256 101.110449,96.0654123 C101.110449,96.0654123 105.114882,94.8943956 109,95.6829513 C109,95.6829513 108.570668,65.9373992 106.14801,62.7953744 C103.725352,59.6525871 99.3351387,58 99.3351387,58" id="Fill-228" fill="#233862"></path>
                            <path d="M72.9977244,60 C73.2245995,60.1058999 56.4144203,128.203129 55,150 C55,150 56.6771721,111.103895 56.5122425,99.8936717 C56.5122425,99.8936717 63.4622601,96.2295869 63.4622601,94.9438799 C63.4622601,93.65843 56.0481681,90.1822403 56.0481681,90.1822403 C56.0481681,90.1822403 60.7428563,66.2285587 63.3050736,63.5892866 C65.8670327,60.9497575 72.9977244,60 72.9977244,60" id="Fill-229" fill="#233862"></path>
                        </g>
                        <path d="M433.987492,207 L476.056584,206.950951 C481.531834,206.94482 486.005918,202.482153 486,197.034148 L485.978668,178.893702 C485.97227,173.445933 481.487522,168.993641 476.012509,169 L433.94318,169.048814 C428.468167,169.05518 423.993609,173.517611 424,178.965852 L424.02086,197.106062 C424.027494,202.554303 428.512716,207.006124 433.987492,207" id="Fill-230" fill="#233862"></path>
                        <path d="M444.501729,164.334962 C444.501966,163.780768 444.865458,163.309119 445.366147,163.151903 C445.482493,163.115402 445.603578,163.095124 445.732009,163.093931 L447.599702,163.09083 L454.522396,163.084627 L458.295933,163.080331 C458.975051,163.07914 459.52716,163.635719 459.527871,164.316831 L459.533321,168.277775 L444.506705,168.293282 L444.501729,164.334962 Z M478.651471,173.33327 L478.65076,173.330884 C477.076419,170.579718 474.246681,168.63682 470.964592,168.313083 L470.961748,168.31356 C470.959379,168.313799 470.957009,168.313799 470.954403,168.312129 C470.632615,168.281354 470.307747,168.263461 469.976008,168.263938 L461.599585,168.275867 L461.594372,164.314445 C461.594609,163.431505 461.25031,162.598187 460.625455,161.970037 C460.001074,161.344035 459.170777,160.997873 458.2938,161.00001 L456.108821,161.00169 L447.313222,161.011948 L445.727744,161.014095 C443.911707,161.017674 442.431911,162.506338 442.435466,164.33687 L442.440442,168.298292 L427.981337,168.313799 C422.486072,168.320479 417.995977,172.852316 418.000003,178.384947 L418.023701,196.953171 C418.030099,202.485802 422.530857,207.006665 428.026359,206.999993 L470.018897,206.952749 C470.759624,206.952749 471.480921,206.868296 472.17473,206.710602 L472.177337,206.710602 C472.179706,206.710125 472.179706,206.710125 472.182076,206.709648 C473.296247,206.46106 474.33862,206.021141 475.27768,205.428299 C478.110972,203.646435 480.002125,200.473958 480.000003,196.879215 L479.97914,178.312899 C479.975822,176.50193 479.493141,174.803326 478.651471,173.33327 L478.651471,173.33327 Z" id="Fill-231" fill="#0A5F75"></path>
                    </g>
                </g>
            </g>
        </g>
    </g>
</svg>