<?xml version="1.0" encoding="UTF-8"?>
<svg width="103px" height="103px" viewBox="0 0 103 103" version="1.1" xmlns="http://www.w3.org/2000/svg" xmlns:xlink="http://www.w3.org/1999/xlink">
    <title>02_About_ICON1_Global</title>
    <g id="Page-1" stroke="none" stroke-width="1" fill="none" fill-rule="evenodd">
        <g id="02-About-Dark" transform="translate(-145.000000, -671.000000)" fill="#FFFFFF" fill-rule="nonzero">
            <g id="Group-2" transform="translate(88.000000, 648.000000)">
                <g id="02_About_ICON1_Global" transform="translate(57.000000, 23.000000)">
                    <path d="M99.78125,51.5 C97.85,51.5 96.5625,52.7875 96.240625,54.396875 C95.596875,62.44375 93.021875,69.525 89.159375,75.9625 C86.2625,74.996875 82.078125,74.03125 76.928125,73.065625 C77.89375,70.490625 78.5375,67.59375 79.18125,65.01875 C79.503125,63.409375 78.5375,61.478125 76.60625,61.15625 C74.996875,60.834375 73.065625,61.8 72.74375,63.73125 C72.1,66.628125 71.45625,69.525 70.490625,72.1 C65.6625,71.45625 60.5125,70.8125 54.71875,70.8125 L54.71875,57.9375 C54.71875,56.00625 53.43125,54.71875 51.5,54.71875 C49.56875,54.71875 48.28125,56.00625 48.28125,57.9375 L48.28125,70.8125 C43.13125,70.8125 37.98125,71.134375 32.509375,72.1 C30.9,66.95 29.6125,61.15625 29.290625,54.71875 L45.384375,54.71875 C47.315625,54.71875 48.603125,53.43125 48.603125,51.5 C48.603125,49.56875 47.315625,48.28125 45.384375,48.28125 L29.290625,48.28125 C29.6125,42.4875 30.9,36.371875 32.83125,30.578125 C34.7625,30.9 36.69375,31.221875 38.625,31.54375 C38.625,31.54375 38.946875,31.54375 38.946875,31.54375 C40.55625,31.54375 41.84375,30.25625 42.165625,28.646875 C42.4875,27.0375 41.2,25.428125 39.26875,25.10625 C37.98125,25.10625 36.69375,24.784375 35.40625,24.4625 C40.234375,12.875 47.6375,6.4375 51.5,6.4375 C53.43125,6.4375 54.71875,5.15 54.71875,3.21875 C54.71875,1.2875 53.43125,0 51.5,0 C35.40625,0 19.95625,7.725 10.3,20.921875 C3.540625,29.6125 0,40.234375 0,51.5 C0,79.825 23.175,103 51.5,103 C78.5375,103 101.06875,81.75625 103,55.040625 C103,53.109375 101.7125,51.5 99.78125,51.5 Z M68.2375,78.215625 C64.053125,86.90625 58.903125,93.021875 54.71875,95.275 L54.71875,77.25 C59.546875,77.571875 64.053125,77.89375 68.2375,78.215625 Z M48.28125,77.25 L48.28125,95.275 C44.096875,93.021875 38.946875,86.90625 34.7625,78.215625 C39.590625,77.571875 44.096875,77.25 48.28125,77.25 Z M26.071875,73.065625 C22.209375,73.709375 18.025,74.675 13.840625,75.9625 C9.65625,69.846875 7.08125,62.44375 6.759375,54.71875 L22.853125,54.71875 C22.853125,61.15625 24.140625,67.59375 26.071875,73.065625 Z M37.3375,8.690625 C34.11875,12.553125 30.9,17.703125 28.325,23.496875 C23.81875,22.53125 20.921875,21.8875 18.346875,21.24375 C23.496875,15.45 29.934375,11.265625 37.3375,8.690625 Z M14.1625,26.39375 L14.1625,26.39375 C17.38125,27.359375 20.6,28.325 26.071875,29.6125 C24.140625,35.728125 22.853125,41.84375 22.53125,48.28125 L6.4375,48.28125 C7.08125,40.55625 9.65625,33.153125 14.1625,26.39375 Z M18.025,81.434375 C21.565625,80.46875 24.784375,79.825 28.325,79.18125 C30.9,84.975 34.11875,90.125 37.3375,93.9875 C29.934375,91.734375 23.175,87.228125 18.025,81.434375 Z M65.984375,93.9875 C69.203125,90.125 72.421875,84.975 74.996875,79.18125 C79.18125,79.825 82.4,80.790625 85.296875,81.434375 C79.825,87.228125 73.3875,91.734375 65.984375,93.9875 Z" id="Shape"></path>
                    <path d="M78.875,34.9814815 L64.25,34.9814815 C62.3,34.9814815 61,36.2777778 61,38.2222222 C61,40.1666667 62.3,41.462963 64.25,41.462963 L70.75,41.462963 L70.75,42.7592593 C70.75,44.7037037 72.05,46 74,46 C75.95,46 77.25,44.7037037 77.25,42.7592593 L77.25,41.462963 L78.875,41.462963 C83.425,41.462963 87,37.8981481 87,33.3611111 C87,28.8240741 83.425,25.2592593 78.875,25.2592593 L69.125,25.2592593 C68.15,25.2592593 67.5,24.6111111 67.5,23.6388889 C67.5,22.6666667 68.15,22.0185185 69.125,22.0185185 L83.75,22.0185185 C85.7,22.0185185 87,20.7222222 87,18.7777778 C87,16.8333333 85.7,15.537037 83.75,15.537037 L77.25,15.537037 L77.25,14.2407407 C77.25,12.2962963 75.95,11 74,11 C72.05,11 70.75,12.2962963 70.75,14.2407407 L70.75,15.537037 L69.125,15.537037 C64.575,15.537037 61,19.1018519 61,23.6388889 C61,28.1759259 64.575,31.7407407 69.125,31.7407407 L78.875,31.7407407 C79.85,31.7407407 80.5,32.3888889 80.5,33.3611111 C80.5,34.3333333 79.85,34.9814815 78.875,34.9814815 Z" id="Path"></path>
                    <path d="M45,29 C45,45.1111111 57.8888889,58 74,58 C90.1111111,58 103,45.1111111 103,29 C103,12.8888889 90.1111111,0 74,0 C57.8888889,0 45,12.8888889 45,29 Z M74,6.44444444 C86.5666667,6.44444444 96.5555556,16.4333333 96.5555556,29 C96.5555556,41.5666667 86.5666667,51.5555556 74,51.5555556 C61.4333333,51.5555556 51.4444444,41.5666667 51.4444444,29 C51.4444444,16.4333333 61.4333333,6.44444444 74,6.44444444 Z" id="Shape"></path>
                </g>
            </g>
        </g>
    </g>
</svg>