<?xml version="1.0" encoding="UTF-8"?>
<svg width="143px" height="127px" viewBox="0 0 143 127" version="1.1" xmlns="http://www.w3.org/2000/svg" xmlns:xlink="http://www.w3.org/1999/xlink">
    <title>02_About_ICON4_Platform</title>
    <g id="Page-1" stroke="none" stroke-width="1" fill="none" fill-rule="evenodd">
        <g id="02-About-Dark" transform="translate(-777.000000, -1135.000000)" fill="#FFFFFF">
            <g id="Group-2-Copy-4" transform="translate(720.000000, 1101.000000)">
                <g id="Group" transform="translate(57.000000, 34.000000)">
                    <path d="M11.5627247,125.208551 C10.0043818,124.202597 6.76529856,122.116476 4.36476184,120.572725 C1.96422512,119.028974 0,117.756286 0,117.744528 C0,117.73277 1.38179924,116.833899 3.07084511,115.747036 C4.75989132,114.660174 6.14203168,113.761261 6.14226813,113.749455 C6.14250835,113.737649 4.76064665,112.838778 3.07147209,111.751964 C1.38229753,110.665149 0,109.766378 0,109.754689 C0,109.743004 1.35690527,108.86004 3.01552518,107.79255 L6.03119758,105.851656 L5.73519304,105.660131 C5.57239046,105.554794 4.21533763,104.680544 2.7195203,103.71736 C1.22370297,102.754173 0,101.956575 0,101.944921 C0,101.933266 1.70266171,100.828953 3.78351271,99.4908919 C5.86436337,98.1528343 9.10136354,96.0712827 10.9768462,94.8652249 C12.8523288,93.659167 14.4079112,92.6805167 14.433696,92.6903741 C14.4804266,92.7084437 16.0096154,93.6898664 22.9068338,98.1284477 C24.9075485,99.4159722 27.0386699,100.78673 27.6426592,101.174574 C28.2466486,101.562418 28.7605646,101.898382 28.7846932,101.921164 C28.8195633,101.954088 28.7632516,102.003888 28.5101526,102.163949 C27.9223338,102.535692 22.8385144,105.807639 22.8113932,105.831671 C22.7966504,105.844734 24.1436427,106.729636 25.8047128,107.798122 C28.1312489,109.294674 28.8151878,109.749981 28.7828298,109.780694 C28.7478671,109.813877 25.8691338,111.672546 23.2941557,113.324485 C22.8027177,113.639758 22.661724,113.745725 22.6935981,113.77586 C22.7165051,113.797519 23.9706787,114.609303 25.480652,115.579822 C26.9906253,116.550341 28.3620757,117.432726 28.5283204,117.540674 C28.7590134,117.690472 28.819958,117.745465 28.7857022,117.77293 C28.7315491,117.816351 27.0421566,118.905205 22.1003708,122.081785 C20.0524695,123.398176 17.5121109,125.033068 16.4551296,125.714877 C15.3981486,126.39669 14.5024599,126.973215 14.4647106,126.996044 C14.4035484,127.033039 14.0875872,126.838418 11.5627247,125.208551 L11.5627247,125.208551 Z M16.1397888,123.874344 C21.1712979,120.641548 25.6711282,117.739228 25.6622908,117.732488 C25.656756,117.728286 24.6208629,117.062364 23.360296,116.252663 C22.0652193,115.420798 21.0474355,114.788533 21.0202697,114.798992 C20.9711441,114.81791 18.9357447,116.123174 16.0311771,117.998406 L14.4061099,119.047571 L12.187609,117.617474 C7.59547606,114.657274 7.78653333,114.775653 7.6844255,114.827284 C7.63471547,114.852422 6.59642692,115.516144 5.37711797,116.302225 C3.67961419,117.396596 3.16987671,117.740777 3.20152747,117.771219 C3.25367954,117.821373 14.378919,124.980982 14.4047011,124.980982 C14.4116988,124.980982 15.1924875,124.482997 16.1397888,123.874344 L16.1397888,123.874344 Z M16.2504047,115.815323 C24.1339788,110.742776 25.6333068,109.77268 25.6258704,109.749234 C25.6145214,109.713675 21.2350154,106.891216 21.190955,106.891085 C21.1720804,106.891085 20.5852498,107.25997 19.8868872,107.710955 C19.1885245,108.161941 17.6687604,109.140526 16.5096328,109.885583 L14.4021297,111.240237 L14.3133086,111.181532 C14.2644569,111.149245 12.7805755,110.194065 11.0157942,109.058914 C9.25101288,107.923764 7.76684053,106.966456 7.71763325,106.931562 L7.62816596,106.868121 L5.3944583,108.30481 C3.68768088,109.402586 3.17043609,109.750877 3.20180715,109.781252 C3.23861104,109.816887 5.4517762,111.243695 12.2157038,115.592427 C13.4135817,116.362581 14.4096494,116.986315 14.4291874,116.978573 C14.4487251,116.970689 15.2682731,116.447257 16.2504047,115.815323 L16.2504047,115.815323 Z M16.420812,107.899009 C17.4589187,107.230421 19.9606699,105.621786 21.9802593,104.324267 C23.9998486,103.026748 25.656756,101.96162 25.6622962,101.957322 C25.670967,101.950551 22.6133808,99.9784452 16.1350255,95.8123596 L14.4078992,94.7016854 L14.2475582,94.8026793 C14.0973591,94.8972881 13.1777949,95.4884595 6.03974574,100.079339 C4.50146041,101.068697 3.22338948,101.896895 3.19958852,101.91978 C3.16535811,101.952694 3.74945766,102.342538 5.9943127,103.785072 C7.55521194,104.788098 10.0841585,106.41644 11.6141935,107.403607 C14.0988639,109.006697 14.4034084,109.193976 14.4647106,109.15654 C14.5024599,109.133486 15.3827057,108.567597 16.420812,107.899009 L16.420812,107.899009 Z M31.8808798,109.880824 L31.8808798,109.037407 L38.2382107,109.026827 L44.5955416,109.016244 L44.8788812,108.940236 C45.2075578,108.852067 45.4396338,108.74163 45.7280216,108.536161 C46.1195886,108.257183 46.4872122,107.793779 46.6393351,107.387414 C46.8187714,106.908088 46.8090252,107.75022 46.8090252,92.7239931 C46.8090252,83.0944444 46.82035,78.6566449 46.8455117,78.4260173 C46.9569408,77.4046516 47.4049431,76.4974323 48.1505507,75.7832636 C48.6047919,75.3481755 49.0929045,75.0447048 49.6628302,74.8430374 C50.3646692,74.5946941 49.5225365,74.6171555 58.8888118,74.596943 L67.3137766,74.5787589 L66.6107742,74.0468132 C66.224125,73.7542461 65.8655235,73.4684464 65.8138824,73.4117038 C65.6172187,73.1956234 65.5611506,72.8074385 65.6864681,72.5296081 C65.8292807,72.2129919 66.076175,72.0464562 66.4386785,72.0222211 C66.6243194,72.0098126 66.6876525,72.0208435 66.8161718,72.0879834 C67.0482238,72.209207 70.4939589,74.8110155 70.5792861,74.9294392 C70.6199696,74.9859063 70.6771427,75.1005795 70.7063367,75.1842675 C70.7546043,75.3226282 70.7592475,74.8039417 70.7575419,69.4644917 C70.7565124,66.2349266 70.744388,63.6390486 70.7306026,63.6958738 C70.6943839,63.8451863 70.611277,63.9934139 70.5026824,64.1023943 C70.298836,64.306965 66.9139837,66.797744 66.7565176,66.8590498 C66.5641195,66.9339523 66.2401959,66.9227698 66.0718545,66.8354071 C65.6545047,66.6188204 65.4934695,66.1093154 65.7069797,65.680974 C65.796981,65.500418 65.8570093,65.446682 66.55879,64.9184764 L67.3137766,64.3502245 L65.9753912,64.3412805 C65.2392792,64.3363591 57.2425188,64.2951247 48.2048102,64.2496439 C39.1671017,64.2041631 31.7677485,64.1616957 31.7618047,64.1552693 C31.7558575,64.1488463 31.7592995,63.760348 31.7694301,63.2919431 L31.7878689,62.4402988 L34.0049627,62.4584484 C36.0162987,62.4749139 49.2528999,62.540504 62.2519342,62.5984175 L67.3137766,62.6209684 L67.0735536,62.4341961 C66.9414309,62.3314734 66.6120131,62.0790352 66.3415117,61.8732213 C66.0710137,61.6674107 65.8132441,61.4431407 65.768693,61.3748437 C65.4395085,60.8701946 65.7207273,60.1937613 66.315221,60.0602462 C66.5976649,59.9968155 66.8085121,60.0747487 67.2370769,60.4009804 C67.4302608,60.5480371 68.2524241,61.1734896 69.0641103,61.7908764 C70.5789979,62.9431397 70.6402204,62.9984048 70.7290961,63.2938407 C70.7443297,63.344484 70.7567286,60.7512957 70.7566497,57.5312015 C70.7566497,53.7039904 70.7450091,51.7165655 70.723317,51.7922188 C70.641775,52.0765892 70.5617396,52.1461192 68.7458628,53.5101752 C67.7694694,54.2436231 66.9023501,54.8788564 66.8189344,54.9218059 C66.5126534,55.0795079 66.0706636,54.987303 65.8335086,54.7162399 C65.6720993,54.5317509 65.6019611,54.3160907 65.6240101,54.0720627 C65.6562446,53.715321 65.7201508,53.6424814 66.55879,53.0066041 L67.3137766,52.434154 L58.7343827,52.4166174 L50.1549888,52.3990808 L49.8118131,52.3060287 C49.0047564,52.0872 48.3863914,51.7456186 47.8489507,51.2217489 C47.2496492,50.6375894 46.8770289,49.9895894 46.6449563,49.127961 L46.5521959,48.7835659 L46.5336164,34.43951 C46.5189285,23.1009695 46.5060319,20.0629811 46.4720541,19.9404763 C46.2559014,19.161093 45.754326,18.533736 45.0805587,18.200024 C44.5262441,17.9254791 45.0610767,17.9442521 37.7749234,17.943584 L31.2631635,17.9429985 L31.2631635,17.0820107 L31.2631635,16.221023 L37.8210085,16.221023 C44.2938009,16.221023 44.3833251,16.221023 44.723553,16.2915172 C45.625491,16.4759752 46.3359094,16.8547272 46.981423,17.4952849 C47.5927391,18.1019058 47.985919,18.8461023 48.1726409,19.7499707 C48.2252361,20.0045854 48.2312828,21.1648215 48.2486509,34.3362053 L48.2675222,48.6458217 L48.361017,48.9213378 C48.4982358,49.3256955 48.6773804,49.6081683 49.0053501,49.9373033 C49.3333197,50.2664383 49.6147924,50.4462194 50.0177185,50.5839258 L50.2922591,50.6777528 L58.801707,50.686769 C63.6477845,50.6919005 67.2969439,50.6828464 67.2781481,50.6657334 C67.2599941,50.6492024 66.9594477,50.4221565 66.6102663,50.1611808 C65.8308147,49.5786227 65.7976605,49.548619 65.6968457,49.3346119 C65.4344707,48.7776458 65.8575378,48.1227303 66.4728073,48.1334031 C66.5767209,48.1351939 66.7167298,48.1601075 66.7839373,48.1887439 C66.9092102,48.2421183 70.2762311,50.7548559 70.4825003,50.9489088 C70.6085522,51.0674909 70.6922253,51.2083416 70.7306026,51.366543 C70.744388,51.4233682 70.7572468,50.8554675 70.7591789,50.1045416 C70.7611007,49.3536121 70.7782045,48.5787232 70.797165,48.3825661 C70.9243459,47.0666462 71.385986,45.7630831 72.1126057,44.6680583 C72.7151297,43.7600399 73.7340562,42.7866967 74.6518558,42.242394 C76.0010822,41.4422368 77.331602,41.0878163 78.9903317,41.0867177 L79.5479923,41.0863389 L79.5479923,37.7112669 L79.5479923,34.3361949 L80.4059317,34.3361949 L81.2638711,34.3361949 L81.2638711,37.7112669 L81.2638711,41.0863389 L93.1720699,41.0863389 L105.080269,41.0863389 L105.080269,39.9038549 C105.080269,39.2534888 105.090523,37.7424553 105.103059,36.5460026 L105.125846,34.3706344 L105.979272,34.3706344 L106.832699,34.3706344 L106.808862,37.7243953 L106.785025,41.0781595 L108.034597,41.0957478 C109.404856,41.1150373 109.651202,41.1402402 110.448924,41.3427617 C112.72469,41.9205224 114.627126,43.4766889 115.670206,45.6137018 C115.941442,46.1693936 116.181294,46.8506622 116.30121,47.405989 C116.444863,48.0712329 116.472331,48.4194611 116.473034,49.584288 L116.473687,50.6949622 L119.853968,50.6949622 L123.234249,50.6949622 L123.234249,51.5559499 L123.234249,52.4169377 L119.853968,52.4169377 L116.473687,52.4169377 L116.473687,57.4106666 C116.473687,60.1572176 116.477547,62.4054839 116.482266,62.4068132 C116.503141,62.4126921 137.95977,62.608336 138.72336,62.6096103 L139.576024,62.6110223 L138.835606,62.0415168 C138.021946,61.4156751 137.932563,61.3148914 137.898921,60.985381 C137.861357,60.617419 138.035378,60.297345 138.368928,60.1209149 C138.53381,60.0336968 138.583402,60.0234442 138.770426,60.0378984 C138.888177,60.0469974 139.043807,60.0857728 139.117682,60.1244139 C139.246016,60.1915434 142.535946,62.6969661 142.739552,62.8826261 C142.793843,62.9321329 142.874767,63.0501261 142.919383,63.1448347 C143.075072,63.47533 143.001516,63.8528387 142.731107,64.1111178 C142.571805,64.263275 139.413428,66.6035982 139.123286,66.7844745 C138.586007,67.1194194 137.853059,66.7133879 137.853728,66.0811783 C137.854071,65.8266531 137.903527,65.6759596 138.039187,65.5169076 C138.103694,65.441275 138.459523,65.157032 138.829912,64.8852595 C139.200305,64.6134835 139.510046,64.3802557 139.518223,64.3669724 C139.526401,64.3536925 138.510453,64.3323366 137.260556,64.3195148 C134.66473,64.2928861 120.403536,64.1701299 118.052295,64.1541741 L116.490845,64.1435805 L116.482156,69.3697762 L116.473467,74.5959718 L119.836699,74.5959718 L123.199931,74.5959718 L123.199931,75.4569596 L123.199931,76.3179473 L119.839719,76.3179473 L116.479507,76.3179473 L116.465272,77.5835993 C116.452718,78.6996529 116.442176,78.8969535 116.376087,79.2528307 C115.900882,81.8117414 114.325815,83.9277497 112.046719,85.069075 C111.473678,85.3560422 111.029148,85.5230945 110.450952,85.6687599 C109.617255,85.8787892 109.394928,85.8994908 107.782761,85.9171996 L106.315684,85.9333173 L106.315684,89.1334193 L106.315684,92.3335214 L105.466324,92.3243123 L104.616964,92.3150997 L104.608206,89.1208352 L104.599448,85.9265706 L99.4005142,85.9265706 L94.20158,85.9265706 L94.20158,89.2499833 L94.20158,92.573396 L93.3436406,92.573396 L92.4857012,92.573396 L92.4857012,89.2499833 L92.4857012,85.9265706 L86.8747776,85.9265706 L81.263854,85.9265706 L81.263854,89.1811043 L81.263854,92.435638 L80.4059146,92.435638 L79.5479752,92.435638 L79.5479752,89.1857812 L79.5479752,85.9359278 L78.7672503,85.9166624 C78.3220416,85.9056796 77.8316709,85.8734442 77.6261909,85.8416565 C75.6506757,85.5360334 73.9002906,84.5488249 72.6168853,83.016432 C71.8672762,82.1213905 71.2887608,80.9822865 71.0039936,79.840627 C70.8030367,79.0349595 70.7905005,78.8902894 70.7719141,77.1617153 C70.7569722,75.7719089 70.748283,75.5638908 70.7104513,75.6903974 C70.6862197,75.7714336 70.624654,75.8926538 70.5736375,75.9597764 C70.4653072,76.1023112 66.9696228,78.7450924 66.7859209,78.823339 C66.3947863,78.9899401 65.8941581,78.7931183 65.6973124,78.3953523 C65.6040407,78.2068821 65.6097511,77.8296179 65.7087333,77.640607 C65.8008211,77.4647658 65.8619579,77.4115774 66.655037,76.8173202 L67.2985087,76.3351671 L59.0184396,76.3263884 C50.9574436,76.3178405 50.7314795,76.3193559 50.4779481,76.3835925 C49.6127574,76.6028103 48.9261142,77.2606221 48.6231998,78.1604611 L48.5420456,78.4015377 L48.5226596,92.7111541 C48.5077864,103.688603 48.4936304,107.067284 48.4618592,107.220516 C48.4058357,107.490729 48.195747,108.114228 48.0887482,108.327836 C47.8465794,108.811291 47.4460212,109.327598 47.0371719,109.683279 C46.5163272,110.136392 45.961635,110.420467 45.196082,110.626153 L44.9043826,110.704527 L38.3926226,110.71438 L31.8808627,110.72423 L31.8808627,109.880817 L31.8808798,109.880824 Z M109.100367,84.1686058 C112.139716,83.8607614 114.534901,81.384564 114.758474,78.3191274 C114.804322,77.6905236 114.80239,49.2482996 114.756449,48.6766381 C114.594309,46.6585035 113.563117,44.9263994 111.857976,43.8080452 C111.334074,43.4644318 110.559691,43.1298623 109.936192,42.977743 C109.209668,42.8004897 109.962723,42.8082595 93.6256212,42.8082595 C83.2087168,42.8082595 78.3425703,42.8197139 78.1138677,42.8446584 C76.1743207,43.05621 74.4456449,44.1550714 73.4091477,45.8352925 C73.0123817,46.478471 72.6936194,47.3198489 72.5596539,48.077556 C72.4979303,48.4266555 72.4957168,48.9606883 72.4957168,63.5064565 C72.4957168,78.0090891 72.4980847,78.587294 72.5591563,78.935357 C72.9088146,80.9284368 74.1827242,82.6336334 76.0040541,83.5465456 C76.6693311,83.8800062 77.5559532,84.127392 78.2782283,84.1810867 C78.3631643,84.1874029 85.2529255,84.1952758 93.5888088,84.1985854 C103.922908,84.2026871 108.858033,84.1931508 109.100353,84.1686058 L109.100367,84.1686058 Z M87.9901159,76.9144293 C86.4385394,76.7540617 85.0672434,76.2274437 83.8670377,75.3310487 C83.4477902,75.0179247 82.785358,74.3773705 82.4494541,73.960277 C81.5327459,72.8220064 80.9854286,71.579453 80.7270482,70.0499634 C80.6706163,69.7159173 80.6650466,69.270859 80.6539586,64.2124664 C80.641515,58.5343727 80.6471877,58.2409275 80.7837682,57.4948816 C81.1488661,55.5006445 82.254798,53.7170808 83.8891657,52.4867397 C84.9961134,51.6534344 86.3370521,51.118947 87.7327341,50.9547153 C88.1144176,50.9098027 88.9628408,50.9021744 93.6059813,50.9019023 C97.1272116,50.9015648 99.1579096,50.9142144 99.3884928,50.9375334 C100.945433,51.0949702 102.532209,51.7696092 103.74479,52.7896731 C104.553099,53.4696502 105.275306,54.3886134 105.745844,55.3359031 C106.104655,56.0582615 106.340039,56.7669474 106.492152,57.5828607 L106.572407,58.0133546 L106.583231,63.6614343 C106.590987,67.7095335 106.582888,69.4217075 106.554922,69.7055683 C106.32135,72.0695066 105.025254,74.2388789 103.053936,75.5654302 C101.933954,76.3190976 100.66826,76.7696835 99.3003755,76.9016901 C98.9542794,76.9350895 88.3060504,76.9470814 87.9901159,76.9144293 L87.9901159,76.9144293 Z M12.8346257,80.0944187 C11.9758284,79.5410205 8.73667821,77.4554705 5.63651423,75.4598594 C2.53635024,73.4642516 1.30406788e-05,71.8219588 1.30406788e-05,71.8103217 C1.30406788e-05,71.7921583 1.00308558,71.143745 5.43104392,68.2987763 L6.17788599,67.8189306 L3.08886939,65.830259 C1.38990986,64.7364877 1.30406788e-05,63.8320476 1.30406788e-05,63.8203898 C1.30406788e-05,63.808732 1.35119311,62.9313166 3.00243989,61.8705797 C4.65368632,60.8098428 6.00100806,59.9310946 5.99648775,59.9178044 C5.99196778,59.9045142 4.66603927,59.0427963 3.04998002,58.0028781 C1.43392077,56.9629565 0.0807218013,56.0903454 0.0428708881,56.0637374 C-0.0210469691,56.0188111 0.147911839,55.9034421 2.41492025,54.4440782 C9.84261253,49.6625759 14.1703749,46.878417 14.2830889,46.8089835 L14.4103254,46.7306026 L15.2268222,47.2550957 C15.6758955,47.5435679 18.7072205,49.4944009 21.9631005,51.5902792 C25.2189805,53.6861611 28.0962895,55.5374741 28.3571237,55.7043095 C28.6179579,55.8711482 28.8187157,56.0196445 28.8032522,56.034302 C28.7776753,56.0585439 26.3988633,57.5949697 23.804156,59.2631128 L22.7796906,59.9217443 L23.0663282,60.1065054 C23.6526405,60.4844342 26.4801685,62.3028817 27.5911829,63.0165441 C28.2234842,63.422703 28.7605646,63.7736967 28.7846932,63.7965301 C28.8195942,63.8295576 28.7644493,63.8786029 28.5149434,64.0364358 C27.6186472,64.6034134 22.7293536,67.7554517 22.6937731,67.7892368 C22.662098,67.8193163 22.8606595,67.962471 23.5345537,68.3954032 C26.7490296,70.4604892 28.7469165,71.7509824 28.7846932,71.7866204 C28.8195565,71.8195136 28.7631899,71.869351 28.5101526,72.0293673 C28.2477296,72.1953141 23.1990342,75.4437313 15.940366,80.11698 C15.2042543,80.5909021 14.5556521,81.006091 14.4990281,81.0396248 L14.3960754,81.1005965 L12.8346257,80.0944187 Z M20.0523596,75.4258779 C23.1228561,73.4483096 25.6347894,71.8210427 25.6347894,71.8097293 C25.6344462,71.79273 21.5938983,69.1760952 21.173405,68.9206402 L21.0434993,68.8417186 L18.6978381,70.3526694 C17.4077237,71.1836914 15.9133443,72.1452873 15.3769911,72.4895515 L14.4018047,73.1154861 L14.3131463,73.0568253 C14.2217359,72.9963427 9.68416589,70.0756449 8.4527871,69.2846865 L7.76008786,68.8397418 L5.5014756,70.2920215 C4.25923873,71.090777 3.22407034,71.7621856 3.20110124,71.7840409 C3.16901843,71.8145715 3.45109929,72.0113382 4.41817303,72.6330162 C5.11053149,73.0780986 7.63107574,74.7013016 10.0193824,76.2401381 C12.407689,77.7789746 14.3860306,79.0342948 14.4156975,79.0297508 C14.445364,79.0251821 16.9818632,77.4034462 20.0523596,75.4258779 L20.0523596,75.4258779 Z M17.072846,69.3547468 C18.4695713,68.4554829 20.9713225,66.8468616 22.6322932,65.7800324 C24.2932639,64.7132031 25.6566222,63.8370172 25.6620073,63.8329568 C25.6756719,63.8225664 21.2213398,60.9579327 21.1914869,60.9579327 C21.1668023,60.9579327 19.8973609,61.770774 16.3907979,64.0318897 C15.3361814,64.7119323 14.4536943,65.2758827 14.4297142,65.2851194 C14.4057341,65.2943526 13.1992513,64.536556 11.7486416,63.6011272 C8.15967382,61.2867715 7.71121724,60.9995391 7.64983064,60.9758998 C7.61605048,60.962892 6.80556166,61.4642349 5.41981349,62.3553193 C4.22249078,63.1252421 3.22443582,63.7728289 3.20191354,63.7944052 C3.17083554,63.8241747 3.98988694,64.3670688 6.59935352,66.0463428 C8.4904678,67.2633317 11.018368,68.8923171 12.2169093,69.6663107 C14.1615906,70.922144 14.4034609,71.0690595 14.4647106,71.0316719 C14.5024599,71.0086285 15.676121,70.254014 17.072846,69.3547468 Z M16.616055,61.8447501 C17.831683,61.0634037 20.3573743,59.4400113 22.2287048,58.2372114 C24.1000353,57.0344115 25.6272635,56.0359964 25.6225558,56.0185149 C25.6178262,56.0010299 24.1477779,55.0425026 22.3557725,53.8884484 C20.563767,52.7343976 18.04194,51.1098928 16.7517124,50.278437 L14.4058422,48.7666975 L11.2609006,50.7924363 C9.53118294,51.9065924 6.99911381,53.5370586 5.63408077,54.4156966 C3.40384433,55.8512387 3.15853853,56.0178915 3.21469169,56.0593291 C3.24906074,56.0846938 4.89868635,57.1492122 6.88052634,58.4249274 C8.86236633,59.7006426 11.3641176,61.3111891 12.4399736,62.0039192 C13.5158296,62.6966527 14.3982686,63.2638714 14.4009495,63.2644056 C14.4036297,63.2649563 15.4004276,62.6260965 16.616055,61.8447501 L16.616055,61.8447501 Z M92.7602589,37.6940437 L92.7602589,34.3361915 L93.6181983,34.3361915 L94.4761377,34.3361915 L94.4761377,37.6940437 L94.4761377,41.0518959 L93.6181983,41.0518959 L92.7602589,41.0518959 L92.7602589,37.6940437 Z M11.2388584,32.319586 C9.52126379,31.2120871 6.28995999,29.1321783 4.05818338,27.6975661 C1.82640643,26.2629573 8.16758299e-05,25.0796433 8.16758299e-05,25.0679855 C8.16758299e-05,25.0563278 1.38976641,24.1519807 3.08854989,23.058323 L6.17724734,21.0698546 L5.07038988,20.357649 C4.4616184,19.965934 3.07182282,19.0725387 1.98195598,18.3723283 C0.89208881,17.672118 8.16758299e-05,17.0896494 8.16758299e-05,17.0779538 C8.16758299e-05,17.0662581 1.35699759,16.1830672 3.01573074,15.1153046 L6.03160904,13.1739185 L5.92414527,13.1024668 C5.86504011,13.0631713 4.50789496,12.1891138 2.90826697,11.1601232 C1.30863897,10.1311292 8.16758299e-05,9.27972942 8.16758299e-05,9.26811641 C8.16758299e-05,9.25650686 1.49430941,8.2868039 3.32030712,7.1132225 C5.98164677,5.40276357 12.5360995,1.18310738 14.0562542,0.201584784 C14.2279714,0.0907136694 14.3845859,0 14.4042869,0 C14.4239876,0 15.1405736,0.451767161 15.9966983,1.00392894 C16.8528257,1.55609071 19.4141626,3.20423135 21.6885599,4.66646406 C28.3326759,8.93802404 28.7385944,9.19986764 28.7846932,9.24392955 C28.8197143,9.27740475 28.7650773,9.32601956 28.5137594,9.48499923 C27.9152163,9.86362376 22.838106,13.130845 22.8118016,13.1543224 C22.7972818,13.1672785 24.0244817,13.9749436 25.5389095,14.9491306 C27.0533338,15.9233175 28.4134903,16.7991143 28.5614746,16.8953417 C28.7674555,17.0292804 28.8200198,17.0787734 28.7856782,17.1064421 C28.7462095,17.1382401 26.1007397,18.8443425 23.5345537,20.4929652 C22.8606595,20.9259043 22.662098,21.069059 22.6937731,21.0991385 C22.716584,21.1207975 23.9706787,21.9325815 25.480652,22.9031007 C26.9906253,23.8736199 28.3638465,24.7571621 28.5322566,24.8665213 L28.8384586,25.0653612 L28.497939,25.2859325 C28.143586,25.515465 27.4941019,25.9335916 25.154635,27.4382882 C24.390211,27.9299467 21.6737175,29.6774419 19.1179813,31.3216116 C16.562245,32.9657779 14.4465668,34.3159996 14.4164731,34.3221401 C14.3863797,34.3282187 12.9564531,33.4270814 11.2388584,32.319586 L11.2388584,32.319586 Z M16.1388382,31.196455 C17.0866622,30.5871615 19.4913771,29.0401732 21.4826544,27.7587031 C23.4739317,26.4772331 25.231225,25.3465598 25.3877509,25.2460963 C25.5442768,25.1456328 25.66782,25.0599921 25.66247,25.0557802 C25.6567629,25.0515717 24.6208629,24.3856424 23.360296,23.575942 C21.9969788,22.7002451 21.0480772,22.1115637 21.0183136,22.1230251 C20.9666348,22.1429277 19.3106676,23.2048976 16.2206445,25.1997752 C15.2423197,25.8313683 14.4312972,26.3515736 14.4183739,26.3557856 C14.4054506,26.3599975 12.9073937,25.4045973 11.089358,24.2326724 C8.19754738,22.3685788 7.77455718,22.1062841 7.70967603,22.1369318 C7.57935641,22.1984856 3.2082417,25.0189815 3.19089485,25.0527082 C3.18172828,25.0705306 3.38270745,25.2194953 3.63751545,25.3837442 C8.71760245,28.6583389 14.389403,32.3042604 14.4034595,32.3042604 C14.4100979,32.3042604 15.191019,31.8057485 16.1388382,31.196455 L16.1388382,31.196455 Z M17.0556872,22.6205934 C24.4497692,17.8628336 25.6343604,17.0974947 25.634707,17.0778677 C25.6351875,17.0506054 21.2086869,14.2042797 21.1781923,14.2122421 C21.1656698,14.2155139 20.5843095,14.5862897 19.8862797,15.0361971 C19.1882499,15.4861045 17.6687604,16.4638043 16.5096328,17.2088618 L14.4021297,18.5635158 L14.3133086,18.5047482 C14.2644569,18.4724233 13.0894337,17.715684 11.7021457,16.8231014 C10.3148577,15.9305188 8.82905392,14.9740923 8.40035911,14.6977084 L7.62091431,14.1951877 L5.3901734,15.6299377 C3.68087433,16.7293123 3.16918349,17.0739381 3.20114791,17.1042518 C3.2402624,17.14135 4.5706244,17.9990936 11.5637807,22.4960119 C13.1203384,23.4969481 14.4098213,24.309569 14.4292982,24.3018886 C14.4487748,24.2940987 15.6306502,23.5375385 17.0556872,22.6205934 L17.0556872,22.6205934 Z M17.313069,14.647778 C18.841917,13.6632419 21.3398075,12.0553852 22.8639368,11.0747615 C24.3880662,10.0941377 25.6348305,9.28173035 25.6348305,9.2694079 C25.6348305,9.25708888 24.2872995,8.37980436 22.6406221,7.31988711 C20.9939447,6.2599733 18.4807245,4.64174683 17.0556872,3.72382712 C15.6306502,2.80591086 14.4412452,2.05414802 14.4125653,2.0532484 C14.3838858,2.05235372 13.1175673,2.85083032 11.5985241,3.82765191 C4.54460825,8.36368667 3.24006199,9.20478904 3.20123336,9.24178397 C3.1693242,9.27218372 3.96265286,9.79816803 6.59867335,11.4943139 C8.49016168,12.711389 11.018368,14.3404294 12.2169093,15.1144023 C14.1615371,16.3701736 14.4034626,16.5171201 14.4647106,16.479736 C14.5024599,16.456696 15.784221,15.632314 17.313069,14.647778 L17.313069,14.647778 Z" id="Shape" fill-rule="nonzero"></path>
                    <path d="M17.313069,14.647778 C18.841917,13.6632419 21.3398075,12.0553852 22.8639368,11.0747615 C24.3880662,10.0941377 25.6348305,9.28173035 25.6348305,9.2694079 C25.6348305,9.25708888 24.2872995,8.37980436 22.6406221,7.31988711 C20.9939447,6.2599733 18.4807245,4.64174683 17.0556872,3.72382712 C15.6306502,2.80591086 14.4412452,2.05414802 14.4125653,2.0532484 C14.3838858,2.05235372 13.1175673,2.85083032 11.5985241,3.82765191 C4.54460825,8.36368667 3.24006199,9.20478904 3.20123336,9.24178397 C3.1693242,9.27218372 3.96265286,9.79816803 6.59867335,11.4943139 C8.49016168,12.711389 11.018368,14.3404294 12.2169093,15.1144023 C14.1615371,16.3701736 14.4034626,16.5171201 14.4647106,16.479736 C14.5024599,16.456696 15.784221,15.632314 17.313069,14.647778 L17.313069,14.647778 Z" id="Path"></path>
                    <path d="M17.313069,61.647778 C18.841917,60.6632419 21.3398075,59.0553852 22.8639368,58.0747615 C24.3880662,57.0941377 25.6348305,56.2817304 25.6348305,56.2694079 C25.6348305,56.2570889 24.2872995,55.3798044 22.6406221,54.3198871 C20.9939447,53.2599733 18.4807245,51.6417468 17.0556872,50.7238271 C15.6306502,49.8059109 14.4412452,49.054148 14.4125653,49.0532484 C14.3838858,49.0523537 13.1175673,49.8508303 11.5985241,50.8276519 C4.54460825,55.3636867 3.24006199,56.204789 3.20123336,56.241784 C3.1693242,56.2721837 3.96265286,56.798168 6.59867335,58.4943139 C8.49016168,59.711389 11.018368,61.3404294 12.2169093,62.1144023 C14.1615371,63.3701736 14.4034626,63.5171201 14.4647106,63.479736 C14.5024599,63.456696 15.784221,62.632314 17.313069,61.647778 L17.313069,61.647778 Z" id="Path-Copy"></path>
                    <path d="M17.313069,107.647778 C18.841917,106.663242 21.3398075,105.055385 22.8639368,104.074761 C24.3880662,103.094138 25.6348305,102.28173 25.6348305,102.269408 C25.6348305,102.257089 24.2872995,101.379804 22.6406221,100.319887 C20.9939447,99.2599733 18.4807245,97.6417468 17.0556872,96.7238271 C15.6306502,95.8059109 14.4412452,95.054148 14.4125653,95.0532484 C14.3838858,95.0523537 13.1175673,95.8508303 11.5985241,96.8276519 C4.54460825,101.363687 3.24006199,102.204789 3.20123336,102.241784 C3.1693242,102.272184 3.96265286,102.798168 6.59867335,104.494314 C8.49016168,105.711389 11.018368,107.340429 12.2169093,108.114402 C14.1615371,109.370174 14.4034626,109.51712 14.4647106,109.479736 C14.5024599,109.456696 15.784221,108.632314 17.313069,107.647778 L17.313069,107.647778 Z" id="Path-Copy-2"></path>
                </g>
            </g>
        </g>
    </g>
</svg>