<?xml version="1.0" encoding="UTF-8"?>
<svg width="119px" height="128px" viewBox="0 0 119 128" version="1.1" xmlns="http://www.w3.org/2000/svg" xmlns:xlink="http://www.w3.org/1999/xlink">
    <title>02_About_ICON3_OurPractices</title>
    <g id="Page-1" stroke="none" stroke-width="1" fill="none" fill-rule="evenodd">
        <g id="02-About-Dark" transform="translate(-151.000000, -1133.000000)">
            <g id="Group-2-Copy-2" transform="translate(88.000000, 1101.000000)">
                <g id="02_About_ICON3_OurPractices" transform="translate(64.000000, 33.000000)">
                    <path d="M64.2000827,103.62987 C61.4201587,95.8636364 55.4391103,89.9545455 48.1102199,87 C44.0666942,89.7012987 39.1807673,91.3051948 33.9578799,91.3051948 C28.7349926,91.3051948 23.8490657,89.7012987 19.7212998,87 C12.3924095,89.9545455 6.41136102,95.8636364 3.71567722,103.62987 C1.69391436,109.201299 0.514552694,115.025974 0.00911197969,121.019481 C-0.159368258,123.720779 2.03087484,126 4.72655864,126 L63.2734414,126 C65.9691252,126 68.1593683,123.720779 67.990888,121.019481 C67.4854473,115.11039 66.2218455,109.285714 64.2000827,103.62987 Z" id="Path" stroke="#FFFFFF" fill="#FFFFFF" fill-rule="nonzero"></path>
                    <path d="M34.5,85 C45.2586207,85 54,76.2586207 54,65.5 C54,54.7413793 45.2586207,46 34.5,46 C23.7413793,46 15,54.7413793 15,65.5 C15,76.2586207 23.7413793,85 34.5,85 Z" id="Path" stroke="#FFFFFF" fill="#FFFFFF" fill-rule="nonzero"></path>
                    <path d="M110.362276,0 L60.6377134,0 C56.8752604,0.107913032 53.908196,3.27557937 54.0021721,7.08333259 L54.0021721,35.416663 C53.908196,39.2244162 56.8752604,42.3920825 60.6377134,42.5 L101.431137,42.5 C101.746906,42.5051695 102.046364,42.644126 102.256958,42.8826187 L109.340712,50.5466614 C109.60438,50.8344295 109.974685,50.9987628 110.362519,51 C110.540003,51 110.715538,50.9667338 110.880362,50.9009512 C111.413299,50.6861107 111.762909,50.1640382 111.762422,49.5833282 L111.762422,43.3073723 C111.770457,42.75401 112.115928,42.2632275 112.630119,42.0749956 C115.302595,40.9778798 117.036527,38.3345032 116.997817,35.416663 L116.997817,7.08333259 C117.092037,3.27557937 114.124729,0.107913032 110.362276,0 Z" id="Path" stroke="#FFFFFF" fill="#FFFFFF" transform="translate(85.500000, 25.500000) scale(-1, 1) translate(-85.500000, -25.500000) "></path>
                    <g id="Group" transform="translate(71.000000, 6.000000)" fill="#009CC5" fill-rule="nonzero">
                        <polygon id="Path" points="17.16 11.94 15 6 12.84 11.94 6 11.94 11.58 16.44 9.42 24 15 19.68 20.58 24 18.42 16.44 24 11.94"></polygon>
                        <path d="M15,0 C6.75,0 0,6.75 0,15 C0,23.25 6.75,30 15,30 C23.25,30 30,23.25 30,15 C30,6.75 23.25,0 15,0 Z M15,27 C8.4,27 3,21.6 3,15 C3,8.4 8.4,3 15,3 C21.6,3 27,8.4 27,15 C27,21.6 21.6,27 15,27 Z" id="Shape"></path>
                    </g>
                </g>
            </g>
        </g>
    </g>
</svg>