<?xml version="1.0" encoding="UTF-8"?>
<svg width="129px" height="90px" viewBox="0 0 129 90" version="1.1" xmlns="http://www.w3.org/2000/svg" xmlns:xlink="http://www.w3.org/1999/xlink">
    <title>02_About_ICON2_OurPeople</title>
    <g id="Page-1" stroke="none" stroke-width="1" fill="none" fill-rule="evenodd">
        <g id="02-About-Dark" transform="translate(-787.000000, -743.000000)" fill="#FFFFFF" fill-rule="nonzero">
            <g id="Group-2-Copy" transform="translate(720.000000, 648.000000)">
                <g id="02_About_ICON2_OurPeople" transform="translate(67.000000, 95.000000)">
                    <path d="M25.5,45 C31.5283488,45 38,36.6676301 38,28.1075997 C38,19.5461006 32.4050712,14 25.5,14 C18.5977524,14 13,19.5461006 13,28.1075997 C13.0014118,36.6676301 19.2754122,45 25.5,45 Z" id="Path"></path>
                    <path d="M104.5,45 C110.528349,45 117,36.6676301 117,28.1075997 C117,19.5461006 111.403659,14 104.5,14 C97.5963406,14 92,19.5461006 92,28.1075997 C92,36.6676301 98.2754122,45 104.5,45 Z" id="Path"></path>
                    <path d="M65.5,47 C74.903145,47 85,34.3653103 85,21.387926 C85,8.4090895 76.2704574,0 65.5,0 C54.7309789,0 46,8.4090895 46,21.387926 C46,34.3653103 55.7894969,47 65.5,47 Z" id="Path"></path>
                    <path d="M100.3961,70.0066647 C98.038401,65.3134681 96.3200535,62.9488356 93.1189846,59.6074758 C90.3518129,56.7191328 82.0934002,52.649195 76.7630746,54.4396214 C72.5117449,55.3745096 72.3106006,57.8329194 65.5004272,57.8329194 C58.6902539,57.8329194 58.4876728,55.3745096 54.2349063,54.4396214 C48.9045807,52.649195 40.6476047,56.7191328 37.8789963,59.6074758 C34.6764907,62.9488356 32.9595799,65.3149108 30.6033174,70.0066647 C29.4208759,72.3597554 26.9568575,79.2228161 28.4855547,82.1760819 C30.419414,85.9127494 35.1276288,87.4593546 48.0683949,89.047799 C55.8196365,90 65.5004272,90 65.5004272,90 C65.5004272,90 75.1783444,90 82.9310228,89.047799 C95.8717889,87.4593546 100.57713,85.9127494 102.513863,82.1760819 C104.043997,79.2228161 101.578542,72.3597554 100.3961,70.0066647 Z" id="Path"></path>
                    <path d="M127.302108,58.676862 C125.768619,55.5456516 124.64722,53.9711928 122.560929,51.7400948 C120.7575,49.812969 115.375931,47.0993517 111.902608,48.2931072 C109.128544,48.9172835 109.000754,50.5566684 104.562539,50.5566684 C100.124324,50.5566684 99.9936617,48.9172835 97.2224697,48.2931072 C94.4297399,47.3339712 90.4093576,48.8995764 88,50.550766 C91.3139436,51.9540559 94.2588736,53.9018399 96.0120474,55.7743687 C99.6533651,59.6640344 101.619045,62.5370159 104.104503,67.5983032 C104.585513,68.5795732 105.234517,70.1658367 105.816037,72 C107.903764,71.9660613 112.240033,71.8406359 115.920119,71.3772993 C124.354306,70.3178229 127.422719,69.2863827 128.683396,66.7941045 C129.679877,64.8241865 128.074596,60.2454184 127.302108,58.676862 Z" id="Path"></path>
                    <path d="M25.2266919,67.5917383 C27.7008802,62.529909 29.6587784,59.6589327 33.285681,55.7699843 C34.984719,53.9494372 37.807868,52.0565992 41,50.6638954 C38.623063,48.9717012 34.4970322,47.3119642 31.6510005,48.2930532 C28.8907789,48.9171143 28.7606337,50.5561969 24.3414187,50.5561969 C19.9193434,50.5561969 19.7891982,48.9171143 17.0304068,48.2930532 C13.5694034,47.0995178 8.21056896,49.8126347 6.41284946,51.739405 C4.3348173,53.9686163 3.22071748,55.5442601 1.68900898,58.674893 C0.922439651,60.2431602 -0.676486677,64.8210839 0.31461882,66.7891632 C1.57030515,69.2824572 4.62514114,70.3122318 13.0245099,71.3715129 C16.9546079,71.867221 21.6326831,71.9763949 23.5004807,72 C24.2885026,69.5465398 25.1423121,67.7658263 25.2266919,67.5917383 Z" id="Path"></path>
                </g>
            </g>
        </g>
    </g>
</svg>