<?xml version="1.0" encoding="UTF-8"?>
<svg width="111px" height="112px" viewBox="0 0 111 112" version="1.1" xmlns="http://www.w3.org/2000/svg" xmlns:xlink="http://www.w3.org/1999/xlink">
    <title>04_MutualFunds_ICON</title>
    <g id="Page-1" stroke="none" stroke-width="1" fill="none" fill-rule="evenodd">
        <g id="05-Our-Products-Dark" transform="translate(-754.000000, -1386.000000)">
            <g id="Group-5-Copy-3" transform="translate(715.000000, 1357.000000)">
                <g id="DashB_MF" transform="translate(39.500000, 30.000000)">
                    <rect id="Rectangle-Copy-12" stroke-opacity="0.3" stroke="#FFFFFF" fill="#007290" x="0" y="0" width="110" height="110" rx="15"></rect>
                    <g id="Group-8" transform="translate(22.000000, 18.526316)">
                        <path d="M31.2631225,69.824143 C22.9909983,69.824143 15.0573694,66.5299788 9.20858181,60.6677298 C3.35979418,54.8050978 0.07379102,46.8530727 0.07379102,38.5609851 C0.07379102,30.2688975 3.36017623,22.3168724 9.20858181,16.4542404 C15.0585156,10.5916085 22.9906162,7.2978272 31.2631225,7.2978272 C39.5356288,7.2978272 47.4688755,10.5919914 53.3176632,16.4557722 C59.1664508,22.3184042 62.452454,30.2704293 62.452454,38.5625169 C62.4417566,46.8515409 59.152697,54.7978272 53.3058196,60.6570071 C47.4600884,66.5181072 39.5325724,69.8149521 31.2635045,69.824143 L31.2631225,69.824143 Z" id="Path" fill="#009CC5"></path>
                        <path d="M45.4730908,28.1404631 C45.4730908,23.0512067 42.7643569,18.3484828 38.367445,15.8032577 C33.9700037,13.2585632 28.552536,13.2585632 24.1561533,15.8032577 C19.759109,18.3484828 17.0499782,23.0512067 17.0499782,28.1404631 C17.0499782,35.7039785 23.0131891,41.9091917 30.3944856,42.358864 L30.3944856,48.7465991 C28.947022,46.8139365 27.0324214,45.3412927 24.7071899,44.5837473 L24.7077193,44.5837473 C21.1233348,43.4143339 17.193163,44.1121883 14.2275699,46.4442501 C13.9495373,46.6629845 13.8310988,47.0282936 13.9282316,47.3693283 C14.8773272,50.7169333 17.3084255,53.4429559 20.5221439,54.7617295 C23.7358622,56.0803704 27.3755621,55.8461164 30.3948826,54.1264844 L30.3948826,62.8137828 C30.3948826,63.2946271 30.783546,63.6842105 31.2633872,63.6842105 C31.743096,63.6842105 32.1317594,63.2946271 32.1317594,62.8137828 L32.1317594,54.1305964 C35.1522709,55.8461164 38.7907797,56.0777175 42.0030425,54.7590766 C45.2158345,53.439905 47.6469327,50.7160048 48.5980134,47.3697262 C48.6952785,47.0288242 48.57684,46.6635151 48.2986751,46.4447807 C45.3320233,44.1120556 41.4007928,43.4145992 37.815482,44.5841453 C35.4944853,45.3395683 33.5792229,46.8087633 32.1317594,48.7373138 L32.1317594,42.3587314 C39.5135852,41.9048143 45.4737524,35.7014582 45.4737524,28.1403304 L45.4730908,28.1404631 Z" id="Fill-1" fill="#FFFFFF"></path>
                        <path d="M31.2631579,16.2105263 C28.1919338,16.2100193 25.2467902,17.430119 23.0755369,19.6014199 C20.9041145,21.7728897 19.6842105,24.7179289 19.6842105,27.7892202 C19.6842105,30.8605115 20.9036075,33.8057196 23.0755369,35.9770205 C25.2469592,38.1484904 28.1919338,39.3684211 31.2624819,39.3684211 C34.3337059,39.3684211 37.2788496,38.1489974 39.4502719,35.9776965 C41.6222013,33.8062266 42.8414292,30.8611875 42.8421053,27.7898962 C42.8387251,24.719957 41.617469,21.776777 39.4467227,19.6059832 C37.2759764,17.4345133 34.3328609,16.2139066 31.2629889,16.2105263 L31.2631579,16.2105263 Z" id="Fill-3" fill="#009CC5"></path>
                        <g id="$" transform="translate(27.190842, 20.229579)" fill="#FFFFFF" fill-rule="nonzero">
                            <path d="M3.19347368,13.4223158 C2.56126316,13.3358596 1.96822807,13.1629474 1.41436842,12.9035789 C0.860508772,12.6442105 0.389052632,12.3227018 0,11.9390526 L0.616,11.0231579 C0.670035088,10.9421053 0.741631579,10.8759123 0.830789474,10.8245789 C0.919947368,10.7732456 1.01315789,10.7475789 1.11042105,10.7475789 C1.22929825,10.7475789 1.3562807,10.7894561 1.49136842,10.8732105 C1.62645614,10.9569649 1.78045614,11.0555789 1.95336842,11.1690526 C2.1262807,11.2825263 2.32350877,11.396 2.54505263,11.5094737 C2.76659649,11.6229474 3.02866667,11.7067018 3.33126316,11.7607368 L3.63926316,8.12957895 C3.25561404,8.02150877 2.87601754,7.89452632 2.50047368,7.74863158 C2.12492982,7.60273684 1.78721053,7.4095614 1.48731579,7.16910526 C1.18742105,6.92864912 0.945614035,6.62470175 0.761894737,6.25726316 C0.578175439,5.88982456 0.486315789,5.43052632 0.486315789,4.87936842 C0.486315789,4.46870175 0.568719298,4.06749123 0.733526316,3.67573684 C0.898333333,3.28398246 1.1374386,2.93410526 1.45084211,2.62610526 C1.76424561,2.31810526 2.15059649,2.06414035 2.60989474,1.86421053 C3.06919298,1.6642807 3.59603509,1.55080702 4.19042105,1.52378947 L4.27957895,0.502526316 C4.29038596,0.372842105 4.34442105,0.256666667 4.44168421,0.154 C4.53894737,0.0513333333 4.66592982,0 4.82263158,0 L5.56021053,0 L5.42242105,1.59673684 C5.99519298,1.68859649 6.48961404,1.85070175 6.90568421,2.08305263 C7.32175439,2.31540351 7.68378947,2.57747368 7.99178947,2.86926316 L7.50547368,3.60684211 C7.42982456,3.71491228 7.35417544,3.79596491 7.27852632,3.85 C7.20287719,3.90403509 7.11101754,3.93105263 7.00294737,3.93105263 C6.92189474,3.93105263 6.82598246,3.90538596 6.71521053,3.85405263 C6.6044386,3.8027193 6.47745614,3.74057895 6.33426316,3.66763158 C6.19107018,3.59468421 6.03301754,3.52038596 5.86010526,3.44473684 C5.68719298,3.36908772 5.49536842,3.30694737 5.28463158,3.25831579 L5.00094737,6.61389474 C5.39,6.73277193 5.775,6.86380702 6.15594737,7.007 C6.53689474,7.15019298 6.88001754,7.33526316 7.18531579,7.56221053 C7.49061404,7.78915789 7.73782456,8.07149123 7.92694737,8.40921053 C8.11607018,8.74692982 8.21063158,9.16975439 8.21063158,9.67768421 C8.21063158,10.1802105 8.12687719,10.6516667 7.95936842,11.0920526 C7.79185965,11.5324386 7.54735088,11.9214912 7.22584211,12.2592105 C6.90433333,12.5969298 6.50852632,12.8711579 6.03842105,13.0818947 C5.56831579,13.2926316 5.03066667,13.419614 4.42547368,13.4628421 L4.32821053,14.6543158 C4.31740351,14.7785965 4.26336842,14.8934211 4.16610526,14.9987895 C4.06884211,15.1041579 3.94185965,15.1568421 3.78515789,15.1568421 L3.04757895,15.1568421 L3.19347368,13.4223158 Z M6.314,9.98568421 C6.314,9.78035088 6.27752632,9.60068421 6.20457895,9.44668421 C6.13163158,9.29268421 6.02896491,9.15624561 5.89657895,9.03736842 C5.76419298,8.91849123 5.60884211,8.81582456 5.43052632,8.72936842 C5.25221053,8.64291228 5.05768421,8.5645614 4.84694737,8.49431579 L4.57136842,11.7850526 C5.14414035,11.7094035 5.57777193,11.5162281 5.87226316,11.2055263 C6.16675439,10.8948246 6.314,10.4882105 6.314,9.98568421 Z M2.37484211,4.68484211 C2.37484211,4.89017544 2.40996491,5.07119298 2.48021053,5.22789474 C2.55045614,5.38459649 2.64907018,5.52373684 2.77605263,5.64531579 C2.90303509,5.76689474 3.05298246,5.87496491 3.22589474,5.96952632 C3.39880702,6.06408772 3.58792982,6.14919298 3.79326316,6.22484211 L4.04452632,3.22589474 C3.74733333,3.2637193 3.49336842,3.32721053 3.28263158,3.41636842 C3.07189474,3.50552632 2.89898246,3.61494737 2.76389474,3.74463158 C2.62880702,3.87431579 2.53019298,4.01885965 2.46805263,4.17826316 C2.40591228,4.33766667 2.37484211,4.50652632 2.37484211,4.68484211 Z" id="Shape"></path>
                        </g>
                        <g id="Group-7" fill="#FFFFFF">
                            <path d="M34.3759789,4.94698311 L38.1475366,1.50962536 C38.4981434,1.18312487 38.520023,0.636432572 38.1959652,0.283487808 C37.871774,-0.0694569548 37.3225167,-0.0964327782 36.9655062,0.222758984 L31.5836654,5.12757495 C31.41063,5.28531043 31.3085698,5.50550225 31.2996312,5.73911554 C31.2913596,5.97219728 31.3768767,6.19943205 31.537905,6.36926014 L36.5575322,11.6696772 C36.8894613,12.0200972 37.443388,12.0361763 37.7951955,11.7059551 C38.147003,11.3753351 38.1631458,10.8235931 37.831617,10.4731732 L34.2489707,6.69004654 C50.2143868,7.62755606 62.971244,20.8025216 63.0899807,36.9601096 C63.2124529,53.8033885 49.5539973,67.6062396 32.6440241,67.7299564 C15.7393873,67.8508825 1.87641112,54.2473601 1.75233794,37.4039483 C1.71484917,32.4014613 2.91142156,27.4666131 5.23719326,23.0323459 C7.56309838,18.5983444 10.9468274,14.8012647 15.0908715,11.9747831 C15.4864381,11.7013041 15.5859635,11.1608574 15.3134027,10.7653892 C15.040842,10.369788 14.4989224,10.2675988 14.1001538,10.5369584 C8.38851853,14.4337025 4.07931036,20.0497234 1.8029011,26.5616606 C-0.473508161,33.0735978 -0.597447925,40.1412635 1.44949266,46.7284141 C3.49656667,53.3160962 7.60725776,59.0780258 13.1788104,63.1703778 C18.7508968,67.2628627 25.4918058,69.4720896 32.4141552,69.4736842 C32.4943358,69.4736842 32.5746498,69.4736842 32.6554975,69.4726211 L32.6558978,69.4726211 C39.0676793,69.4263769 45.3223015,67.4875726 50.6278307,63.9007183 C55.93376,60.313864 60.0523224,55.2408146 62.4629442,49.3218139 C64.8743664,43.4037435 65.4689838,36.9062909 64.1723524,30.6513549 C62.875721,24.3964189 59.7462753,18.6646544 55.1795819,14.1814852 C49.6085629,8.67868297 42.2099326,5.39387815 34.376646,4.94592002 L34.3759789,4.94698311 Z" id="Fill-5"></path>
                        </g>
                    </g>
                </g>
            </g>
        </g>
    </g>
</svg>