<svg width="90" height="98" viewBox="0 0 90 98" fill="none" xmlns="http://www.w3.org/2000/svg">
<g id="Group">
<path id="Path" d="M53.624 51.3274C57.0878 42.8556 59.1474 34.0114 59.6155 25.3534C59.8339 21.0088 59.7091 16.6953 59.085 12.5681C58.929 11.4199 58.7105 10.3027 58.4921 9.18553C49.8169 4.90307 44.9175 -3.05176e-05 44.9175 -3.05176e-05C44.9175 -3.05176e-05 40.0806 4.87204 31.499 9.1545C32.1231 10.6751 32.6848 12.2267 33.1841 13.7473C34.4948 17.6884 35.4622 21.6295 36.1799 25.6016C36.8976 29.5738 37.3657 33.5149 37.5842 37.456C37.8026 41.3971 37.8026 45.3071 37.5842 49.1862C37.3969 53.0652 36.9288 56.8822 36.3671 60.6681C35.743 64.4541 35.0253 68.1779 34.0579 71.8087C32.56 77.7359 30.6565 83.5389 28.4096 89.1247C28.5033 89.1868 28.5969 89.2489 28.6905 89.3109C32.716 84.9354 36.492 80.3736 39.9246 75.6257C45.4792 67.9297 50.2537 59.8302 53.624 51.3274Z" fill="#009CC5"/>
<path id="Path_2" d="M89.6667 15.1747C85.1419 15.5471 80.8979 15.392 76.9659 14.8334C76.6227 19.2089 75.9362 23.4604 74.9376 27.6187C72.4723 37.8904 68.2595 47.4173 62.8297 55.9512C61.519 58.1234 60.0524 60.1716 58.6169 62.2197C57.8992 63.2438 57.0878 64.2058 56.3389 65.1988L55.1843 66.6884C54.8098 67.1849 54.3729 67.6504 53.9984 68.1158L51.5956 70.9398C50.7842 71.8708 49.9105 72.7707 49.0679 73.6706C47.414 75.5015 45.6353 77.2083 43.8877 78.9151C39.6125 83.0424 35.0877 86.8594 30.4068 90.4281C34.6508 93.3451 39.4565 95.9208 44.9175 98C96.8129 78.2944 89.6667 15.1747 89.6667 15.1747Z" fill="#009CC5"/>
<path id="Path_3" d="M28.6281 60.2957C28.3161 56.727 27.9104 53.1894 27.2551 49.7448C26.5997 46.2691 25.8196 42.8866 24.821 39.5662C23.8224 36.2457 22.6366 33.0184 21.2635 29.9462C19.8905 26.8429 18.3614 23.8638 16.6451 21.1019C15.8025 19.7055 14.8975 18.3711 13.9614 17.1298C13.4933 16.5092 13.0252 15.9196 12.5571 15.361C12.4635 15.2368 12.3387 15.1127 12.245 14.9886C8.53154 15.4541 4.5684 15.5472 0.355605 15.2058C0.355605 15.2058 -5.19904 63.0266 27.5983 88.442C28.4409 82.67 28.909 76.867 29.0026 71.095C29.0338 67.4952 28.8778 63.8645 28.6281 60.2957Z" fill="#009CC5"/>
</g>
</svg>
