<?xml version="1.0" encoding="UTF-8"?>
<svg width="1400px" height="400px" viewBox="0 0 1400 400" version="1.1" xmlns="http://www.w3.org/2000/svg" xmlns:xlink="http://www.w3.org/1999/xlink">
    <title>07 ContactUs_Banner</title>
    <defs>
        <rect id="path-1" x="0" y="0" width="1400" height="400"></rect>
        <polygon id="path-3" points="0 0 89 0 89 89 0 89"></polygon>
        <polygon id="path-5" points="0 0 74 0 74 74 0 74"></polygon>
        <polygon id="path-7" points="0 0 85 0 85 94 0 94"></polygon>
        <polygon id="path-9" points="0 0 29 0 29 33 0 33"></polygon>
    </defs>
    <g id="Page-1" stroke="none" stroke-width="1" fill="none" fill-rule="evenodd">
        <g id="07-Contact-Us-Dark" transform="translate(0.000000, -120.000000)">
            <g id="07-ContactUs_Banner" transform="translate(0.000000, 120.000000)">
                <mask id="mask-2" fill="white">
                    <use xlink:href="#path-1"></use>
                </mask>
                <use id="Mask" fill-opacity="0.2" fill="#009CC5" xlink:href="#path-1"></use>
                <g id="Group" opacity="0.2" mask="url(#mask-2)" fill="#009CC5" fill-rule="nonzero">
                    <g transform="translate(84.000000, 50.000000)" id="Path">
                        <path d="M104.741872,101.148019 C111.7126,84.4530924 115.857356,67.0243224 116.799347,49.9624739 C117.238942,41.4009729 116.987745,32.9006254 115.731758,24.7671994 C115.417761,22.504517 114.978166,20.3029882 114.53857,18.1014593 C97.0803518,9.66226546 87.2208544,0 87.2208544,0 C87.2208544,0 77.4869557,9.60111188 60.2171353,18.0403058 C61.4731223,21.0368311 62.6035105,24.0945101 63.6083,27.0910354 C66.2458726,34.85754 68.1926523,42.6240445 69.6370373,50.4517026 C71.0814223,58.2793607 72.0234125,66.0458652 72.4630079,73.8123697 C72.9026033,81.5788742 72.9026033,89.2842252 72.4630079,96.9284225 C72.0862118,104.57262 71.1442216,112.09451 70.0138334,119.555247 C68.7578465,127.015983 67.3134615,134.354413 65.3666817,141.509382 C62.3523131,153.189715 58.521553,164.625434 54,175.633079 C54.188398,175.755386 54.3767961,175.877693 54.5651941,176 C62.6663098,167.377345 70.2650308,158.387769 77.1729589,149.031272 C88.3512426,133.865184 97.9595427,117.9041 104.741872,101.148019 Z"></path>
                        <path d="M175.3458,29.6731343 C166.462102,30.4074627 158.129807,30.1014925 150.410181,29 C149.736245,37.6283582 148.388374,46.0119403 146.427834,54.2119403 C141.58775,74.4671642 133.316722,93.2537313 122.656285,110.08209 C120.083076,114.365672 117.203533,118.404478 114.385257,122.443284 C112.976119,124.462687 111.38318,126.359701 109.912775,128.31791 L107.6459,131.255224 C106.910698,132.234328 106.052962,133.152239 105.317759,134.070149 L100.60021,139.638806 C99.0072707,141.474627 97.2917982,143.249254 95.6375925,145.023881 C92.390448,148.634328 88.898236,152 85.4672909,155.365672 C77.0737287,163.504478 68.1900316,171.031343 59,178.068657 C67.3322953,183.820896 76.7673943,188.9 87.4890978,193 C189.375914,154.141791 175.3458,29.6731343 175.3458,29.6731343 Z"></path>
                        <path d="M56.2563629,118.054922 C55.6431447,110.961555 54.845961,103.929869 53.5582027,97.0832277 C52.2704444,90.1749049 50.7373988,83.4516265 48.7751004,76.851711 C46.812802,70.2517955 44.4825727,63.8369244 41.7844125,57.7304605 C39.0862522,51.5623152 36.0814828,45.6408956 32.7087825,40.1512463 C31.0530932,37.3755809 29.2747603,34.7232784 27.4351056,32.2560203 C26.5152783,31.0223912 25.5954509,29.8504436 24.6756235,28.7401774 C24.4916581,28.4934516 24.2463708,28.2467258 24.0624053,28 C16.7651082,28.9252218 8.97723656,29.1102662 0.698790301,28.4317702 C0.698790301,28.4317702 -10.2164944,123.48289 54.2327428,174 C55.888432,162.52725 56.8082594,150.992818 56.9922248,139.520068 C57.0535467,132.365019 56.7469375,125.148289 56.2563629,118.054922 Z"></path>
                    </g>
                </g>
                <path d="M435.0983,108.231278 C516.64795,140.176383 570.16225,183.625979 636.1467,222.074381 C702.13115,260.522917 790.3007,296.26186 898.2442,301.100074 C996.33415,305.496509 1090.04,283.641772 1187.5199,277.075499 C1258.77465,272.275935 1332.6292,276.081395 1400,287.460746 L1400,438 L0,438 L0,59.0970744 C208.74175,27.7884881 353.85175,76.4048284 435.0983,108.231278" id="Fill-1" fill-opacity="0.2" fill="#009CC5" mask="url(#mask-2)" transform="translate(700.000000, 243.500000) scale(-1, 1) translate(-700.000000, -243.500000) "></path>
                <g id="Group-247" mask="url(#mask-2)">
                    <g transform="translate(372.000000, 38.000000)">
                        <path d="M545.770271,133.694603 C546.767699,132.739677 548.350344,132.773403 549.305302,133.770797 C550.26026,134.767568 550.226533,136.349534 549.229729,137.305085 C548.232301,138.260635 546.649656,138.226285 545.694698,137.229515 C544.73974,136.23212 544.773467,134.650154 545.770271,133.694603" id="Fill-1" fill="#009CC5"></path>
                        <path d="M554.770271,142.694698 C555.767699,141.73974 557.350344,141.773467 558.305302,142.770271 C559.26026,143.767074 559.226533,145.349719 558.229729,146.305302 C557.232301,147.26026 555.649656,147.226533 554.694698,146.229729 C553.73974,145.232301 553.773467,143.649656 554.770271,142.694698" id="Fill-3" fill="#009CC5"></path>
                        <path d="M562.695123,155.229729 C561.7396,154.232926 561.773324,152.650281 562.770691,151.694698 C563.767432,150.73974 565.349354,150.773467 566.304877,151.770271 C567.2604,152.767699 567.226676,154.350344 566.229309,155.305302 C565.231943,156.26026 563.650022,156.226533 562.695123,155.229729" id="Fill-5" fill="#009CC5"></path>
                        <path d="M571.770271,160.694698 C572.767699,159.73974 574.350344,159.773467 575.305302,160.770271 C576.26026,161.767074 576.226533,163.349719 575.229729,164.305302 C574.232301,165.26026 572.649656,165.226533 571.694698,164.229729 C570.73974,163.232301 570.773467,161.649656 571.770271,160.694698" id="Fill-7" fill="#009CC5"></path>
                        <path d="M579.770728,168.694905 C580.767517,167.739369 582.35014,167.773718 583.305084,168.770474 C584.260029,169.76723 584.226927,171.349798 583.229513,172.305335 C582.232099,173.260247 580.650101,173.226522 579.695157,172.229767 C578.739587,171.232386 578.773313,169.649818 579.770728,168.694905" id="Fill-9" fill="#009CC5"></path>
                        <path d="M588.694916,181.229729 C587.739971,180.232301 587.773073,178.650281 588.770487,177.694698 C589.767277,176.73974 591.349899,176.773467 592.304843,177.770271 C593.260413,178.767699 593.226687,180.350344 592.229272,181.305302 C591.231858,182.26026 589.64986,182.226533 588.694916,181.229729" id="Fill-11" fill="#009CC5"></path>
                        <path d="M596.770271,186.694665 C597.767699,185.739753 599.350344,185.773478 600.305302,186.770233 C601.26026,187.767614 601.226533,189.349558 600.229729,190.305095 C599.232301,191.260631 597.649656,191.226282 596.694698,190.229526 C595.73974,189.232146 595.773467,187.650202 596.770271,186.694665" id="Fill-13" fill="#009CC5"></path>
                        <path d="M604.770236,195.694698 C605.767619,194.73974 607.350191,194.773467 608.305106,195.770271 C609.26002,196.767074 609.22692,198.349719 608.229537,199.305302 C607.232154,200.26026 605.649581,200.226533 604.694667,199.229729 C603.739752,198.232301 603.773477,196.649656 604.770236,195.694698" id="Fill-15" fill="#009CC5"></path>
                        <path d="M613.694916,208.229729 C612.739971,207.232926 612.773073,205.650281 613.770487,204.694698 C614.767277,203.73974 616.349899,203.773467 617.304843,204.770271 C618.260413,205.767699 618.226687,207.350344 617.229272,208.305302 C616.231858,209.26026 614.64986,209.226533 613.694916,208.229729" id="Fill-17" fill="#009CC5"></path>
                        <path d="M621.770236,212.694698 C622.767619,211.73974 624.350191,211.773467 625.305106,212.770271 C626.26002,213.767074 626.22692,215.349719 625.229537,216.305302 C624.232154,217.26026 622.649581,217.226533 621.694667,216.229729 C620.739752,215.232301 620.773477,213.649656 621.770236,212.694698" id="Fill-19" fill="#009CC5"></path>
                        <path d="M630.770728,221.695111 C631.767517,220.739604 633.35014,220.773328 634.305084,221.770678 C635.260029,222.767402 635.226927,224.349922 634.229513,225.305428 C633.232723,226.260311 631.650101,226.226587 630.695157,225.229238 C629.739587,224.232513 629.773313,222.649994 630.770728,221.695111" id="Fill-21" fill="#009CC5"></path>
                        <path d="M638.694916,234.229729 C637.739971,233.232301 637.773073,231.650281 638.770487,230.694698 C639.767277,229.73974 641.349899,229.773467 642.304843,230.770271 C643.260413,231.767699 643.226687,233.349719 642.229272,234.305302 C641.231858,235.26026 639.64986,235.226533 638.694916,234.229729" id="Fill-23" fill="#009CC5"></path>
                        <g id="Group-27" stroke-width="1" fill="none" transform="translate(314.000000, 258.000000)">
                            <mask id="mask-4" fill="white">
                                <use xlink:href="#path-3"></use>
                            </mask>
                            <g id="Clip-26"></g>
                            <path d="M0,44.5000979 C0,19.9232635 19.9233658,0 44.5003264,0 C69.077287,0 89,19.9232635 89,44.5000979 C89,69.0769323 69.077287,89.0001959 44.5003264,89.0001959 C19.9233658,89.0001959 0,69.0769323 0,44.5000979" id="Fill-25" fill="#009CC5" mask="url(#mask-4)"></path>
                        </g>
                        <g id="Group" stroke-width="1" fill="none" transform="translate(332.000000, 277.000000)">
                            <path d="M45.4621146,33.4727794 L40.7200813,30.034384 C38.2631582,28.2636103 34.9299899,28.52149 32.7995111,30.6704871 L30.6003073,32.8710602 C29.5178866,33.9369628 27.9200276,34.2636103 26.6142503,33.6618911 C21.0475155,31.1002865 16.9240083,26.974212 14.3468162,21.3696275 C13.7454714,20.0630372 14.0547345,18.4469914 15.1371551,17.3810888 L17.3191777,15.1805158 C19.4668377,13.0487106 19.7245569,9.71346705 17.9548851,7.25501433 L14.518629,2.51002865 C13.3331207,0.859598854 11.5290863,0 9.63914548,0 C8.31618691,0 6.95886578,0.429799427 5.72181361,1.28939828 C0.80796748,4.76217765 -1.23660486,11.0888252 0.756423639,16.6934097 C6.09980177,31.6848138 16.2883009,41.9484241 31.0813831,47.226361 C32.5589732,47.7421203 34.0881072,48 35.5828785,48 C39.9125611,48 44.0876122,45.9369628 46.6819855,42.2750716 L46.8881609,41.982808 C48.8124642,39.2492837 48.1767569,35.4326648 45.4621146,33.4727794 Z" id="Path" fill="#FFFFFF" fill-rule="nonzero"></path>
                            <path d="M35.6531567,22.057819 C35.5039985,22.9703092 36.1240946,23.8308963 37.0374795,23.9782342 C37.1296559,23.9933028 37.2184805,24 37.308981,24 C38.116782,24 38.8273786,23.4156714 38.9614535,22.5952673 C38.9932963,22.4043978 39,22.2135283 39,22.0260074 C39,14.8432861 33.150985,9 25.9612215,9 C25.7701648,9 25.5807841,9.00669718 25.3914034,9.03850876 C24.4780185,9.18584663 23.8746817,10.0497823 24.0221641,10.9622726 C24.1713223,11.8764371 25.0562163,12.4976002 25.9612215,12.348588 C31.3024281,12.348588 35.6481289,16.6900324 35.6548327,22.057819 L35.6531567,22.057819 Z" id="Path" fill="#FFFFFF" fill-rule="nonzero"></path>
                            <path d="M25.0981211,0 L24.7397356,0 C23.7794015,0 23,0.779401531 23,1.73973556 C23,2.70006959 23.7794015,3.47947112 24.7397356,3.47947112 L25.0981211,3.47947112 C35.8079332,3.47947112 44.5205289,12.1920668 44.5205289,22.9018789 L44.5205289,23.2602644 C44.5205289,24.2205985 45.2999304,25 46.2602644,25 C47.2205985,25 48,24.2205985 48,23.2602644 L48,22.9018789 C48,10.2731385 37.7268615,0 25.0981211,0 L25.0981211,0 Z" id="Path" fill="#FFFFFF" fill-rule="nonzero"></path>
                        </g>
                        <path d="M0,184 C0,167.430908 13.4314141,154 29.9996738,154 C46.5685859,154 60,167.430908 60,184 C60,200.569092 46.5685859,214 29.9996738,214 C13.4314141,214 0,200.569092 0,184" id="Fill-32" fill="#009CC5"></path>
                        <path d="M21,172.500322 C21,167.253549 25.2529051,163 30.5003218,163 C35.7464512,163 40,167.253549 40,172.500322 C40,177.746451 35.7464512,182 30.5003218,182 C25.2529051,182 21,177.746451 21,172.500322" id="Fill-34" fill="#FFFFFF"></path>
                        <path d="M30.0003291,182 C20.6115768,182 13,189.611066 13,199 L47,199 C47,189.611066 39.3890814,182 30.0003291,182" id="Fill-36" fill="#FFFFFF"></path>
                        <path d="M244.111144,33.7648909 C244.517016,32.4454948 245.915713,31.7049345 247.235109,32.1114309 C248.554505,32.5166785 249.295065,33.9160002 248.888569,35.2347719 C248.483322,36.554168 247.084624,37.2947283 245.765228,36.8888563 C244.445832,36.4829843 243.705272,35.084287 244.111144,33.7648909" id="Fill-38" fill="#009CC5"></path>
                        <path d="M255.111136,36.7651091 C255.516981,35.4458019 256.916208,34.7052916 258.234891,35.1111362 C259.554198,35.5169808 260.294708,36.9155838 259.888864,38.2348909 C259.483019,39.5541981 258.084416,40.2947084 256.765109,39.8888638 C255.445802,39.4830192 254.705292,38.0844162 255.111136,36.7651091" id="Fill-40" fill="#009CC5"></path>
                        <path d="M268.764872,43.8888638 C267.44549,43.4830192 266.704938,42.0844162 267.11143,40.7651091 C267.517297,39.4458019 268.915356,38.7052916 270.234738,39.1111362 C271.554745,39.5169808 272.294673,40.9155838 271.888805,42.2348909 C271.483562,43.5541981 270.084255,44.2947084 268.764872,43.8888638" id="Fill-42" fill="#009CC5"></path>
                        <path d="M279.1112,44.7648909 C279.516447,43.4454948 280.915768,42.7049345 282.235163,43.1114309 C283.553934,43.5166785 284.295118,44.9160002 283.888622,46.2347719 C283.48275,47.554168 282.084678,48.2947283 280.764659,47.8888563 C279.445264,47.4829843 278.705329,46.084287 279.1112,44.7648909" id="Fill-44" fill="#009CC5"></path>
                        <path d="M290.111148,47.7648909 C290.517019,46.4454948 291.915715,45.7049345 293.235111,46.1114309 C294.554506,46.5166785 295.295065,47.9160002 294.888569,49.2347719 C294.483322,50.554168 293.084626,51.2947283 291.764606,50.8888563 C290.445836,50.4829843 289.705276,49.084287 290.111148,47.7648909" id="Fill-46" fill="#009CC5"></path>
                        <path d="M303.764872,54.8888524 C302.44549,54.4829807 301.704938,53.0842846 302.11143,51.7648895 C302.516673,50.4454944 303.915356,49.7049348 305.234738,50.1114308 C306.554745,50.5173025 307.294673,51.9153742 306.888805,53.2353937 C306.482937,54.5541644 305.084255,55.294724 303.764872,54.8888524" id="Fill-48" fill="#009CC5"></path>
                        <path d="M313.111148,54.7648909 C313.517019,53.4454948 314.915715,52.7049345 316.235111,53.1114309 C317.554506,53.5166785 318.295065,54.9160002 317.888569,56.2347719 C317.482698,57.554168 316.084626,58.2947283 314.764606,57.8888563 C313.445836,57.4829843 312.705276,56.084287 313.111148,54.7648909" id="Fill-50" fill="#009CC5"></path>
                        <path d="M325.111148,58.7648724 C325.517019,57.4454901 326.91634,56.7049376 328.235111,57.1114297 C329.554506,57.516673 330.295065,58.91598 329.888569,60.2347379 C329.483322,61.5547446 328.084626,62.2946726 326.764606,61.8888049 C325.445836,61.4829372 324.705276,60.0842546 325.111148,58.7648724" id="Fill-52" fill="#009CC5"></path>
                        <path d="M338.764872,64.8888638 C337.44549,64.4830192 336.704938,63.0844162 337.11143,61.7651091 C337.516673,60.4458019 338.915356,59.7052916 340.234738,60.1111362 C341.554745,60.5169808 342.294673,61.9155838 341.888805,63.2348909 C341.483562,64.5541981 340.084255,65.2947084 338.764872,64.8888638" id="Fill-54" fill="#009CC5"></path>
                        <path d="M348.1112,65.7648909 C348.516447,64.4454948 349.915768,63.7049345 351.235163,64.1114309 C352.553934,64.5166785 353.295118,65.9153757 352.888622,67.2347719 C352.48275,68.554168 351.084678,69.2947283 349.764659,68.8888563 C348.445264,68.4829843 347.705329,67.084287 348.1112,65.7648909" id="Fill-56" fill="#009CC5"></path>
                        <path d="M360.111199,69.7648909 C360.516442,68.4454948 361.915748,67.7049345 363.235129,68.1114309 C364.55451,68.5166785 365.295062,69.9160002 364.88857,71.2347719 C364.483327,72.554168 363.084646,73.2947283 361.76464,72.8888563 C360.445259,72.4829843 359.705332,71.084287 360.111199,69.7648909" id="Fill-58" fill="#009CC5"></path>
                        <path d="M373.765109,75.8888524 C372.445802,75.4829807 371.705292,74.0842846 372.111136,72.7648895 C372.516981,71.4454944 373.915584,70.7049348 375.234891,71.1114308 C376.554198,71.5173025 377.294708,72.9153742 376.888864,74.2353937 C376.483019,75.5541644 375.084416,76.294724 373.765109,75.8888524" id="Fill-60" fill="#009CC5"></path>
                        <path d="M383.111148,76.7651091 C383.517019,75.4458019 384.915715,74.7052916 386.235111,75.1111362 C387.554506,75.5169808 388.295065,76.9155838 387.888569,78.2348909 C387.482698,79.5541981 386.084626,80.2947084 384.764606,79.8888638 C383.445836,79.4830192 382.705276,78.0844162 383.111148,76.7651091" id="Fill-62" fill="#009CC5"></path>
                        <path d="M395.111135,79.7651091 C395.516961,78.4458019 396.916122,77.7052916 398.234743,78.1111362 C399.553988,78.5169808 400.295088,79.9155838 399.888638,81.2348909 C399.482813,82.5541981 398.084276,83.2947084 396.764406,82.8888638 C395.445785,82.4830192 394.705309,81.0844162 395.111135,79.7651091" id="Fill-64" fill="#009CC5"></path>
                        <path d="M408.764872,86.8888638 C407.44549,86.4830192 406.704938,85.0844162 407.11143,83.7651091 C407.517297,82.4458019 408.915356,81.7052916 410.234738,82.1111362 C411.554745,82.5169808 412.294673,83.9155838 411.888805,85.2348909 C411.483562,86.5541981 410.084255,87.2947084 408.764872,86.8888638" id="Fill-66" fill="#009CC5"></path>
                        <path d="M418.1112,86.7651091 C418.517072,85.4458019 419.915768,84.7052916 421.235163,85.1111362 C422.553934,85.5169808 423.295118,86.9155838 422.888622,88.2348909 C422.48275,89.5541981 421.084678,90.2947084 419.764659,89.8888638 C418.445264,89.4830192 417.705329,88.0844162 418.1112,86.7651091" id="Fill-68" fill="#009CC5"></path>
                        <path d="M430.111148,90.7651091 C430.516395,89.4458019 431.915715,88.7052916 433.235111,89.1111362 C434.554506,89.5169808 435.295065,90.9155838 434.888569,92.2348909 C434.482698,93.5541981 433.084626,94.2947084 431.764606,93.8888638 C430.445836,93.4830192 429.705276,92.0844162 430.111148,90.7651091" id="Fill-70" fill="#009CC5"></path>
                        <path d="M443.765109,97.8888638 C442.445802,97.4830192 441.705292,96.0844162 442.111136,94.7651091 C442.516981,93.4458019 443.915584,92.7052916 445.234891,93.1111362 C446.554198,93.5169808 447.294708,94.9155838 446.888864,96.2348909 C446.483019,97.5541981 445.084416,98.2947084 443.765109,97.8888638" id="Fill-72" fill="#009CC5"></path>
                        <path d="M453.110853,97.7651091 C453.517322,96.4458019 454.915924,95.7052916 456.23523,96.1111362 C457.554536,96.5169808 458.295045,97.9155838 457.888577,99.2348909 C457.482732,100.554198 456.084755,101.294708 454.764825,100.888864 C453.446143,100.483019 452.705633,99.0844162 453.110853,97.7651091" id="Fill-74" fill="#009CC5"></path>
                        <path d="M464.111199,101.765109 C464.517066,100.445802 465.915748,99.7052916 467.235129,100.111136 C468.55451,100.516981 469.295062,101.915584 468.88857,103.234891 C468.483327,104.554198 467.084646,105.294708 465.76464,104.888864 C464.445259,104.483019 463.705332,103.084416 464.111199,101.765109" id="Fill-76" fill="#009CC5"></path>
                        <path d="M477.764891,107.888864 C476.445495,107.483019 475.704935,106.084416 476.111431,104.765109 C476.517303,103.445802 477.915376,102.705292 479.234772,103.111136 C480.554168,103.516981 481.294728,104.915584 480.888856,106.234891 C480.483609,107.554198 479.084287,108.294708 477.764891,107.888864" id="Fill-78" fill="#009CC5"></path>
                        <path d="M488.111205,108.765109 C488.516472,107.445802 489.915858,106.705292 491.23469,107.111136 C492.554147,107.516981 493.294742,108.915584 492.888851,110.234891 C492.48296,111.554198 491.084823,112.294708 489.764742,111.888864 C488.445285,111.483019 487.705315,110.084416 488.111205,108.765109" id="Fill-80" fill="#009CC5"></path>
                        <path d="M499.110904,111.765109 C499.516744,110.445802 500.915956,109.705292 502.235248,110.111136 C503.55454,110.516981 504.295042,111.915584 503.888578,113.234891 C503.482738,114.554198 502.084775,115.294708 500.764859,114.888864 C499.445566,114.483019 498.705689,113.084416 499.110904,111.765109" id="Fill-82" fill="#009CC5"></path>
                        <path d="M512.765109,118.888864 C511.445802,118.483019 510.705292,117.084416 511.111136,115.765109 C511.516981,114.445802 512.915584,113.705292 514.234891,114.111136 C515.554198,114.516981 516.294708,115.915584 515.888864,117.234891 C515.483019,118.554198 514.083792,119.294708 512.765109,118.888864" id="Fill-84" fill="#009CC5"></path>
                        <path d="M390.022552,256.516471 C388.909041,255.700898 388.667353,254.136572 389.483595,253.022496 C390.299212,251.909046 391.863623,251.667371 392.977134,252.483569 C394.091269,253.299142 394.332332,254.863468 393.516715,255.976919 C392.700473,257.090994 391.136062,257.332669 390.022552,256.516471" id="Fill-86" fill="#009CC5"></path>
                        <path d="M397.022552,247.516435 C395.909041,246.700869 395.667353,245.136555 396.483595,244.022488 C397.299212,242.909046 398.862998,242.667374 399.977134,243.483565 C401.091269,244.299131 401.332332,245.863445 400.516715,246.977512 C399.701098,248.090954 398.136062,248.332626 397.022552,247.516435" id="Fill-88" fill="#009CC5"></path>
                        <path d="M407.516435,236.977448 C406.700244,238.090959 405.13593,238.332647 404.022488,237.516405 C402.909046,236.700788 402.667374,235.136377 403.483565,234.022866 C404.299131,232.908731 405.86407,232.667668 406.977512,233.483285 C408.090954,234.299527 408.332626,235.863313 407.516435,236.977448" id="Fill-90" fill="#009CC5"></path>
                        <path d="M412.022795,227.516877 C410.90859,226.700606 410.667512,225.136139 411.483805,224.022588 C412.298848,222.909037 413.863355,222.667341 414.976935,223.483612 C416.09114,224.299259 416.332218,225.863726 415.517175,226.977277 C414.700882,228.090828 413.136375,228.332524 412.022795,227.516877" id="Fill-92" fill="#009CC5"></path>
                        <path d="M419.022659,217.516471 C417.909178,216.700274 417.667497,215.135947 418.483092,214.022496 C419.298687,212.909046 420.863056,212.667371 421.977161,213.483569 C423.091267,214.299142 423.332323,215.863468 422.516728,216.976919 C421.700508,218.090994 420.13614,218.332669 419.022659,217.516471" id="Fill-94" fill="#009CC5"></path>
                        <path d="M429.516414,206.977448 C428.700812,208.090959 427.136429,208.332647 426.022938,207.516405 C424.909447,206.700788 424.66714,205.136377 425.483366,204.022866 C426.299593,202.908731 427.863976,202.667668 428.977467,203.483285 C430.090958,204.298902 430.332641,205.863313 429.516414,206.977448" id="Fill-96" fill="#009CC5"></path>
                        <path d="M433.022552,197.516877 C431.909041,196.700606 431.667353,195.136139 432.483595,194.022588 C433.299212,192.909037 434.863623,192.667341 435.977134,193.483612 C437.091269,194.299259 437.332332,195.863726 436.516715,196.977277 C435.700473,198.090828 434.136687,198.332524 433.022552,197.516877" id="Fill-98" fill="#009CC5"></path>
                        <path d="M440.022552,188.516877 C438.909041,187.700606 438.667353,186.136139 439.483595,185.022588 C440.299212,183.909037 441.863623,183.667341 442.977134,184.483612 C444.091269,185.299259 444.332332,186.863726 443.516715,187.977277 C442.701098,189.090828 441.136062,189.332524 440.022552,188.516877" id="Fill-100" fill="#009CC5"></path>
                        <path d="M451.516435,177.977161 C450.700244,179.091267 449.136555,179.332323 448.022488,178.516728 C446.909046,177.700508 446.667374,176.136764 447.483565,175.022659 C448.299131,173.909178 449.86407,173.667497 450.977512,174.483092 C452.090954,175.299312 452.332626,176.863681 451.516435,177.977161" id="Fill-102" fill="#009CC5"></path>
                        <path d="M455.022615,168.516467 C453.909035,167.700888 453.667333,166.136549 454.483625,165.023089 C455.299292,163.909005 456.863176,163.667329 457.976756,164.483533 C459.091584,165.299112 459.332038,166.863451 458.516995,167.976911 C457.700703,169.090995 456.136195,169.332671 455.022615,168.516467" id="Fill-104" fill="#009CC5"></path>
                        <path d="M462.022552,158.516435 C460.909041,157.700869 460.667353,156.136555 461.483595,155.022488 C462.299212,153.909046 463.863623,153.667374 464.977134,154.483565 C466.091269,155.299131 466.332332,156.863445 465.516715,157.977512 C464.700473,159.090954 463.136062,159.332626 462.022552,158.516435" id="Fill-106" fill="#009CC5"></path>
                        <path d="M472.516634,147.977341 C471.700407,149.090822 470.136024,149.332503 469.022533,148.516908 C467.909042,147.700688 467.667359,146.136319 468.483586,145.022839 C469.299813,143.908733 470.863571,143.667677 471.977062,144.483272 C473.090553,145.299492 473.33286,146.86386 472.516634,147.977341" id="Fill-108" fill="#009CC5"></path>
                        <path d="M476.022652,139.516877 C474.909032,138.700606 474.667321,137.136139 475.483642,136.022588 C476.298714,134.909037 477.863279,134.667341 478.976898,135.483612 C480.091143,136.299259 480.332229,137.863726 479.517157,138.977277 C478.700836,140.090828 477.136272,140.332524 476.022652,139.516877" id="Fill-110" fill="#009CC5"></path>
                        <path d="M483.022659,129.516715 C481.909178,128.700473 481.667497,127.136062 482.483092,126.022552 C483.298687,124.909041 484.863056,124.667353 485.977161,125.483595 C487.091267,126.299212 487.332323,127.863623 486.516728,128.977134 C485.700508,130.091269 484.13614,130.332332 483.022659,129.516715" id="Fill-112" fill="#009CC5"></path>
                        <path d="M493.516375,118.977134 C492.700706,120.091269 491.136197,120.332332 490.022616,119.516715 C488.909035,118.700473 488.667332,117.136687 489.483625,116.022552 C490.299294,114.909041 491.863803,114.667353 492.977384,115.483595 C494.090965,116.299212 494.332668,117.863623 493.516375,118.977134" id="Fill-114" fill="#009CC5"></path>
                        <path d="M498.022524,109.516435 C496.909043,108.700869 496.667362,107.136555 497.483582,106.022488 C498.299177,104.909046 499.863545,104.667374 500.977026,105.483565 C502.091132,106.299131 502.332188,107.863445 501.517217,108.977512 C500.700998,110.090954 499.136005,110.332626 498.022524,109.516435" id="Fill-116" fill="#009CC5"></path>
                        <path d="M505.022787,100.516435 C503.909167,99.7008686 503.667456,98.1365546 504.483153,97.0224882 C505.29885,95.9090463 506.863414,95.6673738 507.977034,96.4835648 C509.091278,97.2991314 509.332365,98.8634454 508.516668,99.9775118 C507.700971,101.090954 506.136407,101.332626 505.022787,100.516435" id="Fill-118" fill="#009CC5"></path>
                        <path d="M515.516435,89.977341 C514.700869,91.0908218 513.13593,91.3325027 512.022488,90.5169077 C510.909046,89.7006882 510.667374,88.1363195 511.483565,87.0228387 C512.299756,85.9087334 513.86407,85.667677 514.977512,86.483272 C516.090954,87.2994915 516.332626,88.8638602 515.516435,89.977341" id="Fill-120" fill="#009CC5"></path>
                        <path d="M412.033211,297.904653 C411.81027,296.54207 412.733258,295.256921 414.095882,295.033362 C415.457882,294.809804 416.743695,295.733388 416.966636,297.095971 C417.190201,298.457929 416.266589,299.743703 414.904589,299.966637 C413.541965,300.190195 412.256152,299.266612 412.033211,297.904653" id="Fill-122" fill="#009CC5"></path>
                        <path d="M423.03321,295.904315 C422.810276,294.541819 423.733236,293.256752 425.095818,293.033208 C426.457777,292.810288 427.74355,293.733189 427.966484,295.095685 C428.190667,296.458181 427.266459,297.743248 425.904501,297.966792 C424.541918,298.189712 423.256769,297.266811 423.03321,295.904315" id="Fill-124" fill="#009CC5"></path>
                        <path d="M438.904315,295.966789 C437.541819,296.189729 436.256752,295.266745 436.033208,293.904125 C435.810288,292.54213 436.733189,291.256321 438.095685,291.033381 C439.458181,290.809816 440.743248,291.732801 440.966792,293.095421 C441.189712,294.457416 440.266811,295.743224 438.904315,295.966789" id="Fill-126" fill="#009CC5"></path>
                        <path d="M448.033211,291.904227 C447.81027,290.542397 448.733258,289.256744 450.095882,289.033207 C451.457882,288.810294 452.743695,289.733166 452.966636,291.095621 C453.190201,292.458075 452.266589,293.743103 450.904589,293.966641 C449.541965,294.190178 448.256152,293.266681 448.033211,291.904227" id="Fill-128" fill="#009CC5"></path>
                        <path d="M460.033211,289.904643 C459.81027,288.542065 460.733258,287.25692 462.095882,287.033362 C463.457882,286.809805 464.743695,287.733385 464.966636,289.095964 C465.190201,290.457917 464.266589,291.743687 462.904589,291.96662 C461.541965,292.190178 460.256152,291.267221 460.033211,289.904643" id="Fill-130" fill="#009CC5"></path>
                        <path d="M474.903772,289.966638 C473.541318,290.190196 472.256914,289.266612 472.033376,287.904029 C471.809839,286.542071 472.732711,285.256922 474.09579,285.033363 C475.458245,284.809805 476.742649,285.733388 476.966811,287.095347 C477.189724,288.45793 476.266227,289.743704 474.903772,289.966638" id="Fill-132" fill="#009CC5"></path>
                        <path d="M484.03321,285.904315 C483.810276,284.541819 484.733235,283.256752 486.095818,283.033208 C487.457776,282.810288 488.74355,283.733189 488.966484,285.095685 C489.190667,286.458181 488.266458,287.743248 486.905125,287.966792 C485.542542,288.189712 484.256769,287.266811 484.03321,285.904315" id="Fill-134" fill="#009CC5"></path>
                        <path d="M496.03321,283.904389 C495.810275,282.54193 496.733235,281.256898 498.096442,281.033359 C499.457777,280.809821 500.74355,281.733321 500.966484,283.09578 C501.190667,284.457615 500.266459,285.743272 498.9045,285.96681 C497.541917,286.189724 496.256768,285.266224 496.03321,283.904389" id="Fill-136" fill="#009CC5"></path>
                        <path d="M510.904315,283.966789 C509.541819,284.18973 508.256752,283.266742 508.033208,281.904118 C507.810288,280.542118 508.733189,279.256305 510.095685,279.033364 C511.458181,278.809799 512.743248,279.733411 512.966792,281.095411 C513.189712,282.458035 512.266811,283.743848 510.904315,283.966789" id="Fill-138" fill="#009CC5"></path>
                        <path d="M520.033211,279.904379 C519.81027,278.541925 520.733258,277.256897 522.095882,277.033359 C523.457882,276.809822 524.743695,277.733319 524.966636,279.095773 C525.190201,280.458228 524.266589,281.743256 522.904589,281.966793 C521.541965,282.189706 520.256152,281.266834 520.033211,279.904379" id="Fill-140" fill="#009CC5"></path>
                        <path d="M532.033211,277.904315 C531.81027,276.541819 532.733258,275.256752 534.095882,275.033208 C535.457882,274.810288 536.743695,275.733189 536.966636,277.095685 C537.190201,278.458181 536.266589,279.743248 534.904589,279.966792 C533.541965,280.189712 532.256152,279.266811 532.033211,277.904315" id="Fill-142" fill="#009CC5"></path>
                        <path d="M546.904379,277.966789 C545.541925,278.18973 544.256897,277.266742 544.033359,275.904118 C543.809822,274.542118 544.733319,273.256305 546.095773,273.033364 C547.458228,272.809799 548.742631,273.733411 548.966793,275.095411 C549.189706,276.458035 548.266834,277.743224 546.904379,277.966789" id="Fill-144" fill="#009CC5"></path>
                        <path d="M555.033211,273.904227 C554.81027,272.541772 555.733258,271.256744 557.095882,271.033207 C558.457882,270.810294 559.743695,271.733166 559.966636,273.095621 C560.190201,274.458075 559.266589,275.743103 557.904589,275.966641 C556.541965,276.190178 555.256152,275.266681 555.033211,273.904227" id="Fill-146" fill="#009CC5"></path>
                        <path d="M567.033211,271.904379 C566.81027,270.541925 567.733258,269.256897 569.095882,269.033359 C570.457882,268.809822 571.743695,269.733319 571.966636,271.095773 C572.190201,272.458228 571.266589,273.743256 569.904589,273.966793 C568.541965,274.189706 567.256152,273.266834 567.033211,271.904379" id="Fill-148" fill="#009CC5"></path>
                        <path d="M582.904315,272.966637 C581.541819,273.190195 580.256752,272.266612 580.033208,270.904653 C579.810288,269.542071 580.733189,268.256922 582.095685,268.033363 C583.458181,267.809805 584.743248,268.733388 584.966792,270.095347 C585.189712,271.457929 584.266811,272.743703 582.904315,272.966637" id="Fill-150" fill="#009CC5"></path>
                        <path d="M592.033363,268.904227 C591.809804,267.541772 592.733391,266.256744 594.095354,266.033207 C595.457942,265.810294 596.743095,266.733166 596.966654,268.095621 C597.190214,269.458075 596.266002,270.743103 594.904039,270.966641 C593.541452,271.190178 592.256298,270.266681 592.033363,268.904227" id="Fill-152" fill="#009CC5"></path>
                        <path d="M604.033363,266.904227 C603.809805,265.542397 604.733388,264.256744 606.095347,264.033207 C607.457305,263.810294 608.743078,264.733166 608.966637,266.095621 C609.190195,267.458075 608.266612,268.743103 606.904653,268.966641 C605.542071,269.190178 604.256297,268.266681 604.033363,266.904227" id="Fill-154" fill="#009CC5"></path>
                        <path d="M618.904315,266.966789 C617.541819,267.18973 616.257377,266.266742 616.033208,264.904118 C615.810288,263.542118 616.733189,262.256929 618.095685,262.033364 C619.458181,261.809799 620.743248,262.733411 620.966792,264.095411 C621.189712,265.458035 620.266811,266.743848 618.904315,266.966789" id="Fill-156" fill="#009CC5"></path>
                        <path d="M343.260824,249.880666 C341.946527,250.300891 340.539823,249.575956 340.119622,248.260958 C339.698797,246.94596 340.42369,245.539798 341.738612,245.119573 C343.053534,244.698724 344.460238,245.424283 344.880438,246.738657 C345.301263,248.053655 344.575746,249.460441 343.260824,249.880666" id="Fill-158" fill="#009CC5"></path>
                        <path d="M339.260509,238.880676 C337.946221,239.300868 336.539528,238.575989 336.11933,237.261092 C335.699133,235.946195 336.42402,234.539517 337.738308,234.119324 C339.053219,233.699132 340.459913,234.424011 340.880735,235.738908 C341.300932,237.053805 340.57542,238.460483 339.260509,238.880676" id="Fill-160" fill="#009CC5"></path>
                        <path d="M336.880676,223.738928 C337.300868,225.053839 336.575989,226.459908 335.261092,226.88073 C333.946195,227.300928 332.539517,226.575416 332.119324,225.261128 C331.699132,223.946217 332.424011,222.539523 333.738908,222.119326 C335.053181,221.699128 336.459859,222.424016 336.880676,223.738928" id="Fill-162" fill="#009CC5"></path>
                        <path d="M331.261128,214.880666 C329.946217,215.300891 328.540148,214.575956 328.119326,213.260958 C327.699128,211.94596 328.424016,210.539798 329.738928,210.119573 C331.053839,209.698724 332.459908,210.424283 332.88073,211.738657 C333.300928,213.053655 332.575416,214.460441 331.261128,214.880666" id="Fill-164" fill="#009CC5"></path>
                        <path d="M328.261128,203.880668 C326.946841,204.300888 325.540148,203.575961 325.119326,202.260978 C324.699128,200.945994 325.424016,199.539224 326.738928,199.119628 C328.053839,198.698783 329.459908,199.42371 329.88073,200.738694 C330.300928,202.053677 329.575416,203.460447 328.261128,203.880668" id="Fill-166" fill="#009CC5"></path>
                        <path d="M325.880438,188.738928 C326.301263,190.053839 325.575746,191.459908 324.260823,191.88073 C322.946524,192.300928 321.539819,191.575416 321.119618,190.261128 C320.698793,188.946217 321.423686,187.540148 322.739233,187.119326 C324.053532,186.699128 325.460237,187.424016 325.880438,188.738928" id="Fill-168" fill="#009CC5"></path>
                        <path d="M320.260509,180.880666 C318.946221,181.300891 317.539528,180.575956 317.11933,179.260958 C316.699133,177.94596 317.42402,176.539798 318.738308,176.119573 C320.053219,175.698724 321.459913,176.424283 321.880735,177.738657 C322.300932,179.053655 321.57542,180.460441 320.260509,180.880666" id="Fill-170" fill="#009CC5"></path>
                        <path d="M317.261128,168.880668 C315.946217,169.300888 314.539523,168.575961 314.119326,167.260978 C313.699128,165.945994 314.424016,164.539224 315.738928,164.119628 C317.053215,163.698783 318.459908,164.42371 318.88073,165.738694 C319.300928,167.053677 318.575416,168.460447 317.261128,168.880668" id="Fill-172" fill="#009CC5"></path>
                        <path d="M314.880676,153.738872 C315.300868,155.053783 314.575989,156.459852 313.261092,156.880674 C311.946819,157.300872 310.540141,156.575984 310.119324,155.261072 C309.699132,153.946161 310.424011,152.540092 311.738908,152.11927 C313.053805,151.699072 314.459859,152.424584 314.880676,153.738872" id="Fill-174" fill="#009CC5"></path>
                        <path d="M309.261128,145.880661 C307.946841,146.300906 306.540148,145.575936 306.119326,144.260876 C305.699128,142.945816 306.424016,141.539588 307.738928,141.119344 C309.053839,140.699099 310.459908,141.424068 310.88073,142.738504 C311.300928,144.053564 310.575416,145.460416 309.261128,145.880661" id="Fill-176" fill="#009CC5"></path>
                        <path d="M305.260861,133.880666 C303.946549,134.300891 302.539829,133.575956 302.119624,132.260958 C301.698794,130.94596 302.423695,129.539174 303.738631,129.119573 C305.053568,128.698724 306.460288,129.424283 306.880493,130.738657 C307.301323,132.053655 306.575173,133.460441 305.260861,133.880666" id="Fill-178" fill="#009CC5"></path>
                        <path d="M303.880382,119.738872 C304.301207,121.053783 303.576314,122.460477 302.260767,122.880674 C300.946468,123.300872 299.539763,122.575984 299.119562,121.261072 C298.698737,119.946161 299.424254,118.540092 300.739177,118.11927 C302.053476,117.699072 303.460181,118.424584 303.880382,119.738872" id="Fill-180" fill="#009CC5"></path>
                        <path d="M298.261128,110.880676 C296.946217,111.300868 295.540148,110.575989 295.119326,109.261092 C294.699128,107.946195 295.424016,106.539517 296.738928,106.119324 C298.053839,105.699132 299.460533,106.424011 299.88073,107.738908 C300.300928,109.053805 299.575416,110.460483 298.261128,110.880676" id="Fill-182" fill="#009CC5"></path>
                        <path d="M294.261128,99.8806664 C292.946841,100.300891 291.540148,99.5759564 291.119326,98.2609581 C290.699128,96.9459598 291.424016,95.5397982 292.738928,95.1195732 C294.053839,94.6987238 295.460533,95.4242832 295.88073,96.7386571 C296.300928,98.0536554 295.575416,99.4604414 294.261128,99.8806664" id="Fill-184" fill="#009CC5"></path>
                        <path d="M292.880438,84.7389276 C293.301263,86.053215 292.575746,87.4599085 291.260823,87.8807302 C289.946524,88.3009276 288.539819,87.5754159 288.119618,86.2611284 C287.698793,84.9462166 288.423686,83.5395232 289.739233,83.1193258 C291.053532,82.6991284 292.460237,83.4240157 292.880438,84.7389276" id="Fill-186" fill="#009CC5"></path>
                        <path d="M287.260805,76.8806756 C285.946493,77.3008682 284.539773,76.575989 284.119568,75.2610919 C283.698738,73.9461948 284.424263,72.5395171 285.738575,72.1193244 C287.053512,71.6991318 288.460232,72.424011 288.880437,73.7389081 C289.301266,75.0538052 288.575741,76.4604829 287.260805,76.8806756" id="Fill-188" fill="#009CC5"></path>
                        <path d="M283.260509,64.8806608 C281.946221,65.3009055 280.539528,64.5759365 280.11933,63.2608763 C279.699133,61.9458161 280.42402,60.5395885 281.738308,60.1193437 C283.053219,59.6990989 284.459913,60.424068 284.880735,61.7385037 C285.300932,63.0535639 284.57542,64.460416 283.260509,64.8806608" id="Fill-190" fill="#009CC5"></path>
                        <path d="M281.880676,49.7389276 C282.300868,51.053215 281.575989,52.4599085 280.261092,52.8807302 C278.946195,53.3009276 277.539517,52.5754159 277.119324,51.2611284 C276.699132,49.9462166 277.424011,48.5395232 278.738908,48.1193258 C280.053805,47.6991284 281.459859,48.4240157 281.880676,49.7389276" id="Fill-192" fill="#009CC5"></path>
                        <path d="M46.4427293,169.920055 C45.6584125,168.784077 45.9437889,167.227181 47.080299,166.4428 C48.2161847,165.658419 49.7729538,165.943819 50.5572707,167.079797 C51.3415875,168.215775 51.0562111,169.773296 49.919701,170.557677 C48.7838153,171.341433 47.2270462,171.056033 46.4427293,169.920055" id="Fill-194" fill="#009CC5"></path>
                        <path d="M56.4427666,162.920055 C55.6583837,161.783452 55.9437842,160.227181 57.08039,159.4428 C58.2163714,158.658419 59.7732716,158.943819 60.55703,160.079797 C61.3414129,161.215775 61.056637,162.773296 59.9200311,163.557677 C58.7834253,164.341433 57.2271496,164.056033 56.4427666,162.920055" id="Fill-196" fill="#009CC5"></path>
                        <path d="M69.9203853,156.557187 C68.7836868,157.341591 67.2272842,157.056183 66.4428374,155.920171 C65.6583905,154.783535 65.9438143,153.226593 67.0798882,152.442813 C68.2159621,151.658409 69.7736138,151.943817 70.5574361,153.079829 C71.3412584,154.215841 71.0564592,155.773407 69.9203853,156.557187" id="Fill-198" fill="#009CC5"></path>
                        <path d="M76.4427846,148.920055 C75.6583698,147.784077 75.9437819,146.227181 77.080434,145.4428 C78.2164615,144.658419 79.7728005,144.943819 80.5572154,146.079797 C81.3416302,147.215775 81.0562181,148.773296 79.919566,149.557677 C78.7835385,150.341433 77.2271995,150.056033 76.4427846,148.920055" id="Fill-200" fill="#009CC5"></path>
                        <path d="M86.4427293,141.920048 C85.6584125,140.784061 85.9437889,139.227155 87.080299,138.442768 C88.2161847,137.658382 89.7729538,137.943784 90.5572707,139.080395 C91.3415875,140.216381 91.0562111,141.773287 89.919701,142.557674 C88.7838153,143.341435 87.2270462,143.056034 86.4427293,141.920048" id="Fill-202" fill="#009CC5"></path>
                        <path d="M99.920055,135.557218 C98.7840768,136.341628 97.2271809,136.056218 96.4428001,134.919574 C95.6584193,133.783554 95.943819,132.226601 97.0797972,131.442816 C98.2157754,130.658407 99.7732959,130.943817 100.557677,132.079837 C101.341433,133.215856 101.056033,134.772809 99.920055,135.557218" id="Fill-204" fill="#009CC5"></path>
                        <path d="M107.442729,127.920055 C106.658412,126.784077 106.943789,125.227181 108.080299,124.4428 C109.216185,123.658419 110.772954,123.943819 111.557271,125.079797 C112.341588,126.2164 112.056211,127.773296 110.919701,128.557677 C109.783815,129.341433 108.227046,129.056033 107.442729,127.920055" id="Fill-206" fill="#009CC5"></path>
                        <path d="M117.442729,120.919701 C116.658412,119.783815 116.943789,118.227046 118.080299,117.442729 C119.216185,116.658412 120.772954,116.943789 121.557271,118.080299 C122.341588,119.216185 122.056211,120.772954 120.919701,121.557271 C119.783191,122.341588 118.227046,122.056211 117.442729,120.919701" id="Fill-208" fill="#009CC5"></path>
                        <path d="M130.919574,114.557271 C129.783554,115.341588 128.226601,115.056211 127.442816,113.919701 C126.658407,112.783815 126.943817,111.227046 128.079837,110.442729 C129.215856,109.658412 130.773434,109.943789 131.557218,111.080299 C132.341628,112.216185 132.056218,113.772954 130.919574,114.557271" id="Fill-210" fill="#009CC5"></path>
                        <path d="M137.44291,106.920055 C136.658572,105.784077 136.943332,104.227181 138.080498,103.4428 C139.216415,102.658419 140.773228,102.943819 141.557566,104.079797 C142.341281,105.215775 142.056521,106.773296 140.919354,107.557677 C139.783437,108.341433 138.227249,108.056033 137.44291,106.920055" id="Fill-212" fill="#009CC5"></path>
                        <path d="M147.442729,99.9200475 C146.658412,98.7840614 146.943789,97.2271547 148.080299,96.4427685 C149.216185,95.6583823 150.772954,95.9437839 151.557271,97.0803945 C152.341588,98.2163806 152.056211,99.7732874 150.919701,100.557674 C149.783815,101.341435 148.227046,101.056034 147.442729,99.9200475" id="Fill-214" fill="#009CC5"></path>
                        <path d="M160.920055,93.5572334 C159.784077,94.3416163 158.227181,94.0562158 157.4428,92.91961 C156.658419,91.7836286 156.943819,90.2267284 158.079797,89.44297 C159.215775,88.6585871 160.773296,88.943363 161.557677,90.0799689 C162.341433,91.2159502 162.056033,92.7734749 160.920055,93.5572334" id="Fill-216" fill="#009CC5"></path>
                        <path d="M166.442813,86.920055 C165.658409,85.7840768 165.943817,84.2271809 167.079829,83.4428001 C168.216465,82.6584193 169.773407,82.943819 170.557187,84.0797972 C171.341591,85.2157754 171.056183,86.7732959 169.920171,87.5576766 C168.783535,88.3414329 167.227217,88.0560332 166.442813,86.920055" id="Fill-218" fill="#009CC5"></path>
                        <path d="M176.442729,79.9199153 C175.658412,78.7839675 175.943789,77.2271133 177.080299,76.4427535 C178.216185,75.6583938 179.772954,75.9437858 180.557271,77.0803581 C181.341588,78.2163059 181.056211,79.7731601 179.919701,80.5575199 C178.783815,81.3412551 177.227046,81.0564876 176.442729,79.9199153" id="Fill-220" fill="#009CC5"></path>
                        <path d="M189.920055,73.5572184 C188.784077,74.3416278 187.227181,74.0562177 186.4428,72.9195735 C185.658419,71.7835539 185.943819,70.2266011 187.079797,69.4428162 C188.215775,68.6584068 189.773296,68.9438169 190.557677,70.0798366 C191.341433,71.2158563 191.056033,72.7734336 189.920055,73.5572184" id="Fill-222" fill="#009CC5"></path>
                        <path d="M196.442729,65.920055 C195.658412,64.7834523 195.943789,63.2271809 197.080299,62.4428001 C198.216185,61.6584193 199.772954,61.943819 200.557271,63.0797972 C201.341588,64.2157754 201.056211,65.7732959 199.919701,66.5576766 C198.783815,67.3414329 197.227046,67.0560332 196.442729,65.920055" id="Fill-224" fill="#009CC5"></path>
                        <path d="M206.442298,58.9200475 C205.658586,57.7840614 205.94397,56.2271547 207.079884,55.4427685 C208.216423,54.6583823 209.772607,54.9437839 210.557568,56.0803945 C211.34128,57.2163806 211.056521,58.7732874 209.919357,59.5576736 C208.783443,60.3414353 207.226635,60.0560336 206.442298,58.9200475" id="Fill-226" fill="#009CC5"></path>
                        <path d="M220.919988,52.5572334 C219.78394,53.3416163 218.226948,53.0562158 217.442519,51.91961 C216.658715,50.7836286 216.943507,49.2267284 218.08018,48.44297 C219.216228,47.6585871 220.77322,47.943363 221.557649,49.0799689 C222.341454,50.2159502 222.056037,51.7728504 220.919988,52.5572334" id="Fill-228" fill="#009CC5"></path>
                        <g id="Group-5" stroke-width="1" fill="none" transform="translate(179.816647, 252.434535) scale(1, -1) rotate(14.000000) translate(-179.816647, -252.434535) translate(71.839212, 176.745547)">
                            <path d="M0.442729336,150.298031 C-0.341587542,149.162053 -0.0562110982,147.605157 1.08029903,146.820776 C2.2161847,146.036395 3.77295379,146.321795 4.55727066,147.457773 C5.34158754,148.593751 5.0562111,150.151272 3.91970097,150.935653 C2.7838153,151.719409 1.22704621,151.434009 0.442729336,150.298031" id="Fill-194-Copy" fill="#009CC5"></path>
                            <path d="M10.4427666,143.298031 C9.65838369,142.161428 9.94378417,140.605157 11.08039,139.820776 C12.2163714,139.036395 13.7732716,139.321795 14.55703,140.457773 C15.3414129,141.593751 15.056637,143.151272 13.9200311,143.935653 C12.7834253,144.719409 11.2271496,144.434009 10.4427666,143.298031" id="Fill-196-Copy" fill="#009CC5"></path>
                            <path d="M23.9203853,136.935163 C22.7836868,137.719567 21.2272842,137.434159 20.4428374,136.298147 C19.6583905,135.16151 19.9438143,133.604569 21.0798882,132.820789 C22.2159621,132.036385 23.7736138,132.321793 24.5574361,133.457805 C25.3412584,134.593817 25.0564592,136.151383 23.9203853,136.935163" id="Fill-198-Copy" fill="#009CC5"></path>
                            <path d="M30.4427846,129.298031 C29.6583698,128.162053 29.9437819,126.605157 31.080434,125.820776 C32.2164615,125.036395 33.7728005,125.321795 34.5572154,126.457773 C35.3416302,127.593751 35.0562181,129.151272 33.919566,129.935653 C32.7835385,130.719409 31.2271995,130.434009 30.4427846,129.298031" id="Fill-200-Copy" fill="#009CC5"></path>
                            <path d="M40.4427293,122.298023 C39.6584125,121.162037 39.9437889,119.605131 41.080299,118.820744 C42.2161847,118.036358 43.7729538,118.32176 44.5572707,119.45837 C45.3415875,120.594357 45.0562111,122.151263 43.919701,122.935649 C42.7838153,123.719411 41.2270462,123.43401 40.4427293,122.298023" id="Fill-202-Copy" fill="#009CC5"></path>
                            <path d="M53.920055,115.935194 C52.7840768,116.719604 51.2271809,116.434194 50.4428001,115.297549 C49.6584193,114.16153 49.943819,112.604577 51.0797972,111.820792 C52.2157754,111.036383 53.7732959,111.321793 54.5576766,112.457813 C55.3414329,113.593832 55.0560332,115.150785 53.920055,115.935194" id="Fill-204-Copy" fill="#009CC5"></path>
                            <path d="M61.4427293,108.298031 C60.6584125,107.162053 60.9437889,105.605157 62.080299,104.820776 C63.2161847,104.036395 64.7729538,104.321795 65.5572707,105.457773 C66.3415875,106.594376 66.0562111,108.151272 64.919701,108.935653 C63.7838153,109.719409 62.2270462,109.434009 61.4427293,108.298031" id="Fill-206-Copy" fill="#009CC5"></path>
                            <path d="M71.4427293,101.297677 C70.6584125,100.161791 70.9437889,98.6050221 72.080299,97.8207053 C73.2161847,97.0363884 74.7729538,97.3217648 75.5572707,98.458275 C76.3415875,99.5941606 76.0562111,101.15093 74.919701,101.935247 C73.7831908,102.719563 72.2270462,102.434187 71.4427293,101.297677" id="Fill-208-Copy" fill="#009CC5"></path>
                            <path d="M84.9195735,94.9352466 C83.7835539,95.7195635 82.2266011,95.434187 81.4428162,94.2976769 C80.6584068,93.1617912 80.9438169,91.6050221 82.0798366,90.8207053 C83.2158563,90.0363884 84.7734336,90.3217648 85.5572184,91.458275 C86.3416278,92.5941606 86.0562177,94.1509297 84.9195735,94.9352466" id="Fill-210-Copy" fill="#009CC5"></path>
                            <path d="M91.4429103,87.2980309 C90.6585716,86.1620527 90.9433315,84.6051568 92.0804978,83.820776 C93.2164151,83.0363952 94.7732276,83.3217949 95.5575664,84.4577731 C96.3412807,85.5937513 96.0565207,87.1512718 94.9193545,87.9356526 C93.7834371,88.7194088 92.2272491,88.4340091 91.4429103,87.2980309" id="Fill-212-Copy" fill="#009CC5"></path>
                            <path d="M101.442729,80.2980234 C100.658412,79.1620373 100.943789,77.6051306 102.080299,76.8207444 C103.216185,76.0363582 104.772954,76.3217599 105.557271,77.4583705 C106.341588,78.5943566 106.056211,80.1512633 104.919701,80.9356495 C103.783815,81.7194112 102.227046,81.4340095 101.442729,80.2980234" id="Fill-214-Copy" fill="#009CC5"></path>
                            <path d="M114.920055,73.9352093 C113.784077,74.7195922 112.227181,74.4341918 111.4428,73.2975859 C110.658419,72.1616046 110.943819,70.6047043 112.079797,69.8209459 C113.215775,69.036563 114.773296,69.321339 115.557677,70.4579448 C116.341433,71.5939261 116.056033,73.1514509 114.920055,73.9352093" id="Fill-216-Copy" fill="#009CC5"></path>
                            <path d="M120.442813,67.2980309 C119.658409,66.1620527 119.943817,64.6051568 121.079829,63.820776 C122.216465,63.0363952 123.773407,63.3217949 124.557187,64.4577731 C125.341591,65.5937513 125.056183,67.1512718 123.920171,67.9356526 C122.783535,68.7194088 121.227217,68.4340091 120.442813,67.2980309" id="Fill-218-Copy" fill="#009CC5"></path>
                            <path d="M130.442729,60.2978912 C129.658412,59.1619435 129.943789,57.6050892 131.080299,56.8207295 C132.216185,56.0363697 133.772954,56.3217618 134.557271,57.458334 C135.341588,58.5942818 135.056211,60.151136 133.919701,60.9354958 C132.783815,61.7192311 131.227046,61.4344635 130.442729,60.2978912" id="Fill-220-Copy" fill="#009CC5"></path>
                            <path d="M143.920055,53.9351944 C142.784077,54.7196038 141.227181,54.4341937 140.4428,53.2975495 C139.658419,52.1615298 139.943819,50.604577 141.079797,49.8207922 C142.215775,49.0363828 143.773296,49.3217929 144.557677,50.4578125 C145.341433,51.5938322 145.056033,53.1514095 143.920055,53.9351944" id="Fill-222-Copy" fill="#009CC5"></path>
                            <path d="M150.442729,46.2980309 C149.658412,45.1614282 149.943789,43.6051568 151.080299,42.820776 C152.216185,42.0363952 153.772954,42.3217949 154.557271,43.4577731 C155.341588,44.5937513 155.056211,46.1512718 153.919701,46.9356526 C152.783815,47.7194088 151.227046,47.4340091 150.442729,46.2980309" id="Fill-224-Copy" fill="#009CC5"></path>
                            <path d="M160.442298,39.2980234 C159.658586,38.1620373 159.94397,36.6051306 161.079884,35.8207444 C162.216423,35.0363582 163.772607,35.3217599 164.557568,36.4583705 C165.34128,37.5943566 165.056521,39.1512633 163.919357,39.9356495 C162.783443,40.7194112 161.226635,40.4340095 160.442298,39.2980234" id="Fill-226-Copy" fill="#009CC5"></path>
                            <path d="M174.919988,32.9352093 C173.78394,33.7195922 172.226948,33.4341918 171.442519,32.2975859 C170.658715,31.1616046 170.943507,29.6047043 172.08018,28.8209459 C173.216228,28.036563 174.77322,28.321339 175.557649,29.4579448 C176.341454,30.5939261 176.056037,32.1508264 174.919988,32.9352093" id="Fill-228-Copy" fill="#009CC5"></path>
                            <path d="M171.397684,31.920055 C170.61328,30.7840768 170.898688,29.2271809 172.0347,28.4428001 C173.171336,27.6584193 174.728278,27.943819 175.512057,29.0797972 C176.296461,30.2157754 176.011053,31.7732959 174.875041,32.5576766 C173.738405,33.3414329 172.182088,33.0560332 171.397684,31.920055" id="Fill-218-Copy-2" fill="#009CC5"></path>
                            <path d="M181.3976,24.9199153 C180.613283,23.7839675 180.898659,22.2271133 182.035169,21.4427535 C183.171055,20.6583938 184.727824,20.9437858 185.512141,22.0803581 C186.296458,23.2163059 186.011082,24.7731601 184.874571,25.5575199 C183.738686,26.3412551 182.181917,26.0564876 181.3976,24.9199153" id="Fill-220-Copy-2" fill="#009CC5"></path>
                            <path d="M194.874925,18.5572184 C193.738947,19.3416278 192.182051,19.0562177 191.397671,17.9195735 C190.61329,16.7835539 190.898689,15.2266011 192.034668,14.4428162 C193.170646,13.6584068 194.728166,13.9438169 195.512547,15.0798366 C196.296303,16.2158563 196.010904,17.7734336 194.874925,18.5572184" id="Fill-222-Copy-2" fill="#009CC5"></path>
                            <path d="M201.3976,10.920055 C200.613283,9.78345228 200.898659,8.22718086 202.035169,7.44280008 C203.171055,6.6584193 204.727824,6.943819 205.512141,8.07979721 C206.296458,9.21577543 206.011082,10.7732959 204.874571,11.5576766 C203.738686,12.3414329 202.181917,12.0560332 201.3976,10.920055" id="Fill-224-Copy-2" fill="#009CC5"></path>
                            <path d="M211.397169,3.92004751 C210.613457,2.78406142 210.89884,1.2271547 212.034755,0.442768477 C213.171293,-0.341617741 214.727477,-0.0562160678 215.512438,1.08039454 C216.29615,2.21638063 216.011391,3.77328735 214.874228,4.55767357 C213.738314,5.34143528 212.181505,5.0560336 211.397169,3.92004751" id="Fill-226-Copy-2" fill="#009CC5"></path>
                        </g>
                        <g id="Group-232" stroke-width="1" fill="none" transform="translate(228.000000, 0.000000)">
                            <mask id="mask-6" fill="white">
                                <use xlink:href="#path-5"></use>
                            </mask>
                            <g id="Clip-231"></g>
                            <path d="M0,36.9998041 C0,16.5651151 16.565273,-0.00039188204 36.9996734,-0.00039188204 C57.434727,-0.00039188204 74,16.5651151 74,36.9998041 C74,57.434493 57.434727,74 36.9996734,74 C16.565273,74 0,57.434493 0,36.9998041" id="Fill-230" fill="#009CC5" mask="url(#mask-6)"></path>
                        </g>
                        <path d="M253,22.00033 C253,15.3728585 258.373006,10 265.00066,10 C271.628314,10 277,15.3728585 277,22.00033 C277,28.6278015 271.628314,34 265.00066,34 C258.373006,34 253,28.6278015 253,22.00033" id="Fill-233" fill="#FFFFFF"></path>
                        <path d="M265,34 C253.402118,34 244,43.4021182 244,55 L286,55 C286,43.4021182 276.597882,34 265,34" id="Fill-235" fill="#FFFFFF"></path>
                        <path d="M464,102 C464,70.5195033 489.519503,45 521,45 C552.480497,45 578,70.5195033 578,102 C578,133.479844 552.480497,159 521,159 C489.519503,159 464,133.479844 464,102" id="Fill-237" fill="#009CC5"></path>
                        <g id="Group" stroke-width="1" fill="none" transform="translate(491.000000, 65.000000)">
                            <path d="M42.5038641,41 L17.4961359,41 C7.83330909,41 0,48.9669598 0,58.7949621 L0,66 L60,66 L60,58.7949621 C60,48.9669598 52.1668273,41 42.5038641,41 Z" id="Path" fill="#FFFFFF" fill-rule="nonzero"></path>
                            <circle id="Oval" fill="#FFFFFF" fill-rule="nonzero" cx="29.5" cy="22.5" r="15.5"></circle>
                            <path d="M10.2384705,29.6868096 C10.1942531,31.7090692 10.5747698,34.762884 12.8750347,36.889633 C12.8299934,37.079298 12.7997828,37.274521 12.7997828,37.4780808 C12.7997828,38.8709027 13.9156537,40 15.2921599,40 C16.6686661,40 17.784537,38.8709027 17.784537,37.4780808 C17.784537,36.0852589 16.6686661,34.9561617 15.2921599,34.9561617 C14.627938,34.9561617 14.0279823,35.2232211 13.5812769,35.6518779 C11.7727586,33.817338 11.5254434,31.2622101 11.5954771,29.5910739 C12.6977532,29.2285567 13.4999828,28.192833 13.4999828,26.9564674 L13.4999828,24.1737415 C13.4999828,23.0140755 12.7979976,22.0217038 11.8011841,21.6037461 C12.7732798,11.3191791 20.5482605,3.30433937 30.0000687,3.30433937 C39.4517395,3.30433937 47.2268575,11.3190401 48.1990906,21.6037461 C47.2021397,22.0215648 46.5000172,23.0139366 46.5000172,24.1737415 L46.5000172,26.9564674 C46.5000172,28.4932401 47.7312377,29.7390543 49.2500086,29.7390543 C50.7689168,29.7390543 52,28.4932401 52,26.9564674 L52,24.1737415 C52,22.7866165 50.993986,21.6459865 49.6816087,21.4352013 C49.7160762,20.9584682 49.7656491,20.4857647 49.7656491,19.9998611 C49.7656491,8.95427198 40.9164058,0 30.0000687,0 C19.0837315,0 10.2344882,8.95427198 10.2344882,20 C10.2344882,20.4859037 10.2840611,20.9586072 10.3185287,21.4353402 C9.00615136,21.6459865 8,22.7866165 8,24.1738804 L8,26.9566063 C8,28.3159416 8.9646804,29.4436493 10.2384705,29.6868096 Z" id="Path" fill="#FFFFFF" fill-rule="nonzero"></path>
                        </g>
                        <path d="M625,258.5 C625,237.237558 642.237558,220 663.5,220 C684.762442,220 702,237.237558 702,258.5 C702,279.763095 684.762442,297 663.5,297 C642.237558,297 625,279.763095 625,258.5" id="Fill-243" fill="#009CC5"></path>
                        <g id="Group" stroke-width="1" fill="none" transform="translate(640.000000, 242.000000)">
                            <path d="M3.29799764,26.8878437 L5.90341578,24.0086831 L14,15.0383502 L3.69375736,9.09696093 L3.29799764,8.86396527 L0,7 L0,27.869754 C0,28.6353111 0.164899882,29.3509407 0.478209658,30 L1.43462898,28.9681621 L3.29799764,26.9044863 L3.29799764,26.8878437 L3.29799764,26.8878437 Z" id="Path" fill="#FFFFFF" fill-rule="nonzero"></path>
                            <path d="M40.9282219,33 C41.6623165,33 42.3800979,32.8245614 43,32.4912281 L40.4877651,29.4912281 L38.6280587,27.2807018 L29.0685155,16 L25.4143556,18.245614 C24.6639478,18.7017544 23.8156607,18.9298246 22.9836868,18.9298246 C22.1517129,18.9298246 21.3034258,18.7017544 20.5530179,18.245614 L16.8988581,16 L7.32300163,27.2982456 L5.4959217,29.4912281 L3,32.5087719 C3.61990212,32.8245614 4.32137031,33 5.03915171,33 L40.9282219,33 Z" id="Path" fill="#FFFFFF" fill-rule="nonzero"></path>
                            <path d="M42.7020024,8.86531499 L41.5147232,9.53149891 L32,15.0275163 L40.8221437,24.8037654 L42.7020024,26.8855902 L42.7020024,26.9022448 L45.5217903,30 C45.8351001,29.3504707 46,28.634323 46,27.8682114 L46,7 L42.7020024,8.84866039 L42.7020024,8.86531499 Z" id="Path" fill="#FFFFFF" fill-rule="nonzero"></path>
                            <path d="M5.84548736,7.06538267 L22.1862816,16.7673594 C22.6844765,17.0775469 23.3155235,17.0775469 23.8137184,16.7673594 L40.6028881,6.80689306 L42.9277978,5.4282818 L43.7581227,4.92853523 L46,3.58438925 C45.3523466,1.51647238 43.4758123,0 41.267148,0 L4.73285199,0 C2.52418773,0 0.64765343,1.51647238 0,3.58438925 L2.24187726,4.92853523 L3.07220217,5.41104916 L3.07220217,5.4282818 L5.84548736,7.06538267 L5.84548736,7.06538267 Z" id="Path" fill="#FFFFFF" fill-rule="nonzero"></path>
                        </g>
                    </g>
                </g>
                <g id="Group-1" mask="url(#mask-2)">
                    <g transform="translate(1128.000000, 32.000000)" id="Homa-Images">
                        <g transform="translate(0.000000, 0.000000)">
                            <g id="Group-45" transform="translate(0.000000, 0.000000)">
                                <g id="Group-3" transform="translate(49.000000, -0.000000)">
                                    <mask id="mask-8" fill="white">
                                        <use xlink:href="#path-7"></use>
                                    </mask>
                                    <g id="Clip-2"></g>
                                    <path d="M55.2558924,2.04756771 C48.3181591,-1.56722867 42.7590259,0.704669722 42.7590259,0.704669722 C21.5323818,-1.79959222 15.3397523,23.0651239 15.6280338,31.6208227 C15.9117967,40.1751601 16.8873448,49.3648665 7.40749314,60.4792875 C-19.9751805,92.5840346 37.3738556,94 37.3738556,94 C37.8582408,68.3496954 68.4725588,77.7091361 67.1305588,80.3077958 C106.375247,89.7675341 71.0327514,10.2687901 55.2558924,2.04756771" id="Fill-1" fill="#163560" mask="url(#mask-8)"></path>
                                </g>
                                <path d="M22,108.917317 C22,108.917317 18.3425191,103.09411 15.3951082,102.980211 C12.4472547,102.865849 6.9889226,101.267557 7.4254121,102.408863 C7.86234428,103.550632 11.24713,103.664994 11.5738331,104.350241 C11.9014215,105.035024 6.55243311,106.062894 5.0238345,106.176793 C3.49567858,106.291155 -0.10690917,106.176793 0.00243454749,106.976402 C0.111778265,107.775548 6.49576916,111.086955 10.9992252,110.62997 C15.5040093,110.173448 21.0712424,112 21.0712424,112 L22,108.917317 Z" id="Fill-4" fill="#FFB27D"></path>
                                <path d="M76,110.752074 C76,110.752074 73.9798889,114.80293 70.3157106,119.45695 C65.8998945,125.058538 59.0910721,131.529794 50.5419225,132.807189 C46.4589681,133.417186 42.4655266,132.527474 38.7950509,130.876062 C38.7856048,130.872418 38.7820063,130.872418 38.7820063,130.872418 C28.3994181,126.204731 20.5920104,115.470328 20.5920104,115.470328 C18.7626201,110.414959 21.7570266,106.987311 21.7570266,106.987311 C21.7570266,106.987311 42.7223699,111.762966 44.7186409,110.752074 C46.7153616,109.740727 58.3628246,75.7585481 61.1345735,71.4881115 C63.9099209,67.217675 73.360946,65 73.360946,65 L76,110.752074 Z" id="Fill-6" fill="#F99746"></path>
                                <path d="M70.3438029,119.345402 C65.9527631,124.99315 59.1821438,131.517733 50.680962,132.805655 C46.6209164,133.420679 42.6498813,132.523175 39,130.858155 C39.403455,130.912814 49.7152642,132.220486 53.824959,124.670251 C58.0174023,116.966605 62.5506801,104.733644 68.7787373,108.810991 C71.4656046,110.571549 71.3466256,114.944696 70.3438029,119.345402" id="Fill-8" fill="#ED7D2B"></path>
                                <g id="Group-12" transform="translate(131.000000, 335.000000)">
                                    <mask id="mask-10" fill="white">
                                        <use xlink:href="#path-9"></use>
                                    </mask>
                                    <g id="Clip-11"></g>
                                    <path d="M23.5941046,2.80147275 C23.5941046,2.80147275 30.1068233,8.7166045 28.8356022,12.919953 C27.5652969,17.12239 21.6881887,19.9243185 20.8941334,25.0610355 C20.0991623,30.1982082 16.9229411,33.0001367 14.0636094,33.0001367 L0.431868963,33.0001367 C0.431868963,33.0001367 -1.67278969,29.3856125 3.4102632,28.2950115 C8.49331609,27.2057778 10.4097644,21.1698732 10.092417,15.566472 C9.77461176,9.96215924 10.568667,2.490198 10.568667,2.490198 L21.3703834,0 L23.5941046,2.80147275 Z" id="Fill-10" fill="#36599E" mask="url(#mask-10)"></path>
                                </g>
                                <path d="M100.096918,341 C100.096918,341 102.438565,365.623353 99.580519,367 L63,366.927003 C63,366.927003 63,362.796614 68.8754068,361.878998 C74.7508136,360.960935 85.072833,357.596345 86.8197983,350.100918 C88.5663058,342.605939 100.096918,341 100.096918,341" id="Fill-13" fill="#2B478B"></path>
                                <path d="M125.836505,162.552862 C118.396438,145.84112 113.844074,141.044583 114.713281,135.857852 C115.35987,131.997148 112.7432,63.8785334 112.7432,63.8785334 C111.860418,63.6043549 110.090784,63.3587273 109.123389,63.1434632 C106.070984,62.4645883 103.545262,60.3178391 102.49416,57.3694012 C101.227678,53.8173175 100.221371,48.5721253 100.244447,42 L99.2915325,42.1876196 L83.2666329,45.3658236 C83.2666329,45.3658236 83.6313287,50.4175048 83.6417357,55.1759736 C83.6417357,55.2149478 83.6421882,55.2543751 83.6421882,55.2938024 C83.6620971,59.4264193 80.9553841,63.0741255 76.990787,64.2206899 C74.9664081,64.805755 73.205823,65.3051676 73.205823,65.3051676 C73.205823,65.3051676 67.3209166,82.1315667 66.1969655,99.417951 C65.0730145,116.703429 76.8975769,124.212293 66.1078277,158.755151 C55.0927454,194.034892 129.9468,171.787464 125.836505,162.552862" id="Fill-15" fill="#FFB27D"></path>
                                <path d="M83,45.1811647 C83,45.1811647 83.3641292,50.2370983 83.37452,55 C92.3282132,54.7464322 97.0609894,46.5456227 99,42 L83,45.1811647 Z" id="Fill-17" fill="#E8945B"></path>
                                <path d="M80.1810757,49.9991146 C80.1810757,49.9991146 101.743134,50.3503573 101.757849,37.0613705 C101.772564,23.7723838 104.565593,14.8675615 90.7995537,14.0813602 C77.0335145,13.2947038 74.3531443,18.3626997 73.2578206,22.7969117 C72.1624969,27.2315788 74.5734046,49.5650659 80.1810757,49.9991146" id="Fill-19" fill="#FFB27D"></path>
                                <path d="M81,13.6266173 C81,13.6266173 86.7024675,28.7863267 95.4531502,31.0279658 C104.204277,33.2687201 108,30.9337347 108,30.9337347 C108,30.9337347 101.287975,25.6222843 99.8946702,16.3509145 C99.8946702,16.3509145 85.3016121,6.41063637 81,13.6266173" id="Fill-21" fill="#163560"></path>
                                <path d="M83,15.4741639 C83,15.4741639 78.5887839,17.0507102 76.7739815,20.1254182 C74.9980975,23.1323702 73.4863027,27.114478 73.8370316,32 C73.8370316,32 69.3553917,21.6851362 74.3920823,15.8510293 C79.7322437,9.66397098 83,15.4741639 83,15.4741639" id="Fill-23" fill="#163560"></path>
                                <path d="M85,40.8764025 C85,40.8764025 83.4717137,43.1558703 80.4132514,42.9915216 C77.9500413,42.8592932 77,40.4379609 77,40.4379609 C77,40.4379609 81.5248612,39.2050783 85,40.8764025" id="Fill-25" fill="#EBF3FA"></path>
                                <path d="M127.759095,94.0627532 C127.759095,94.0627532 128.301132,101.652814 127.759095,110.761068 C127.397888,116.798123 121.245539,124.884603 120.372358,126.8852 C118.182346,131.901837 115.712205,132.718352 115.712205,132.718352 L96.6019787,137.36697 L89.8829954,139 L68.6934419,132.718352 C68.6934419,132.718352 59.0424475,105.97998 62.9177854,90.9282588 C66.7931234,75.8769893 72.7136267,65.4246058 72.7136267,65.4246058 C72.7136267,65.4246058 90.0037012,82.2287146 112.517374,64 L127.759095,94.0627532 Z" id="Fill-27" fill="#F99746"></path>
                                <path d="M70.1015592,137 C70.1015592,137 59.6855492,169.405719 59.015926,180.438857 C58.3476592,191.471543 78.9278356,337.172322 79.7557088,342.255953 C80.536107,347.048096 86.4894691,350.103065 86.4894691,350.103065 C86.4894691,350.103065 89.2276449,351.717318 93.1355137,350.614637 C98.5576082,349.084441 100.271229,347.252363 100.271229,347.252363 C100.271229,347.252363 108.378598,243.339131 103.362076,206.21945 C98.3441969,169.09977 98.2849662,137 98.2849662,137 L70.1015592,137 Z" id="Fill-29" fill="#233862"></path>
                                <path d="M114.545642,135 C114.545642,135 130.373146,156.325287 131.848206,170.741 C133.323716,185.156713 134.163262,235.793753 137.306603,249.847637 C140.450394,263.900617 152,290.94506 152,334.778814 C152,334.778814 150.799234,337.291263 147.092893,338.629577 C145.90744,339.05744 144.318879,339.472639 142.777161,339.827683 C139.720296,340.53144 136.583711,339.031207 135.188822,336.210299 C127.379788,320.422803 102.506902,269.503536 101.23137,258.934064 C100.329218,251.453705 92.4751444,201.947832 75.3441828,172.898856 C71.231581,165.925058 77.8682241,138.190878 77.8682241,138.190878 L114.545642,135 Z" id="Fill-31" fill="#2B478B"></path>
                                <path d="M84,41.851785 C84,41.851785 83.6527384,43.1836638 79.9861522,42.9785212 C79.9861522,42.9785212 76.9083266,42.8062788 77.0021001,41.342412 C77.0021001,41.342412 79.9865804,40.3004424 84,41.851785" id="Fill-33" fill="#FFFFFF"></path>
                                <path d="M68.5952052,131 C68.5952052,131 72.8081462,134.325491 81.1766349,134.494153 C91.1726335,134.694637 115.942394,131.950595 115.942394,131.950595 C115.942394,131.950595 117.042888,135.01923 116.998704,138.259709 C116.998704,138.259709 86.7465174,145.875834 69.2183324,139.372146 C69.2183324,139.372146 66.9576743,135.126519 68.5952052,131" id="Fill-35" fill="#233862"></path>
                                <path d="M79.5,134.464243 C77.8413721,134.464243 76.491462,136.050249 76.491462,137.999779 C76.491462,139.949751 77.8413721,141.535757 79.5,141.535757 C81.1581786,141.535757 82.508538,139.949751 82.508538,137.999779 C82.508538,136.050249 81.1581786,134.464243 79.5,134.464243 M79.5,143 C77.0190234,143 75,140.757092 75,137.999779 C75,135.242908 77.0190234,133 79.5,133 C81.9809766,133 84,135.242908 84,137.999779 C84,140.757092 81.9809766,143 79.5,143" id="Fill-37" fill="#FFFFFF"></path>
                                <polygon id="Fill-39" fill="#B5453C" points="148 137.172452 117.433229 164 81 121.826642 111.566321 95"></polygon>
                                <path d="M108.921753,138 C108.921753,138 97.9653643,139.273776 98,141.859782 C98.0343609,144.445787 100.729621,149.758504 102.083184,149.994469 C103.436747,150.230872 111,142.810198 111,142.810198 L108.921753,138 Z" id="Fill-41" fill="#FFB27D"></path>
                                <path d="M112.773357,64 C112.773357,64 127.6998,65.0574624 133.42194,79.1167719 C139.143631,93.1747215 150,116.779295 150,120.750331 C150,124.720915 143.93525,136.962187 111.367487,144 C111.367487,144 107.999227,140.41877 108.203718,137.58633 C108.203718,137.58633 128.533457,119.936724 128.478298,117.873925 C128.375156,113.971784 125.145914,108.820904 107.296965,90.7742411 C102.443909,85.8681232 112.773357,64 112.773357,64" id="Fill-43" fill="#F99746"></path>
                            </g>
                        </g>
                    </g>
                </g>
            </g>
        </g>
    </g>
</svg>