<?xml version="1.0" encoding="UTF-8"?>
<svg width="1052px" height="540px" viewBox="0 0 1052 540" version="1.1" xmlns="http://www.w3.org/2000/svg" xmlns:xlink="http://www.w3.org/1999/xlink">
    <title>HomePage_Immage2</title>
    <defs>
        <polygon id="path-1" points="-2.32466001e-14 0 1005 0 1005 540 -2.32466001e-14 540"></polygon>
        <polygon id="path-3" points="0 0 1052 0 1052 3 0 3"></polygon>
    </defs>
    <g id="Page-1" stroke="none" stroke-width="1" fill="none" fill-rule="evenodd">
        <g id="01-Home-Dark" transform="translate(102.000000, -1130.000000)">
            <g id="Homa-Images-Copy" transform="translate(0.000000, 942.000000)">
                <g id="HomePage_Immage2" transform="translate(424.000000, 458.000000) scale(-1, 1) translate(-424.000000, -458.000000) translate(-102.000000, 188.000000)">
                    <g id="Group-3" transform="translate(22.000000, 0.000000)">
                        <mask id="mask-2" fill="white">
                            <use xlink:href="#path-1"></use>
                        </mask>
                        <g id="Clip-2"></g>
                        <path d="M148.449504,537.000776 C148.449504,537.000776 -54.9783208,333.540286 71.3522358,211.889662 C197.682792,90.2390375 297.531649,248.165189 366.584295,236.529558 C453.988953,221.801935 491.788579,0.210832475 622.452052,-0.000118884589 C771.122376,-0.238703719 880.241914,87.5851392 822.11664,296.74207 C779.245928,451.008589 1073.92589,324.67911 1030.64622,540 L148.449504,537.000776 Z" id="Fill-1" fill-opacity="0.3" fill="#009CC5" mask="url(#mask-2)"></path>
                    </g>
                    <path d="M582.464411,510.321051 C554.808329,505.898738 533.928337,515.524777 513.851186,512.757936 C497.840997,510.551452 489.496444,494.456311 467.980478,489.898277 C473.098536,486.899003 479.06156,483.148793 481.910561,480.421774 C487.447421,475.12215 495.400983,464.525339 481.910561,464.108423 C472.204491,463.808943 464.645192,479.871982 461.167988,488.908407 C457.981983,488.643466 454.532181,488.622742 450.776866,488.897435 C455.218051,474.67679 463.877115,447.1506 465.995666,441.862353 C468.878203,434.666697 456.770564,410.676164 442.499796,437.600548 C432.491076,456.485692 439.287615,478.307939 444.239624,489.657311 C440.328895,490.283903 436.641063,491.188034 433.116416,492.282742 C421.32247,465.552187 383.807767,389.3391 343.140595,398.809507 C298.806041,409.133251 393.789903,460.369185 417.745065,498.356058 C398.175875,507.368102 380.979625,518.316406 351.256934,510.321051 C272.265674,489.074198 266,536.880533 266,536.880533 L619,537 C619,537 610.119674,514.743771 582.464411,510.321051" id="Fill-4" fill="#ACD29A"></path>
                    <path d="M486.485868,338.997592 C486.846213,342.467195 491.610143,342.341476 496.993833,341.510308 C502.377523,340.678723 500.986,342.137652 508.557296,341.986454 C516.127781,341.836092 518.653033,339.169255 518.983383,338.042793 C519.278063,337.042886 515.606923,336.335349 511.675961,335.490815 C511.181855,335.386397 510.685317,335.275297 510.189184,335.164196 C505.755604,334.163453 502.735031,330.872613 498.877841,328.040795 C495.22413,325.358504 492.762111,313.065157 492.762111,313.065157 L482,313 C482,313 485.381729,324.116765 487.14292,327.983157 C488.178962,330.256964 487.075229,333.176494 486.727855,335.366767 C486.541805,336.557133 486.357376,337.774647 486.485868,338.997592" id="Fill-6" fill="#FFB07B"></path>
                    <path d="M497.370259,339.557056 C502.661848,338.805234 501.294529,340.124511 508.735901,339.988125 C516.176875,339.85174 518.659325,337.439866 518.983625,336.420563 C519.273663,335.516488 515.664928,334.876118 511.801215,334.112584 L511.757789,334.180588 C511.757789,334.180588 507.054242,336.768894 500.908875,336.378249 C495.899753,336.061275 490.736449,334.245192 487.279904,334 C487.097037,335.077107 486.915764,336.178393 487.042058,337.284213 C487.396238,340.422595 492.078669,340.308877 497.370259,339.557056" id="Fill-8" fill="#365DA4"></path>
                    <path d="M403.017163,337.246313 C403.246307,340.64048 407.931209,340.698712 413.25054,340.092364 C418.569474,339.486015 417.150374,340.85427 424.594171,340.994353 C432.03717,341.134436 434.614344,338.631671 434.979381,337.546433 C435.304964,336.583361 431.723143,335.755078 427.891455,334.783455 C427.409654,334.662918 426.92626,334.536273 426.442467,334.409221 C422.122602,333.266158 419.273245,329.94529 415.585419,327.0406 C412.092067,324.289023 414.965734,312.874278 414.965734,312.874278 L406.937321,309 C406.937321,309 405.833046,320.763732 405.237271,326.71401 C404.993382,329.150399 403.805818,331.597783 403.385388,333.718171 C403.15983,334.871414 402.935468,336.050312 403.017163,337.246313" id="Fill-10" fill="#FFB07B"></path>
                    <path d="M413.250511,340.127492 C418.569839,339.544611 417.150342,340.85991 424.594132,340.994572 C432.037524,341.129233 434.614298,338.723332 434.979334,337.680097 C435.305316,336.754299 431.723099,335.958073 427.891414,335.024054 L427.845585,335.092951 C427.845585,335.092951 423.041134,337.599065 416.913626,336.96686 C411.919484,336.452876 406.830496,334.382063 403.385367,334 C403.160208,335.108609 402.935447,336.24188 403.017142,337.391592 C403.246286,340.654395 407.931184,340.709982 413.250511,340.127492" id="Fill-12" fill="#365DA4"></path>
                    <path d="M420.941021,167.000619 C420.941021,167.000619 418.683944,178.065287 416.421608,234.180158 C416.421608,234.180158 412.229027,244.570405 409.187636,257.274647 C406.146246,269.978479 404,322.989052 404,322.989052 C404,322.989052 405.212269,324.759252 408.894783,324.98283 C411.901387,325.16546 414.240981,323.830952 414.240981,323.830952 C414.240981,323.830952 435.385099,254.39966 445.677046,227.444965 C455.969398,200.489451 462,162 462,162 L420.941021,167.000619 Z" id="Fill-14" fill="#2B478B"></path>
                    <path d="M447,172.046905 C447,172.046905 448.698393,183.19721 466.086527,236.532058 C466.086527,236.532058 465.700041,247.727729 467.220025,260.687782 C468.739596,273.647835 486.340338,324.673089 486.340338,324.673089 C486.340338,324.673089 488.676967,325.478647 492.18459,324.560695 C495.44417,323.707318 498,321.761879 498,321.761879 C498,321.761879 491.252987,248.830826 491.697157,219.990518 C492.141327,191.150211 484.49485,153 484.49485,153 L447,172.046905 Z" id="Fill-16" fill="#2B478B"></path>
                    <path d="M476.735826,17.4113118 C474.028998,15.6957547 470.699374,15.3571257 468.357139,15.378723 C468.989755,14.7902991 470.183379,14.6240408 470.183379,14.6240408 C468.746284,14.3375713 465.44244,15.6069206 465.44244,15.6069206 C445.688937,6.8755089 441.040477,36.2514709 441.119042,43.1344818 C441.195153,50.0158628 440.849792,57.9163906 430.486098,63.5695793 C410.09466,74.6925837 425.725518,96.6614952 425.725518,96.6614952 C422.054625,107.150029 435.643598,120 435.643598,120 C435.41363,114.42994 461.087781,78.9435795 474.930864,70.8478611 C478.433578,66.2268592 480.017573,57.8340765 480.137877,57.1731183 C479.238465,63.845454 477.898759,67.5463305 476.763651,69.611519 C488.635639,59.7741638 483.909841,21.9569271 476.735826,17.4113118" id="Fill-18" fill="#C65447"></path>
                    <path d="M472.999421,65.6297401 C473.072649,65.6608715 466.181945,69.0186115 460.997442,67.6884532 C456.120493,66.4411771 452.935099,60.5060027 453.001004,60.4922564 C455.066018,60.1073596 455.663037,57.4438086 455.61867,46 L456.552535,46.1722333 L471.685204,48.9865894 L472.249055,49.0896868 C472.249055,49.0896868 471.88981,53.7254299 471.87861,58.0935242 C471.875595,59.0177618 471.88981,59.9282531 471.926854,60.7809291 C472.028942,63.3167202 472.329175,65.3345986 472.999421,65.6297401" id="Fill-20" fill="#FFB07B"></path>
                    <path d="M470.632602,60.2981244 C470.62918,61.2277452 470.643294,62.1431392 470.680077,63 C461.940362,62.6650601 456.901574,53.1668312 455,49 L470.440562,51.142152 L471,51.2458045 C471,51.2458045 470.643294,55.9065095 470.632602,60.2981244" id="Fill-22" fill="#EA8E50"></path>
                    <path d="M456.480719,46 C456.480719,46 452.162543,39.0093348 451.126439,33.0318274 C450.386134,28.7638946 452.508045,12.9450509 468.022525,15.2231036 C468.022525,15.2231036 472.528606,15.6781344 476.763942,18.6095434 C480.132491,20.9405933 484.994177,25.9728454 479.55827,39.7769664 L478.146356,44.4398942 L456.480719,46 Z" id="Fill-24" fill="#C65447"></path>
                    <path d="M472.961261,56.9953038 C472.961261,56.9953038 453.311415,54.4389804 455.117259,42.4198536 C456.923102,30.4011311 455.603226,21.9765436 468.225646,23.1004688 C480.848065,24.224394 482.590647,29.1648134 482.979667,33.3205066 C483.368277,37.4766042 478.119582,57.3502701 472.961261,56.9953038" id="Fill-26" fill="#FFB07B"></path>
                    <path d="M478,23.5195945 C478,23.5195945 470.458441,37.8662717 461.85999,38.8109519 C453.261538,39.7560679 450,36.8501304 450,36.8501304 C450,36.8501304 457.103769,32.524994 459.734641,23.4394187 C459.734641,23.4394187 474.951162,15.6475498 478,23.5195945" id="Fill-28" fill="#C65447"></path>
                    <path d="M475,24.9839408 C475,24.9839408 478.528327,29.0462821 479.042165,32.5304245 C479.555183,36.0141273 479.041345,42.9353648 480.937456,43 C480.937456,43 486.427151,33.2233837 482.70675,26.6033372 C478.762263,19.5831683 475,24.9839408 475,24.9839408" id="Fill-30" fill="#C65447"></path>
                    <path d="M605.164369,190.596879 C601.081699,181.915432 589.731182,174.732012 580.168334,174.728745 C573.105537,174.727111 566.876768,177.146089 562.056491,181.087597 C559.300536,183.340763 555.143412,181.854988 554.395635,178.3664 L546.025651,139.327458 C544.805121,133.635121 539.218351,130.012985 533.547772,131.238197 L398.104809,160.500762 C392.564012,161.697794 389.039123,167.176536 390.231987,172.738591 L419.350158,308.552569 C420.182965,312.437309 423.021103,315.368017 426.539483,316.493987 L424.761578,317 L430.019619,317 L430.062337,316.99224 C430.705149,316.973454 431.355692,316.899124 432.008268,316.758225 L434.957474,316.121114 L469.718152,308.610971 C474.596201,307.557288 476.576713,301.632978 473.299185,297.856056 C470.132725,294.207782 467.854403,289.689199 466.883269,284.570261 C464.148062,270.145836 473.031889,255.857409 487.15016,252.017593 C502.853898,247.746503 518.713864,257.587409 522.092696,273.349358 C523.364081,279.278978 522.682212,285.173883 520.480784,290.359798 C519.6256,292.374456 520.332693,294.46671 521.801803,295.65925 L519.77369,296.652489 L524.471915,296.64963 L524.471915,296.649222 C524.823427,296.657799 525.186332,296.627577 525.556559,296.547529 L567.063103,287.5802 C572.736123,286.354171 576.345229,280.743923 575.124293,275.049136 L566.805978,236.250743 C566.035824,232.660463 569.297892,229.513709 572.841903,230.427717 C576.938813,231.484667 581.33638,231.6272 585.753476,230.673168 C603.12161,226.920751 613.27316,207.839293 605.164369,190.596879" id="Fill-32" fill="#D86713"></path>
                    <path d="M575.167966,174.728784 C568.105981,174.726742 561.876804,177.14613 557.056118,181.087233 C554.300568,183.340809 550.143444,181.854625 549.395666,178.366034 L541.02568,139.327057 C539.80515,133.635124 534.218785,130.012985 528.547797,131.238198 L393.104793,160.50038 C387.564401,161.697822 384.039105,167.176568 385.231969,172.738629 L414.350148,308.552724 C415.588579,314.327155 421.255499,318.001162 427.008262,316.758387 L464.718158,308.610718 C469.596615,307.557034 471.577128,301.632719 468.298785,297.855794 C465.132731,294.207925 462.854409,289.688929 461.883681,284.569988 C459.148066,270.146366 468.031896,255.85711 482.149764,252.017291 C497.854321,247.746197 513.713885,257.58752 517.093125,273.349483 C518.364917,279.279107 517.682234,285.174018 515.481212,290.359938 C514.050751,293.729683 516.988973,297.317925 520.556581,296.547266 L562.063138,287.579929 C567.735753,286.353898 571.345267,280.744054 570.124737,275.049262 L561.805606,236.250836 C561.036265,232.660552 564.298335,229.513795 567.84194,230.427805 C571.938851,231.484755 576.336827,231.62688 580.753924,230.672847 C598.121249,226.920835 608.273209,207.838952 600.164416,190.596932 C596.081337,181.915478 584.732038,174.732051 575.167966,174.728784" id="Fill-34" fill="#F1A34F"></path>
                    <path d="M525,122 C525,122 533.861247,123.463727 536.183563,129.272181 C538.50588,135.080634 535.263086,139.013728 534.0153,139 C532.767086,138.98663 530.376918,138.057553 529.256727,135.044934 C528.136536,132.033175 525,122 525,122" id="Fill-36" fill="#FFB07B"></path>
                    <path d="M408,147 C408,147 417.124106,146.987081 420.4062,152.920035 C423.688295,158.85342 421.084148,163.748096 419.830415,163.960833 C418.576682,164.173139 416.027726,163.591342 414.410359,160.499764 C412.79221,157.407324 408,147 408,147" id="Fill-38" fill="#FFB07B"></path>
                    <path d="M526.567969,129.735365 C525.731299,129.553418 522.069802,129.114845 517.41281,128.368489 C508.839067,126.998312 496.884202,124.586784 492.873452,120.819519 C491.787604,119.796321 489.256524,114.168322 486.626989,107.715989 C483.966256,122.000734 483.819585,132.956787 484.523766,141.297498 L426.56743,154 C431.537211,143.769675 439.228501,131.084913 437.786105,120.819519 C437.252095,117.013472 435.203975,111.791451 434.438208,105.924568 C434.373787,105.419983 434.319089,104.915811 434.274926,104.403799 C426.147271,111.216727 416.757521,118.734341 416.532653,120.238194 C416.158684,122.757818 422.486586,150.658105 422.486586,150.658105 C420.914942,154.341616 414.09071,153.566791 414.09071,153.566791 C407.69393,148.916193 398.287568,122.561018 399.042799,116.723015 C399.794385,110.884188 423.11581,77.6108766 428.760195,69.6588163 C434.336106,61.8012367 454.691303,61.9976246 455.18115,62.0009252 L455.184796,62.0009252 L455.191279,62.0009252 C471.37852,71.8978861 472.838338,63.672698 472.838338,63.672698 C472.838338,63.672698 487.443401,66.5009316 489.954222,70.8924294 C492.465043,75.2868154 503.471006,108.60221 504.249737,109.776412 C505.87932,112.22961 532.487462,122.046118 532.963939,124.888379 C533.447303,127.730641 528.953188,130.250677 526.567969,129.735365" id="Fill-40" fill="#80BDCC"></path>
                    <path d="M444.953648,148.554862 L425,153 C429.967909,142.715082 436.499241,129.905831 435.071037,119.621329 C434.536961,115.781383 433.33959,111.237251 432.761908,105.296398 C432.7063,104.72365 432.610286,103 432.610286,103 C432.610286,103 446.741103,114.561434 446.989538,127.073704 C447.118757,133.564845 446.028601,142.056235 444.953648,148.554862" id="Fill-42" fill="#5F9AA8"></path>
                    <path d="M517,129 C508.411114,127.613036 496.433589,125.175947 492.41622,121.36732 C491.327573,120.333037 488.791004,114.640105 486.156598,108.11216 C486.156598,108.11216 485.233153,97.6188401 487.871168,98.0107086 C490.509583,98.4025771 494.391423,117.014245 497.160958,118.189433 C499.640988,119.243726 513.34832,124.713626 517,129" id="Fill-44" fill="#5F9AA8"></path>
                    <path d="M948.841422,519.979167 C947.611536,524.202346 941.928864,527.017245 941.159624,532.178862 C940.7854,534.697827 939.863698,536.655639 938.692513,538 L921,538 C921.176921,537.00802 921.953091,535.93967 924.25388,535.428323 C929.166904,534.334239 931.020906,528.269879 930.715575,522.639251 C930.58798,520.278836 930.646682,517.587208 930.760824,515.258753 C930.916547,512.034195 931.17663,509.501118 931.17663,509.501118 L941.620679,507 L942.718486,508.435673 L943.77186,509.814899 C943.77186,509.814899 950.068456,515.755988 948.841422,519.979167" id="Fill-46" fill="#2C3A64"></path>
                    <path d="M865.523878,537 L830,537 C830.805099,535.989278 832.170531,535.011538 834.477807,534.609246 C839.945197,533.657544 849.412594,530.25303 851.524057,522.757891 C851.59243,522.517905 851.654734,522.270974 851.706114,522.019704 C853.381044,514.008138 865.578495,524.472951 865.578495,524.472951 C865.578495,524.472951 865.616525,524.79409 865.671547,525.340028 C865.885161,527.593647 866.35932,533.713526 865.523878,537" id="Fill-48" fill="#2C3A64"></path>
                    <path d="M835,336.242228 C835,336.242228 836.897208,359.64921 839.126706,387.785124 C842.156686,426.006694 845.8007,472.954659 846.161166,481.848657 C846.784315,497.292266 849.285613,521.996221 849.285613,521.996221 C849.285613,521.996221 855.214645,527.865178 867.083069,525.391709 C867.083069,525.391709 877.658375,490.125926 880.679654,452.813672 C880.726059,452.201861 880.773707,451.585953 880.820526,450.969634 C883.630498,412.984921 888,333 888,333 L835,336.242228 Z" id="Fill-50" fill="#35488B"></path>
                    <path d="M835,337.220209 C835,337.220209 836.897208,360.468232 839.126706,388.413071 L880.679654,453 C880.726059,452.392344 880.773707,451.780618 880.820526,451.168486 C883.630498,413.441732 888,334 888,334 L835,337.220209 Z" id="Fill-52" fill="#2C3A64"></path>
                    <path d="M845,340.298668 C845,340.298668 878.77102,425.135656 900.976326,465.004713 C923.18204,504.87336 930.121224,516 930.121224,516 C930.121224,516 942.843469,510.900307 944,507.423412 C944,507.423412 935.508135,430.454346 920.637755,411.691906 C912.234697,401.089384 902.36449,369.272797 901.901632,358.146978 C901.439183,347.020748 898.894898,325 898.894898,325 L845,340.298668 Z" id="Fill-54" fill="#35488B"></path>
                    <path d="M861.906057,208.836915 C860.405427,200.000777 860.36004,194.763051 860.36004,194.763051 L877.479493,181 C876.843258,199.924501 889,209.024952 889,209.024952 C889,209.024952 866.186738,220.227265 853,216.0782 C853,216.0782 856.246187,211.938516 861.906057,208.836915" id="Fill-56" fill="#935C2F"></path>
                    <path d="M855.347662,195.569072 C855.347662,195.569072 877.629744,199.140946 879.721409,185.717657 C881.813073,172.294368 886.097638,163.714845 871.959242,160.86671 C857.821264,158.018979 854.252885,162.73923 852.425189,167.05543 C850.597911,171.372437 849.605207,194.29395 855.347662,195.569072" id="Fill-58" fill="#A16D3C"></path>
                    <path d="M780,222.564201 L775.464825,219.794006 C775.464825,219.794006 769.807859,211.558778 760.146209,216.675414 C760.146209,216.675414 756.318355,219.081827 758.886793,221.096838 C761.455232,223.111849 760.764714,221.973153 764.322522,224.892097 C767.88073,227.811042 772.484716,228.853466 775.454023,227.244456 L779.262274,226.889747 L780,222.564201 Z" id="Fill-60" fill="#A16D3C"></path>
                    <path d="M773.500538,224.210425 C774.693046,220.48087 775.260906,220.151912 775.260906,220.151912 C775.260906,220.151912 812.725825,224.574483 816.257591,224.835283 C819.790175,225.09649 868.839861,215 868.839861,215 L892,243.09696 C892,243.09696 823.714543,245.669039 814.777885,244.832766 C800.009421,243.450406 773.229681,229.714151 773.229681,229.714151 C773.229681,229.714151 772.563364,227.139624 773.500538,224.210425" id="Fill-62" fill="#D3782F"></path>
                    <path d="M900.998945,329.62 C901.063926,331.071931 898.109123,332.665662 896.826461,333.249213 C887.164929,337.635653 878.166118,340.681316 867.999674,341.67229 C855.940315,342.9248 841.688566,340.178677 836.802102,340.243652 C836.279028,340.243652 835.82376,340.047909 835.432665,339.717312 C835.106955,339.452508 834.845014,324.538039 835.106955,305.733639 C835.106955,305.00747 835.106955,304.212647 835.171128,303.486886 L835.171128,303.225351 C835.190098,301.266695 835.220368,299.276982 835.262343,297.268063 C835.383829,291.77214 835.588861,286.129513 835.82376,280.522438 C836.176915,272.256691 836.66205,264.132746 837.333248,256.935617 C838.03512,249.418515 838.926687,242.908734 840.061224,238.291816 C842.666908,227.667755 848.664501,220.670047 854.138616,215.52311 L858.633985,211.501594 C863.128951,212.423506 867.889893,212.158293 872.646799,209.784859 C877.7948,207.211186 883.401298,204.438093 884.311834,205.098879 C891.261131,210.356968 895.938931,222.294427 898.33595,237.465936 C899.625876,245.631563 900.255502,254.730546 900.221599,264.232865 C900.206666,267.877607 900.096481,271.576699 899.887817,275.310118 C898.727044,295.347821 899.918087,312.720314 900.600989,322.817626 C900.797949,325.721078 900.954145,328.029538 900.998945,329.62" id="Fill-64" fill="#E69D43"></path>
                    <path d="M785.266181,142.949225 L647.311049,121.134154 C641.445105,120.206435 635.935058,124.1889 635.003338,130.02966 L628.89699,168.315321 C628.614403,170.088795 629.065724,175.072382 629.065724,175.072382 L634.038036,175.809256 C634.320214,175.870424 634.607716,175.914058 634.899723,175.937302 C635.799498,176.009073 636.738999,175.897746 637.675633,175.560505 C642.250275,173.911815 647.318011,173.410235 652.470933,174.351819 C666.992655,177.003262 677.151472,190.494955 675.605431,205.114184 C673.885743,221.375579 658.877479,232.681116 642.867462,230.149563 C636.844662,229.196969 631.565599,226.426044 627.506168,222.488435 C626.719019,221.724646 625.771736,221.320935 624.814625,221.223066 L619.612557,220.44582 L613.132702,267.148243 C612.214498,272.90826 616.158846,278.318802 621.943699,279.23388 L661.353191,285.465709 C665.000208,286.041915 666.76167,290.237246 664.612777,293.227561 C662.128873,296.685203 660.391984,300.754935 659.676915,305.239389 C656.864554,322.872993 671.054543,339.285678 690.177528,337.920401 C699.805162,337.232869 710.677409,329.19372 714.166341,320.231745 C716.742802,313.614148 716.744441,306.901536 714.806463,300.95883 C713.697819,297.561541 716.607242,294.202992 720.150234,294.763294 L759.804635,301.033863 C765.586622,301.948533 771.018855,298.022342 771.93706,292.264772 L793.870356,154.751857 C794.767265,149.126818 790.915064,143.84269 785.266181,142.949225" id="Fill-66" fill="#4A75CB"></path>
                    <path d="M885,236 C885,236 874.273631,285.068401 834,296 C834.125049,290.523205 834.336095,284.900216 834.577884,279.312248 C834.941398,271.075676 835.440762,262.980005 836.131647,255.807925 C836.850367,255.443864 837.52588,255.160841 838.143231,254.961707 C851.809286,250.544517 885,236 885,236" id="Fill-68" fill="#D3782F"></path>
                    <path d="M710.165914,320.231744 C712.742383,313.613739 712.74484,306.901942 710.806038,300.958828 C709.697801,297.561539 712.607232,294.203398 716.150234,294.763292 L755.804751,301.034269 C761.586754,301.948531 767.018593,298.021933 767.93721,292.265178 L789.870161,154.751848 C790.767891,149.126809 786.91486,143.842681 781.26596,142.949624 L643.310837,121.134144 C637.445286,120.206424 631.934813,124.189298 631.0035,130.02965 L624.896725,168.315721 C624.106707,173.268316 628.939377,177.266686 633.675394,175.560089 C638.249639,173.911807 643.31739,173.410634 648.470327,174.351811 C662.992091,177.002846 673.151347,190.494948 671.605711,205.114178 C669.885199,221.375573 654.87771,232.680703 638.867238,230.14915 C632.84401,229.196556 627.565752,226.426038 623.505899,222.488021 C620.867589,219.928739 616.431771,221.38536 615.854308,225.007341 L609.132801,267.14824 C608.214184,272.907849 612.158953,278.319207 617.943004,279.23347 L657.35302,285.465707 C661.000048,286.04232 662.761515,290.236836 660.613025,293.227152 C658.128295,296.685201 656.39181,300.754526 655.676329,305.239387 C652.863961,322.872992 667.054401,339.285678 686.177441,337.920401 C695.805512,337.232869 706.677382,329.193312 710.165914,320.231744" id="Fill-70" fill="#009CC5"></path>
                    <path d="M781,254.347082 L775.531887,253.450878 C775.531887,253.450878 769.298239,244.513098 758.433475,249.527299 C758.433475,249.527299 754.124523,251.915088 756.974259,254.150316 C759.823994,256.385935 759.064775,255.153704 763.011292,258.384887 C766.958203,261.616461 772.095465,262.906587 775.434764,261.327376 L779.698313,261.10753 L781,254.347082 Z" id="Fill-72" fill="#A16D3C"></path>
                    <path d="M775.01106,257.708298 C775.193298,253.557477 777.406242,253.11474 777.406242,253.11474 C777.406242,253.11474 820.177877,250.28806 823.867477,249.573244 C827.557485,248.85802 861.623295,220.660463 861.623295,220.660463 C861.623295,220.660463 874.797816,208.831175 884.027524,212.82274 C892.048428,216.290921 894.558987,223.134419 894.963008,229.427651 C895.443268,236.927313 891.210624,243.938213 884.394853,247.118431 C869.095856,254.257223 838.499085,268.271283 831.531245,269.47975 C816.022695,272.170798 776.160747,263.546166 776.160747,263.546166 C776.160747,263.546166 774.867961,260.968755 775.01106,257.708298" id="Fill-74" fill="#E69D43"></path>
                    <path d="M853.039366,167.311728 C853.039366,167.311728 844.17793,160.831688 849.9567,150.763394 C849.9567,150.763394 856.927954,153.042786 866.83184,150.763394 C876.734906,148.484001 885.596343,151.713309 886.752343,155.132196 C886.752343,155.132196 890.605266,156.652465 890.990599,162.351149 C891.375933,168.049833 879.787238,186 879.787238,186 C879.787238,186 877.312496,182.961888 877.986829,180.872478 C878.661163,178.782664 880.780496,174.128483 878.179496,174.128483 C875.578496,174.128483 874.711906,177.928144 873.652239,176.40828 C872.592983,174.888415 874.519239,168.52479 871.436983,167.479883 C868.354726,166.434977 856.507366,169.233387 853.039366,167.311728" id="Fill-76" fill="#2C3A64"></path>
                    <path d="M552.896067,531.603268 L513.86106,354.256959 L524.606325,354.256959 C527.152853,354.256959 529.236562,352.171859 529.236562,349.623632 L529.236562,343.632917 C529.236562,341.08469 527.152853,339 524.606325,339 L388.306421,339 C385.759074,339 383.675775,341.08469 383.675775,343.632917 L383.675775,349.623632 C383.675775,352.171859 385.759074,354.256959 388.306421,354.256959 L402.139331,354.256959 L363.103914,531.603268 C362.579195,533.987411 364.093911,536.369093 366.469085,536.895393 C368.844669,537.422924 371.217794,535.902684 371.742923,533.518541 L411.198935,354.256959 L504.801046,354.256959 L544.257468,533.518541 C544.782187,535.902684 547.155312,537.422924 549.530896,536.895393 C551.90648,536.369093 553.420786,533.987411 552.896067,531.603268" id="Fill-78" fill="#C3E0F4"></path>
                    <path d="M809.302272,424.467809 C795.106179,410.806829 744,497 744,497 C744,497 823.498366,438.128789 809.302272,424.467809" id="Fill-80" fill="#ACD29A"></path>
                    <path d="M809.456011,464.417844 C796.717655,459.330918 756.010601,502.179707 746.842431,512.073533 C739.826986,511.14256 732.13343,510.538488 723.699709,510.388489 C659.238777,509.239039 630,538.389406 630,538.389406 L809.817725,539 C809.817725,539 793.88886,518.806373 748.701213,512.327472 C759.741639,507.12234 792.399139,491.958166 804.276078,489.042558 C818.665007,485.510243 823.844532,470.164276 809.456011,464.417844" id="Fill-82" fill="#ACD29A"></path>
                    <path d="M758.205251,377 L719.124543,377 C714.068795,377 710.848623,382.375648 713.293454,386.762643 C715.654831,391.000076 707.346023,427.712275 689.840014,428.670364 C673.381084,429.571399 659.759178,416.552641 659.759178,400.421622 C659.759178,394.353183 661.687252,388.731391 664.968678,384.124333 C667.101482,381.130662 664.952645,377 661.255594,377 L618.239805,377 C612.360207,377 607.594287,381.724425 607.594287,387.553239 C607.594287,387.553239 603.694972,433.321842 600.379424,431.679521 C596.963568,429.986666 593.156752,428.956038 589.129995,428.750646 L589.130817,428.749424 L589.092174,428.749424 C588.611594,428.725787 588.128548,428.711116 587.642213,428.711116 C587.153822,428.711116 580.073391,428.591304 580.073391,428.591304 L579,485.149918 L585.148871,485.214714 C590.995171,485.041516 596.071474,484.499102 600.584565,482.218191 C603.792404,480.596653 607.594287,482.92932 607.594287,486.498822 L607.594287,526.451651 C607.594287,532.277205 612.358151,537 618.235283,537 L758.60361,537 C764.345489,537 769,532.386014 769,526.694128 L769,387.700355 C769,381.790851 764.166659,377 758.205251,377" id="Fill-84" fill="#D86713"></path>
                    <path d="M576.094676,484.610216 C583.060168,486.104598 589.714554,485.054414 595.302176,482.218062 C598.497149,480.596125 602.282814,482.92878 602.282814,486.498672 L602.282814,526.451297 C602.282814,532.276822 607.026357,537 612.878418,537 L752.64755,537 C758.364935,537 763,532.385223 763,526.693773 L763,387.700708 C763,381.790827 758.187277,377 752.251299,377 L713.337302,377 C708.303121,377 705.096686,382.376028 707.531088,386.762593 C709.882392,391 711.173481,395.901678 711.049038,401.113474 C710.696588,415.799339 698.913871,427.898662 684.177696,428.670508 C667.786521,429.529564 654.225179,416.552439 654.225179,400.42191 C654.225179,394.353095 656.145029,388.731739 659.412457,384.124704 C661.535753,381.130641 659.396492,377 655.714802,377 L612.882921,377 C607.027994,377 602.282814,381.724808 602.282814,387.553185 L602.282814,427.25926 C602.282814,430.933885 598.400133,433.321963 595.09832,431.679242 C591.281135,429.779783 586.973959,428.710853 582.415442,428.710853 C564.4933,428.710853 550.446061,445.229343 554.797856,463.807448 C556.988695,473.161705 566.663672,482.586055 576.094676,484.610216" id="Fill-86" fill="#F1A34F"></path>
                    <path d="M171.000621,537.816928 L196,538 C196,538 195.13024,531.972837 178.301714,530.417742 C171.777497,512.359391 152.611008,463.781628 135.967432,466.078754 C119.534473,468.34787 158.453267,512.914289 174.286153,530.239947 C172.045962,530.244006 169.957724,530.425454 168.030401,530.734362 C164.216495,523.167529 156.653863,512.471832 144.516743,512.959347 C131.599894,513.477712 149.197557,525.230842 161.313086,532.44858 C155.17629,534.642195 151.86224,537.676478 151.86224,537.676478 L170.716676,537.814493 C170.938699,537.935458 171.058876,538 171.058876,538 C171.058876,538 171.039322,537.935458 171.000621,537.816928" id="Fill-88" fill="#ACD29A"></path>
                    <path d="M260.431926,334 L264.227197,337.088753 C264.227197,337.088753 274.61058,333.35829 276.953623,345.720843 C276.953623,345.720843 277.577738,350.990238 274.246896,351 C270.916054,351.009925 272.29011,350.423925 267.573507,350.562571 C262.856903,350.701217 258.947511,348.209355 258.256512,344.374173 L256,341.124574 L260.431926,334 Z" id="Fill-90" fill="#EA8E50"></path>
                    <path d="M259.275116,341.977155 C262.23355,338.832385 261.995422,336.508315 261.995422,336.508315 C261.995422,336.508315 227.733052,307.95593 224.25874,305.629366 C221.890931,304.044508 196.657852,281.274858 184.862918,267.393633 C179.012627,260.508316 171.765832,263.180373 163.47421,265.601729 L156.64608,267.59569 C148.401431,270.003327 146.257046,281.74092 153.021865,287.444661 C172.074623,303.507768 203.76904,321.575646 209.698979,325.37232 C224.421305,334.798731 253.238162,346 253.238162,346 C253.238162,346 256.734122,344.677484 259.275116,341.977155" id="Fill-92" fill="#1E3D70"></path>
                    <path d="M300.815034,515 C300.815034,515 309.031456,520.895344 321.622086,517.779918 C321.622086,517.779918 331.773542,515.565106 334,520.413342 C334,520.413342 318.431341,527.987383 314.491446,530.058407 C311.522296,531.619599 308.423983,534.083723 306.233449,535.988539 C304.49983,537.49639 301.799099,537.291916 300.321386,535.551761 C299.636415,534.745075 298.852957,533.784936 297.994019,532.670572 C295.593593,529.555533 290,519.493016 290,519.493016 L300.815034,515 Z" id="Fill-94" fill="#233862"></path>
                    <path d="M305,511.230133 C305,511.230133 299.944503,522.878449 288.274771,520.737232 C288.274771,520.737232 264.462629,501.086049 248.12892,480.672357 C242.824237,474.042085 238.307487,467.331527 235.65331,461.190711 C224.821675,436.131061 195.587394,398.754729 177,379.811443 L223.504375,363 C223.504375,363 238.399657,392.942797 258.218707,429.722083 C272.501832,456.221165 289.337584,486.27196 305,511.230133" id="Fill-96" fill="#2B478B"></path>
                    <path d="M259,429.907861 L248.813153,481 C243.457441,474.351267 238.897242,467.622024 236.217533,461.464109 C225.281701,436.334684 195.766198,398.854283 177,379.858252 L223.951729,363 C223.951729,363 238.990299,393.026169 259,429.907861" id="Fill-98" fill="#233862"></path>
                    <path d="M218.749105,521.169514 C218.749105,521.169514 218.241582,530.600094 229.530404,531.857946 C229.530404,531.857946 235.981626,531.892679 236,537.894559 L203.189819,538 C203.189819,538 202.237243,535.578573 202.005734,530.393346 C201.82853,526.410976 205.817263,516 205.817263,516 L218.749105,521.169514 Z" id="Fill-100" fill="#233862"></path>
                    <path d="M206.983188,363.064572 C206.983188,363.064572 228.070433,385.839334 241.45638,426.870873 C248.739238,449.194775 228.107794,505.322172 224.085285,524.823404 C224.085285,524.823404 210.244783,525.978095 200.781717,522.382231 C200.781717,522.382231 200.062314,482.103486 205.597104,451.05901 C208.694311,433.684777 177.83183,413.901197 164.346255,382.507457 C155.172112,361.150559 166.333017,361.512879 180.048984,361 L206.983188,363.064572 Z" id="Fill-102" fill="#2B478B"></path>
                    <path d="M183,259.982009 C171.51391,266.464768 148,260.48612 148,260.48612 C148,260.48612 157.549186,249.57401 153.210051,232 L162.228478,236.578025 L171.91584,241.495238 C171.91584,241.495238 172.541697,244.599114 172.977358,250.173581 C173.087899,251.609545 173.18706,253.212869 173.255742,254.964867 C179.153422,256.752206 183,259.982009 183,259.982009" id="Fill-104" fill="#FFB07B"></path>
                    <path d="M226,361.385993 C226,363.421213 223.641252,364.395399 223.140399,364.494128 C218.441452,365.347872 205.32076,370.419945 193.501048,371.583396 C183.549125,372.619032 174.308702,371.635424 164.157262,369.609626 C162.812998,369.340885 159.65742,368.496154 159.43317,367.215948 C159.152857,365.817759 120.276793,288.455632 150.498617,255.223945 C151.208055,254.44476 157.173767,255.848685 162.629146,257.135036 C167.667353,258.323067 172.288802,257.661047 176.415993,256.015829 L181.532111,258.690947 C187.814824,262.17024 199.703377,274.531908 201.094223,284.231158 C201.800775,289.163945 204.639353,292.816526 205.460504,297.155707 C205.76555,298.761188 206.077192,300.328979 206.394192,301.856213 C207.013354,304.853329 207.651889,307.705013 208.308151,310.417411 C210.085662,317.753298 211.961696,324.068708 213.804339,329.524638 C215.764879,335.317314 217.687906,340.135804 219.405645,344.165278 C221.633719,349.392614 223.517172,353.298779 224.693248,356.289749 C225.524293,358.395432 226,360.046795 226,361.385993" id="Fill-106" fill="#2A4E96"></path>
                    <path d="M223,356 C169.521023,330.659023 151,282 151,282 C151,282 194.450187,298.120016 205.167515,302.316981 C205.770889,305.272392 206.393144,308.084779 207.032673,310.759799 C208.764462,317.994999 210.593064,324.22338 212.388725,329.603721 C214.299277,335.316976 216.173273,340.068662 217.847215,344.042608 C220.018479,349.19791 221.853508,353.050246 223,356" id="Fill-108" fill="#1E3D70"></path>
                    <path d="M378.499757,302.340594 L366.807296,265.425573 C365.671879,261.840707 361.945791,260.143601 358.691666,261.055229 L358.682645,261.057678 C358.509606,261.106669 358.338616,261.165457 358.168857,261.228736 L354.068808,262.5923 C354.068808,262.5923 347.650768,269.173741 343.041851,270.50097 C328.880093,274.580639 315.438375,267.065524 310.270976,253.318433 C304.524181,238.027739 311.191939,221.237124 326.62935,216.389941 C331.911563,214.73121 342.306638,217.822091 342.306638,217.822091 L346.479676,216.44138 C348.745591,215.755108 350.302535,213.320289 349.493104,210.764627 L336.622991,170.133283 C334.863894,164.579823 328.916177,161.497107 323.338321,163.248919 L285.33731,175.180103 C281.820345,176.284426 278.368168,173.319287 278.948383,169.694004 C279.618808,165.501657 279.347768,161.09457 277.978625,156.771175 C272.593081,139.769493 252.562744,131.408071 236.089557,141.118768 C227.795967,146.007594 221.683001,158.01757 222.580182,167.572723 C223.242816,174.628962 226.247223,180.626193 230.640866,185.074514 C233.152808,187.617519 232.057985,191.909888 228.641482,192.982367 L190.404284,204.988261 C184.828888,206.739256 181.734681,212.658511 183.492959,218.209523 L225.490278,350.796916 C227.207961,356.220552 233.016672,359.231007 238.464133,357.520429 L371.488381,315.752509 C377.144555,313.97661 380.283867,307.97203 378.499757,302.340594" id="Fill-110" fill="#4A75CB"></path>
                    <path d="M219.5801,168.57306 C220.242733,175.629283 223.247137,181.626908 227.641185,186.074811 C230.152714,188.618219 229.057892,192.909352 225.641393,193.982238 L187.404647,205.988104 C181.829258,207.739095 178.734644,213.658745 180.492919,219.209743 L222.490193,351.797238 C224.207874,357.220862 230.016579,360.230493 235.464034,358.520735 L368.488135,316.752096 C374.144713,314.976201 377.283612,308.971635 375.499914,303.340211 L363.806646,266.425685 C362.294398,261.649956 356.185539,260.224341 352.719014,263.852066 C349.370172,267.355682 345.066745,270.053817 340.041637,271.501478 C325.880304,275.580729 310.760695,268.039095 305.593711,254.292036 C299.846513,239.001377 308.19176,222.236929 323.629564,217.389757 C329.437039,215.566505 335.39418,215.697962 340.785459,217.413027 C344.288888,218.527554 347.599186,215.25705 346.493293,211.764457 L333.622784,171.133207 C331.864098,165.579759 325.915978,162.497867 320.338539,164.248859 L282.337159,176.181239 C278.820608,177.285152 275.368025,174.32002 275.948239,170.694336 C276.619074,166.502 276.347624,162.095331 274.978071,157.771129 C269.592533,140.769487 249.563449,132.408084 233.08987,142.118759 C224.795879,147.008389 218.68292,159.018338 219.5801,168.57306" id="Fill-112" fill="#009CC5"></path>
                    <path d="M256.336956,341.29524 L260.816186,342.985305 C260.816186,342.985305 269.786326,336.458241 275.370568,347.073836 C275.370568,347.073836 277.390582,351.710497 274.193135,352.717403 C270.995298,353.724711 272.158324,352.776303 267.663909,354.316915 C263.169494,355.857126 258.74205,354.747645 257.044039,351.443644 L254,349.145348 L256.336956,341.29524 Z" id="Fill-114" fill="#FFB07B"></path>
                    <path d="M259.46315,348.186625 C261.20488,343.604856 262,341.530303 262,341.530303 C262,341.530303 226.40959,312.278077 222.783238,309.76921 C220.311898,308.060026 195.710681,289.517446 183.716329,275.066586 C177.766852,267.898335 168.385913,264.621574 159.312868,266.539658 L151.841937,268.119621 C142.820071,270.027797 139.888937,281.541255 146.887383,287.590692 C166.597099,304.628034 199.839408,324.388924 206.037411,328.498809 C221.424329,338.702306 255.457663,353 255.457663,353 C255.457663,353 258.095643,351.785406 259.46315,348.186625" id="Fill-116" fill="#2A4E96"></path>
                    <path d="M175,251.97048 C162.881219,252.575408 155,243.682471 155,243.682471 C155,243.682471 160.479004,240.984906 163.466838,239 L173.86103,243.691384 C173.86103,243.691384 174.532551,246.65208 175,251.97048" id="Fill-118" fill="#EA8E50"></path>
                    <path d="M178.009224,239.023109 C178.009224,239.023109 160.92036,251.394165 153.44705,240.540171 C145.974147,229.686178 138.734987,223.973248 149.32975,215.615898 C159.925325,207.258957 164.919165,209.899284 168.286942,212.909665 C171.655126,215.920456 182.261658,235.525598 178.009224,239.023109" id="Fill-120" fill="#FFB07B"></path>
                    <path d="M170.944751,204.115759 C170.325601,199.939082 168.932718,197 168.932718,197 C168.932718,197 167.849001,201.486076 159.645878,200.866869 C151.442754,200.248481 138.441423,201.673354 134.107783,211.015555 C133.831831,211.610174 133.586221,212.222414 133.367673,212.848588 C132.58328,210.777051 132.394254,207.673639 132.394254,207.673639 C130.835718,211.695002 132.394254,216.726111 132.394254,216.726111 L132.394664,216.726111 C132.371703,216.87241 132.352021,217.019528 132.330699,217.167056 C130.520813,218.696428 129,223.451742 129,223.451742 C129.546574,222.12604 130.878772,221.260134 132.067048,220.726984 C132.030145,227.996419 134.979513,235.103163 140.157002,237.218958 C147.728264,240.312535 147.667579,237.952499 155.282305,243 C155.282305,243 157.32427,240.467439 155.931797,238.765951 C154.538095,237.064053 149.276139,234.589274 152.216897,232.114085 C155.157655,229.639305 156.240962,232.423483 157.32427,230.721996 C158.407987,229.020098 152.99104,224.070129 159.955453,219.429969 C166.920686,214.789399 171.563901,208.292027 170.944751,204.115759" id="Fill-122" fill="#233862"></path>
                    <path d="M614,537 C614,537 605.301442,523.936214 591.68661,524.98917 C587.549342,525.309165 580.825463,526.333483 573.016206,527.425037 C567.125664,506.542321 550.890317,456.901097 528.993595,454.106635 C506.630368,451.252408 550.393174,506.459313 568.289066,528.072914 C565.025167,528.50912 561.635858,528.936196 558.214687,529.313467 C548.739983,519.035012 532.228899,503.80721 518.441681,504.977621 C504.620149,506.150938 530.497276,520.669023 549.174216,530.166788 C537.714211,531.038372 526.848571,530.942082 520.207618,528.333974 C503.945719,521.946099 489,537 489,537 L614,537 Z" id="Fill-124" fill="#82B378"></path>
                    <g id="Group-128" transform="translate(0.000000, 537.000000)">
                        <mask id="mask-4" fill="white">
                            <use xlink:href="#path-3"></use>
                        </mask>
                        <g id="Clip-127"></g>
                        <path d="M1050.80836,3 L1.19172666,3 C0.536419989,3 0,2.42371889 0,1.71830161 L0,1.28125915 C0,0.576281113 0.536419989,0 1.19172666,0 L1050.80836,0 C1051.46366,0 1052.00008,0.576281113 1052.00008,1.28125915 L1052.00008,1.71830161 C1052.00008,2.42371889 1051.46366,3 1050.80836,3" id="Fill-126" fill="#2E3552" mask="url(#mask-4)"></path>
                    </g>
                </g>
            </g>
        </g>
    </g>
</svg>