<?xml version="1.0" encoding="UTF-8"?>
<svg width="112px" height="112px" viewBox="0 0 112 112" version="1.1" xmlns="http://www.w3.org/2000/svg" xmlns:xlink="http://www.w3.org/1999/xlink">
    <title>05_FixedDeposit_ICON</title>
    <g id="Page-1" stroke="none" stroke-width="1" fill="none" fill-rule="evenodd">
        <g id="05-Our-Products-Dark" transform="translate(-134.000000, -1917.000000)">
            <g id="Group-5-Copy-4" transform="translate(96.000000, 1888.000000)">
                <g id="DashB_FD" transform="translate(39.000000, 30.000000)">
                    <rect id="Rectangle-Copy-14" stroke-opacity="0.3" stroke="#FFFFFF" fill="#007290" x="0" y="0" width="110" height="110" rx="15"></rect>
                    <polygon id="Rectangle" fill="#009CC5" points="31.2631579 38.2105263 71.7338615 38.2105263 84.5263158 52.1052632 84.5263158 72.9473684 31.2631579 72.9473684"></polygon>
                    <path d="M55.4188389,55.1559885 C55.4188389,56.6951737 58.0199653,58.2312773 61.2272264,58.2312773 C64.4344874,58.2312773 67.0365517,56.6957096 67.0365517,55.1559885 C67.0365517,53.6204209 64.4348893,52.0812357 61.2272264,52.0812357 C58.0195634,52.0812357 55.4188389,53.6204209 55.4188389,55.1559885 Z M30.7014786,57.6242049 C30.7014786,73.8708617 44.0497966,87.039952 60.515514,87.039952 C76.9698429,87.039952 90.3157895,73.8693879 90.3157895,57.6242049 C90.3157895,41.3790219 76.9694409,28.2097975 60.515514,28.2097975 C55.8747796,28.2097975 51.4848595,29.258622 47.56736,31.1217622 C47.8039186,32.156465 47.936333,33.2346583 47.936333,34.3436273 C47.936333,42.2977364 41.402567,48.7413325 33.3470335,48.7413325 C32.9330559,48.7413325 32.5195875,48.7266789 32.1056099,48.6821915 C31.2038441,51.5057281 30.7014786,54.5062549 30.7014786,57.6249538 L30.7014786,57.6242049 Z M80.2658,54.2699656 L57.1324686,68.7118849 L42.0407366,61.8834925 L43.682552,60.8775825 L57.1343444,66.8486241 L78.6263963,53.4115698 L80.2658,54.2699656 Z M80.2658,57.3735245 L57.1324686,71.8154439 L42.0407366,64.9870515 L43.682552,63.9821865 L57.1343444,69.9526922 L78.6263963,56.5156378 L80.2658,57.3735245 Z M80.2658,51.1653348 L57.1324686,65.6072541 L42.0407366,58.7777898 L65.174068,44.3345307 L80.2658,51.1653348 Z M20.8421053,34.3425554 C20.8421053,41.1572817 26.4441605,46.6867186 33.3479847,46.6867186 C40.2658771,46.6867186 45.8527924,41.1578176 45.8527924,34.3425554 C45.8527924,27.5283651 40.2648053,22 33.3479847,22 C26.4442944,22 20.8421053,27.528901 20.8421053,34.3425554 Z M34.9879244,29.5238929 L34.9879244,33.0722721 L38.5944517,33.0722721 C39.305186,33.0722721 39.8803707,33.6485019 39.8803707,34.3424884 C39.8803707,35.0527002 39.304141,35.6142723 38.5944517,35.6142723 L34.9879244,35.6142723 L34.9879244,39.1768536 C34.9879244,39.8708401 34.3823927,40.4036195 33.673226,40.4036195 C32.9630143,40.4036195 32.4166223,39.8708267 32.4166223,39.1768536 L32.4166223,35.6142723 L28.824297,35.6142723 C28.1151303,35.6142723 27.538378,35.0521777 27.538378,34.3424884 C27.538378,33.6474568 28.1151303,33.0722721 28.824297,33.0722721 L32.4166223,33.0722721 L32.4166223,29.5238929 C32.4166223,28.8136812 32.9933746,28.2536766 33.7025413,28.2536766 C34.411708,28.2536766 34.9879378,28.8142037 34.9879378,29.5238929 L34.9879244,29.5238929 Z" id="Shape" fill="#FFFFFF" fill-rule="nonzero"></path>
                </g>
            </g>
        </g>
    </g>
</svg>