<?xml version="1.0" encoding="UTF-8"?>
<svg width="112px" height="112px" viewBox="0 0 112 112" version="1.1" xmlns="http://www.w3.org/2000/svg" xmlns:xlink="http://www.w3.org/1999/xlink">
    <title>01_LifeInsurance_ICON</title>
    <g id="Page-1" stroke="none" stroke-width="1" fill="none" fill-rule="evenodd">
        <g id="05-Our-Products-Dark" transform="translate(-135.000000, -901.000000)">
            <g id="Group-5" transform="translate(96.000000, 872.000000)">
                <g id="DashB_Life" transform="translate(40.000000, 30.000000)">
                    <rect id="Rectangle-Copy-10" stroke-opacity="0.3" stroke="#FFFFFF" fill="#007290" x="0" y="0" width="110" height="110" rx="15"></rect>
                    <g id="Life" transform="translate(28.370553, 21.757420)" fill-rule="nonzero">
                        <path d="M47.2535056,41.7733611 C43.9787703,50.6702851 37.2948518,56.7801181 26.8179987,60.4521355 C26.7808417,60.4649177 26.7409119,60.4760328 26.6993183,60.4838136 C26.5911751,60.5054872 26.4808086,60.5054872 26.3710071,60.4832579 C26.3305223,60.4754775 26.2905925,60.4643629 26.2534369,60.4515798 C15.765794,56.7863914 9.0776163,50.6803998 5.80515254,41.7827643 C2.94355689,34.0018149 3.10597332,25.4642677 3.24908149,17.9324349 L3.24963604,17.8907538 C3.27902858,17.2438612 3.29788394,16.565854 3.30842113,15.8211359 C3.33171312,14.260564 4.57174831,12.9695959 6.13239409,12.8829528 C10.2706055,12.6512074 13.9065186,11.8503776 17.2461353,10.4331865 C20.5819188,9.01825764 23.5450247,7.02309023 26.3035484,4.33501981 C26.4433032,4.2160897 26.6257547,4.21553484 26.7655123,4.33501981 C29.5246039,7.0232325 32.4877098,9.01830032 35.8229254,10.4331865 C39.1636779,11.8503349 42.7984552,12.6511932 46.9378024,12.8829528 C48.4977951,12.96965 49.737924,14.2612042 49.7612075,15.822274 C49.7722991,16.5714168 49.7911551,17.2493956 49.8211028,17.8918919 C49.96529,25.4316918 50.1239015,33.9756413 47.25339,41.773521 L47.2535056,41.7733611 Z" id="Path" fill="#009CC5"></path>
                        <path d="M54.0678175,17.2781181 L54.0661546,17.2286956 C54.0384414,16.6173048 54.02015,15.9698201 54.0090653,15.2495793 C53.9575182,11.7378631 51.1706303,8.83301729 47.666006,8.63755076 C40.3573624,8.22940243 34.703763,5.8410289 29.8725776,1.12424387 L29.8310071,1.08537233 C28.2552813,-0.361790775 25.8785674,-0.361790775 24.302132,1.08537233 L24.2605615,1.12424387 C19.429518,5.84216616 13.7759186,8.22927449 6.46713314,8.63854586 C2.96194126,8.8345668 0.175581187,11.7392847 0.124073894,15.2505744 C0.11354271,15.9652426 0.0946977101,16.6127273 0.0669845163,17.2285535 L0.0636589614,17.3440564 C-0.0787877911,24.8105935 -0.255047733,34.1030012 2.84774874,42.5372042 C4.55373271,47.1750919 7.13775284,51.2071043 10.5277273,54.5212216 C14.3876526,58.2956447 19.4448741,61.29204 25.5570729,63.4271031 C25.7554966,63.4965157 25.9622494,63.553157 26.1728617,63.5948063 C26.4688371,63.6542238 26.7675936,63.6842105 27.0663501,63.6842105 C27.3651066,63.6842105 27.6649698,63.6547797 27.9603918,63.5948063 C28.1710183,63.552604 28.3794171,63.4954069 28.5784084,63.4259943 C34.6826611,61.2869507 39.7336393,58.2888496 43.5907267,54.5155637 C46.9789985,51.2004514 49.5630186,47.1677281 51.2707053,42.5282767 C54.3856904,34.0676324 54.2100264,24.7585923 54.0687006,17.2782659 L54.0678175,17.2781181 Z M47.2535056,41.7733611 C43.9787703,50.6702851 37.2948518,56.7801181 26.8179987,60.4521355 C26.7808417,60.4649177 26.7409119,60.4760328 26.6993183,60.4838136 C26.5911751,60.5054872 26.4808086,60.5054872 26.3710071,60.4832579 C26.3305223,60.4754775 26.2905925,60.4643629 26.2534369,60.4515798 C15.765794,56.7863914 9.0776163,50.6803998 5.80515254,41.7827643 C2.94355689,34.0018149 3.10597332,25.4642677 3.24908149,17.9324349 L3.24963604,17.8907538 C3.27902858,17.2438612 3.29788394,16.565854 3.30842113,15.8211359 C3.33171312,14.260564 4.57174831,12.9695959 6.13239409,12.8829528 C10.2706055,12.6512074 13.9065186,11.8503776 17.2461353,10.4331865 C20.5819188,9.01825764 23.5450247,7.02309023 26.3035484,4.33501981 C26.4433032,4.2160897 26.6257547,4.21553484 26.7655123,4.33501981 C29.5246039,7.0232325 32.4877098,9.01830032 35.8229254,10.4331865 C39.1636779,11.8503349 42.7984552,12.6511932 46.9378024,12.8829528 C48.4977951,12.96965 49.737924,14.2612042 49.7612075,15.822274 C49.7722991,16.5714168 49.7911551,17.2493956 49.8211028,17.8918919 C49.96529,25.4316918 50.1239015,33.9756413 47.25339,41.773521 L47.2535056,41.7733611 Z" id="Shape" fill="#FFFFFF"></path>
                        <path d="M29.8570274,33.4480217 C29.8570274,35.2827061 28.3693494,36.7703841 26.5346651,36.7703841 C24.6994121,36.7703841 23.2117341,35.2827061 23.2117341,33.4480217 C23.2117341,31.6127687 24.6994121,30.1250907 26.5346651,30.1250907 C28.3693494,30.1250907 29.8570274,31.6127687 29.8570274,33.4480217" id="Path" fill="#FFFFFF"></path>
                        <path d="M27.9435878,38.1555886 L25.1237521,38.1555886 C22.7775851,38.1555886 20.8695475,40.0647635 20.8695475,42.4109305 L20.8695475,45.8605238 L20.8784323,45.9138328 L21.115551,45.9876879 C23.3539626,46.6873728 25.2998141,46.9205963 26.9012181,46.9205963 C30.0281139,46.9205963 31.8400531,46.0282312 31.9522154,45.9726903 L32.1743364,45.8594078 L32.1976589,45.8599631 L32.1976589,42.4103698 C32.1982141,40.0653401 30.2907584,38.1555886 27.9434542,38.1555886 L27.9435878,38.1555886 Z" id="Path" fill="#FFFFFF"></path>
                        <path d="M23.9539162,22.6106245 C23.9539162,25.5714804 21.5538715,27.971525 18.5930156,27.971525 C15.6321597,27.971525 13.232115,25.5714804 13.232115,22.6106245 C13.232115,19.6503372 15.6321597,17.2502925 18.5930156,17.2502925 C21.5538715,17.2502925 23.9539162,19.6503372 23.9539162,22.6106245" id="Path" fill="#FFFFFF"></path>
                        <path d="M34.4750351,27.9713829 C37.435891,27.9713829 39.8347984,25.570201 39.8347984,22.6099137 C39.8347984,19.650195 37.4347537,17.2501504 34.4750351,17.2501504 C31.5136106,17.2501504 29.1141346,19.650195 29.1141346,22.6099137 C29.1141346,25.5696323 31.5136106,27.9713829 34.4750351,27.9713829 L34.4750351,27.9713829 Z" id="Path" fill="#FFFFFF"></path>
                        <path d="M22.7697444,36.4745544 C21.9184628,35.7404389 21.3775962,34.657071 21.3775962,33.4475952 C21.3775962,31.9654614 22.1905664,30.6711176 23.392252,29.9808009 C22.6098314,29.669277 21.7585783,29.492689 20.8661136,29.492689 L16.3170744,29.492689 C12.5327003,29.492689 9.45413797,32.5729572 9.45413797,36.3561941 L9.45413797,41.9198112 L9.46746523,42.0064391 L9.85062227,42.1258286 C13.3946081,43.2331074 16.4804205,43.6146439 19.034706,43.6290018 L19.034706,41.2511337 C19.0363719,38.9460502 20.6284334,37.0119978 22.7696093,36.4743582 L22.7697444,36.4745544 Z" id="Path" fill="#FFFFFF"></path>
                        <path d="M36.7495547,29.4917792 L32.2016528,29.4917792 C31.3092876,29.4917792 30.4596551,29.6678128 29.6766517,29.9798911 C30.8794319,30.6701367 31.6924447,31.963983 31.6924447,33.4466854 C31.6924447,34.655024 31.1510237,35.7384061 30.3008509,36.4725073 C31.1582311,36.6857435 31.9473188,37.1244273 32.5881647,37.7663678 C33.5205187,38.6992762 34.0336219,39.9371124 34.0330533,41.2515004 L34.0330533,43.6287999 C36.587481,43.6154726 39.6732933,43.2334315 43.2167105,42.1256268 L43.5998676,42.0062372 L43.6143051,41.920721 L43.6143051,36.3559666 C43.6126391,32.5727297 40.5340369,29.4917792 36.7496628,29.4917792 L36.7495547,29.4917792 Z" id="Path" fill="#FFFFFF"></path>
                    </g>
                </g>
            </g>
        </g>
    </g>
</svg>