<?xml version="1.0" encoding="UTF-8"?>
<svg width="111px" height="112px" viewBox="0 0 111 112" version="1.1" xmlns="http://www.w3.org/2000/svg" xmlns:xlink="http://www.w3.org/1999/xlink">
    <title>03_MotorTravel_Insurance_ICON</title>
    <g id="Page-1" stroke="none" stroke-width="1" fill="none" fill-rule="evenodd">
        <g id="05-Our-Products-Dark" transform="translate(-135.000000, -1386.000000)">
            <g id="Group-5-Copy-2" transform="translate(96.000000, 1357.000000)">
                <g id="DashB_Motor&amp;Travel" transform="translate(39.500000, 30.000000)">
                    <rect id="Rectangle" stroke-opacity="0.3" stroke="#FFFFFF" fill="#007290" x="0" y="0" width="110" height="110" rx="15"></rect>
                    <g id="Page-1" transform="translate(54.421053, 47.473684)" fill="#FFFFFF">
                        <path d="M3.80474406,11.0495417 C4.73639813,10.5496618 5.95471498,10.8353074 6.52804056,11.6922443 L7.53136033,10.763896 L7.74635742,10.9781303 L8.2480173,10.406839 L7.67469172,9.90695918 L8.03302021,9.47849075 L5.16639231,7.05050297 L4.80806382,7.4789714 L4.23473824,6.97909156 L3.73307836,7.55038281 L3.94807545,7.69320562 L0.0781277894,12.8348268 C-0.0652036056,13.049061 0.00646209191,13.3347066 0.149793487,13.4775294 L2.08476732,15.1199918 C2.29976441,15.2628146 2.5864272,15.2628146 2.7297586,15.1199918 L3.23141848,14.6201119 C3.08808708,14.4058777 2.94475569,14.1916435 2.87308999,13.9059979 C2.37143011,12.9062382 2.7297586,11.6208329 3.80474406,11.0495417" id="Fill-1"></path>
                        <path d="M22.9118556,34.516881 L22.763907,28.5508291 C21.5063438,30.9814428 18.6953204,31.4970276 18.3994232,31.3497176 L18.3994232,31.4970276 L18.4733975,35.2534306 C18.4733975,35.6960969 18.6213461,36.0643717 18.843269,36.4326465 L25.0571103,45.9333999 C25.722879,46.9645694 27.1283907,47.2591892 28.1640309,46.5962946 C29.1996711,45.9333999 29.4955683,44.5346922 28.8297996,43.5764412 L22.9118556,34.516881 Z" id="Fill-4"></path>
                        <path d="M22.7831614,15.826072 C24.4419243,17.6736406 25.6686876,20.0186314 26.3170475,22.4346826 C26.5334079,23.0742256 27.182489,23.6427082 28.1200506,23.4295272 C28.9140932,23.2163462 29.3460927,22.4346826 29.1297323,21.7240793 C28.0479305,17.6025803 25.5237261,13.9074432 22.2062004,11.4203317 C22.4946809,12.0598746 22.7110413,12.6994176 22.7110413,13.4810812 L22.7831614,15.826072 Z" id="Fill-6"></path>
                        <path d="M16.5297331,8.23960639 C18.837479,8.38401333 20.7846397,6.65113007 20.9288738,4.41282253 C21.073108,2.10231152 19.3422985,0.152817854 17.1066696,0.00841091604 C14.7989236,-0.135996022 12.8517629,1.59688724 12.7075288,3.83519478 C12.4911776,6.14570579 14.2219871,8.09519945 16.5297331,8.23960639" id="Fill-8"></path>
                        <path d="M22.8387837,25.8334485 L22.4643397,13.7432587 C22.3894509,11.3397872 20.3674529,9.44614305 17.8212332,9.51897551 C17.3719003,9.51897551 16.9225674,9.59180798 16.4732345,9.73747292 C17.0723451,9.81030539 17.7463444,9.95597033 18.3454549,10.4657976 C20.2925641,12.0681119 20.4423417,16.0738977 18.7947878,22.4831549 C19.0194542,22.7016523 19.094343,22.9929822 19.0194542,23.2843121 C17.2970115,36.175659 19.1692319,22.4103224 18.1207885,29.4750719 C17.9710108,29.8392342 17.5965668,30.0577316 17.1472339,29.9848992 C17.0723451,29.9848992 13.2530155,29.4750719 13.477682,29.5479044 L12.1296833,34.937507 C12.0547945,35.1560044 12.0547945,35.3752302 12.0547945,35.5929992 L12.7287938,44.260063 C12.8036827,45.5717758 14.0767925,46.4450371 15.1252359,46.3001004 C16.3983457,46.2265397 17.2970115,45.1340526 17.2221227,43.9687331 L16.6230122,35.6658317 L17.896122,30.3490615 C20.7418969,30.4947265 22.9136726,28.3825849 22.8387837,25.8334485" id="Fill-11"></path>
                        <path d="M46.1856293,39.5684759 L38.4205115,25.198243 C38.1302268,24.6902045 37.477086,24.4724737 36.9690877,24.7627814 L31.8165329,27.5199791 L29.8571106,24.109589 C29.4942547,24.4724737 28.9862563,24.6902045 28.5508291,24.6902045 L30.5828226,28.2457485 C30.1473954,28.536782 30.002253,29.1899744 30.2199666,29.6972871 L37.11423,42.5441301 C37.1875269,42.4715532 37.3319436,42.3982505 37.477086,42.3263993 C38.6389508,41.6724812 40.0903747,42.1086685 40.7427897,43.3417506 C40.8160867,43.4869045 40.8879321,43.6327841 40.8879321,43.777938 L45.7502021,41.1644426 C46.2589262,40.801558 46.4759141,40.0757886 46.1856293,39.5684759" id="Fill-13"></path>
                        <path d="M38.702235,42.5090123 C39.7534247,42.5090123 40.6056236,43.3612112 40.6056236,44.4124009 C40.6056236,45.4635905 39.7534247,46.3157895 38.702235,46.3157895 C37.6510454,46.3157895 36.7988464,45.4635905 36.7988464,44.4124009 C36.7988464,43.3612112 37.6510454,42.5090123 38.702235,42.5090123" id="Fill-16"></path>
                        <path d="M11.8258323,20.8620226 L16.9896359,21.5493349 L16.8399605,22.9239595 L11.6013191,22.2366472 L11.8258323,20.8620226 Z M9.73037571,18.8764537 L9.80521344,18.8764537 C9.65553798,19.5637661 9.50586251,20.7092866 9.50586251,22.0075431 L9.2813493,22.2366472 L9.20651157,22.8475915 C9.35618704,23.2294317 9.73037571,23.6876399 10.2542398,23.993112 L10.2542398,23.7640079 L11.5264813,23.916744 L11.4516436,24.6804243 C12.9483983,25.2913686 14.6696662,25.5204727 16.1664209,25.2913686 L16.2412586,24.5276882 L17.5135001,24.6804243 L17.5135001,24.9095284 C18.1122019,24.6804243 18.5612283,24.3749522 18.7857415,24.06948 L18.8605793,23.4585358 C18.8605793,23.3057997 18.7857415,23.1530636 18.6360661,23.0766956 L17.3638246,23.0003276 L17.5883378,21.3202308 C17.5883378,21.0911267 17.5135001,20.9383907 17.2889869,20.9383907 L11.5264813,20.1747103 C11.3768059,20.1747103 11.2271304,20.3274464 11.1522927,20.4801825 L10.9277795,22.1602792 L10.2542398,22.0839112 C10.2542398,20.7092866 10.4787531,19.3346619 10.5535908,18.8000857 C11.8258323,18.5709816 12.9483983,17.9600373 13.9961266,17.0436209 L14.0709643,19.7165021 L17.3638246,20.1747103 C17.8876887,20.2510784 18.2618774,20.7856546 18.1870397,21.3202308 L18.0373642,22.3130153 L18.5612283,22.3893833 C20.5070094,14.5234758 19.5341189,11.6978586 18.3367151,10.7050742 C17.3638246,9.86502579 16.0167454,10.1704979 15.3432058,10.399602 C14.8193416,10.9341783 14.3703152,11.5451225 14.145802,12.3088029 C13.023236,14.1416357 11.2271304,15.8217324 9.65553798,15.8217324 C8.6078097,15.8217324 7.56008142,14.905316 6.66202861,13.0724832 C6.28783994,12.3088029 5.38978712,12.0033307 4.64140978,12.3851709 C3.89303244,12.7670111 3.5936815,13.6834275 3.96787017,14.4471078 C5.91365126,18.0364054 8.15878329,18.8764537 9.73037571,18.8764537 L9.73037571,18.8764537 Z" id="Fill-18"></path>
                        <path d="M18.3257136,28.8328126 L18.9228551,24.6030602 C18.5496416,24.8145478 18.1764282,25.0260354 17.6539293,25.1670272 L17.504644,26.0834735 L16.2357182,25.9424818 L16.3103609,25.4490107 C14.7428644,25.6604983 13.0260825,25.3785148 11.6078714,24.8850437 L11.5332287,25.3785148 L10.264303,25.237523 L10.4135884,24.3210767 C9.96573222,24.0390932 9.59251877,23.7571097 9.3685907,23.4751262 L8.77144917,27.7048786 C8.77144917,27.8458704 8.84609186,27.9868621 8.99537724,28.057358 L17.9525001,29.185292 C18.1017855,29.1147961 18.2510709,29.0443002 18.3257136,28.8328126" id="Fill-20"></path>
                    </g>
                    <path d="M49.5647184,67.933998 C49.0852729,67.5478396 46.8822578,66.5821129 46.3068494,67.933998 C45.7317435,69.2858831 45.4447327,69.0927779 44.8699882,67.933998 C44.2948823,66.7755155 42.7620508,64.2652221 42.2829003,63.2992501 C41.8034548,62.3338727 40.078705,61.3684211 38.3539552,61.3684211 L31.2633989,61.3684211 L24.1731377,61.3684211 C22.4480928,61.3684211 20.7236381,62.3340957 20.2441926,63.2992501 C19.7647471,64.2649248 18.231923,66.7755898 17.6568097,67.933998 C17.0822791,69.0927779 16.7946929,69.2858831 16.2199484,67.933998 C15.6448425,66.5821129 13.4412299,67.5478396 12.9620794,67.933998 C12.4820586,68.3201564 12.9185723,70.1551539 12.9185723,70.1551539 L16.7947785,70.1551539 L16.1243071,71.2169352 L14.8784127,71.7964663 C12.751445,75.1185746 12.7203179,79.8060956 13.1133157,83.3225726 C13.1130276,83.3434775 12.8816624,91.8807456 13.5924735,92.2657667 C14.30386,92.6519251 17.3698401,92.8455878 17.7533228,92.2657667 C18.0570109,91.8061496 18.4200544,88.9912287 18.5580536,87.8383208 C22.8413458,87.4991974 28.9406301,87.0514802 31.2640967,87.0514802 C33.5872683,87.0514802 39.6868476,87.4986102 43.9701398,87.8383208 C44.1081537,88.991303 44.4711972,91.8064915 44.7739855,92.2657667 C45.1586335,92.8455878 48.2237802,92.6519251 48.9357199,92.2657667 C49.6462433,91.8798982 49.4148777,83.3426413 49.413727,83.3225726 C49.8070199,79.8064673 49.7764829,75.1189462 47.64863,71.7964663 L46.4033257,71.2169352 L45.7328543,70.1551539 L49.6093555,70.1551539 C49.6082031,70.1551539 50.0435635,68.3204314 49.5646956,67.9342953 L49.5647184,67.933998 Z M21.2314676,63.2889417 C21.7548841,62.8650015 30.1301865,62.5263158 31.2630845,62.5263158 C32.3973774,62.5263158 40.7726725,62.8650229 41.2954356,63.2889417 C41.8191384,63.7126037 44,69.2190977 44,69.2190977 L31.2627908,69.4736842 L18.5263158,69.2193758 C18.5263158,69.2190972 20.7077501,63.712568 21.2311739,63.2889345 L21.2314676,63.2889417 Z M37.0526316,82.9470384 C37.0526316,83.1788927 36.8661412,83.3684211 36.6351055,83.3684211 L25.8912103,83.3681231 C25.6598724,83.3681231 25.4736842,83.1788846 25.4736842,82.9467404 L25.4736842,81.4734192 C25.4736842,81.2409698 25.6598724,81.0526316 25.8912103,81.0526316 L36.6351055,81.0526316 C36.8661487,81.0526316 37.0526316,81.2409774 37.0526316,81.4734192 L37.0526316,82.9470455 L37.0526316,82.9470384 Z M45.5407535,73.6512208 L46.3764706,72.9473684 C46.3764706,72.9473684 48.3270652,75.0800638 47.0266786,76.6273165 C45.7260126,78.1743305 41.4554521,77.3697129 41.4554521,77.3697129 C41.4554521,77.3697129 40.0617081,76.4839881 39.3198778,76.2234996 C38.6673759,75.9943763 33.4364797,76.1678507 32.1690453,76.21324 C32.1690453,76.2163488 32.1693325,76.2234996 32.1693325,76.2234996 C32.1693325,76.2234996 31.7991379,77.5789474 30.7772795,77.5789474 C30.7431039,77.5789474 30.7166818,77.5665119 30.6850911,77.5634032 C30.6526381,77.566512 30.6262167,77.5789474 30.5917558,77.5789474 C29.5701768,77.5789474 29.1994086,76.2234996 29.1994086,76.2234996 C29.1994086,76.2234996 29.1996958,76.2163491 29.1996958,76.21324 C27.9317468,76.1672291 22.7013652,75.9943755 22.0488633,76.2234996 C21.3061508,76.4837096 19.913289,77.3697129 19.913289,77.3697129 C19.913289,77.3697129 15.6421403,78.1742588 14.3414743,76.6273165 C13.0416171,75.0800638 14.9919691,72.9473684 14.9919691,72.9473684 L15.8273921,73.6512208 L21.336346,74.0531993 L30.683849,74.0531993 L40.0313521,74.0531993 L45.5407535,73.6512208 Z" id="Shape" fill="#FFFFFF" fill-rule="nonzero"></path>
                    <g id="Page-1" transform="translate(39.368421, 10.421053)">
                        <path d="M16.1052632,2.20189819 C20.16,4.44176014 24.7073684,5.69456428 29.3684211,5.84641933 C29.2168421,14.4641933 26.8673684,21.4495255 22.6231579,26.0431406 C19.7810526,29.0802416 16.9389474,30.2191544 16.1052632,30.4849008 C14.2484211,29.9154443 2.27368421,25.3977567 1.89473684,5.84641933 C6.85894737,5.84641933 11.7473684,4.59361519 16.1052632,2.20189819 M15.8778947,32.3830889 L16.1052632,32.4210526 L16.3326316,32.3451251 C16.4842105,32.3071613 20.1978947,31.3201035 23.8736842,27.3718723 C27.2463158,23.8412425 31.2631579,17.0457291 31.2631579,4.89732528 L31.2631579,3.94823123 L30.3157895,3.94823123 C25.5410526,3.94823123 20.8042105,2.69542709 16.6357895,0.303710095 L16.1052632,0 L15.5747368,0.303710095 C11.4063158,2.69542709 6.66947368,3.94823123 1.89473684,3.94823123 L0,3.94823123 L0,4.89732528 C0,17.0457291 4.28210526,23.8792062 7.84421053,27.4477998 C11.7852632,31.3580673 15.7263158,32.3451251 15.8778947,32.3830889" id="Fill-1" fill="#FFFFFF"></path>
                        <g id="Group-5" transform="translate(1.157895, 2.315789)" fill="#009CC5">
                            <path d="M14.4785493,0 C18.6819991,2.0567867 23.1189739,3.3365651 27.7894737,3.79362881 C26.6218487,21.1620499 17.5610792,26.4639889 14.4318443,27.7894737 C11.0690845,26.5096953 1.30773994,21.2534626 0,3.93074792 C5.09084476,3.51939058 9.94816453,2.23961219 14.4785493,0" id="Path"></path>
                        </g>
                    </g>
                </g>
            </g>
        </g>
    </g>
</svg>