<?xml version="1.0" encoding="UTF-8"?>
<svg width="112px" height="112px" viewBox="0 0 112 112" version="1.1" xmlns="http://www.w3.org/2000/svg" xmlns:xlink="http://www.w3.org/1999/xlink">
    <title>02 Health_Insurance_ICON</title>
    <g id="Page-1" stroke="none" stroke-width="1" fill="none" fill-rule="evenodd">
        <g id="05-Our-Products-Dark" transform="translate(-754.000000, -901.000000)">
            <g id="Group-5-Copy" transform="translate(715.000000, 872.000000)">
                <g id="DashB_Health" transform="translate(40.000000, 30.000000)">
                    <rect id="Rectangle-Copy-11" stroke-opacity="0.3" stroke="#FFFFFF" fill="#007290" x="0" y="0" width="110" height="110" rx="15"></rect>
                    <g id="Group-17" transform="translate(20.842105, 27.789474)">
                        <polygon id="Path-2" fill="#009CC5" points="18.7150656 2.11725616 26.1452261 2.11725616 34.4814241 7.70622464 41.1739559 2.11725616 49.0331983 2.11725616 57.0163213 4.9117404 61.8789586 16.6662909 61.8789586 23.6005774 57.0163213 33.8006829 49.0331983 41.8973124 36.7429445 51.7085933 31.8421053 51.7085933 11.8233954 31.0979627 7.46149628 19.8686859 7.46149628 10.8528153"></polygon>
                        <path d="M22.9419109,18.5563022 L33.624981,41.8973124 L40.3356079,27.9912698 L50.473533,27.9912698 L50.473533,27.9923512 C51.4771646,27.9923512 52.2904522,27.1790636 52.2904522,26.175432 C52.2904522,25.1718004 51.4771646,24.3585127 50.473533,24.3585127 L38.0578487,24.3585127 L33.7091476,33.3338863 L23.4131333,10.8528153 L15.2976989,24.0309827 L1.81691928,24.0309827 C0.813287676,24.0309827 0,24.8453502 0,25.847902 C0,26.8515336 0.813287676,27.6648213 1.81691928,27.6648213 L17.3212971,27.6648213 L22.9419109,18.5563022 Z" id="Path" fill="#FFFFFF" fill-rule="nonzero"></path>
                        <path d="M32.0368897,53.5242114 C32.7268899,53.9600506 33.4417524,54.4088746 33.5996479,54.5538129 L34.531904,55.3411584 L35.6101504,54.7841913 C38.3593258,53.3674234 62.5373786,40.3701035 63.5789406,21.1120051 C63.7725293,18.0601344 64.233253,10.9004342 59.145796,5.44981483 L59.1447145,5.45089626 C55.7747273,2.0302429 51.1912456,0.0769681613 46.3907026,0.0119051473 L46.2209075,0.0119051473 C41.8483961,0.0119051473 37.7419509,2.53180953 34.7138905,5.02674078 C31.7342813,2.51982132 27.664659,0 23.3159579,0 L23.2067268,0 C18.3928943,0.107068803 13.8063672,2.06892079 10.4039868,5.47442969 C5.71668116,10.4408141 5.46141266,17.1633462 5.72858631,20.7246465 L5.72750488,20.7246465 C5.80104547,21.7282781 6.67490542,22.4820954 7.67853702,22.4085326 C8.68108885,22.334992 9.43490617,21.4611321 9.36134343,20.4575005 C9.09529385,16.8236619 9.50626507,11.7243828 13.0558152,7.96955475 C15.7563179,5.27229136 19.3912916,3.71914032 23.2067528,3.63386624 C26.2231849,3.54950858 29.9054746,5.40211284 33.5393132,8.76996825 L34.7505927,9.90879249 L35.9618722,8.7818734 C39.5957108,5.46282909 43.2295493,3.63386624 46.2091585,3.63386624 L46.2816193,3.63386624 C50.1123081,3.66090393 53.7796472,5.19230539 56.4931902,7.89701641 C60.5140844,12.1969895 60.1270287,18.2652922 59.9573111,20.869474 C59.0975103,36.7739201 39.9107044,48.2812139 34.907497,51.0171829 L33.9871461,50.4353257 C29.7239959,47.7586057 18.4459453,40.6002898 12.75307,30.9100537 C12.2447756,30.0437742 11.1308138,29.7539254 10.2645343,30.2622475 C9.39825492,30.7705419 9.10732635,31.8845038 9.61672822,32.7507832 C15.7575693,43.20461 27.5793805,50.7026378 32.037166,53.5241577 L32.0368897,53.5242114 Z" id="Path" fill="#FFFFFF" fill-rule="nonzero"></path>
                    </g>
                </g>
            </g>
        </g>
    </g>
</svg>